<svg id="icon" width="100%" height="100%" viewBox="0 0 120 120" xmlns="http://www.w3.org/2000/svg">
<path d="M86.5 60.5V25.5H41.5C39.8333 25.5 36.4 26.6 36 31V51C35.6667 51.8333 34.6 53.2 33 52L32 48C30.6667 48.1667 27.9 49.5 27.5 53.5C27.1 57.5 27.3333 79.5 27.5 90C27.5 91.6667 28.7 95.1 33.5 95.5H80.5C81.5 94.8333 82.9 93.2 80.5 92H34.5C33.3333 91.6667 31 90.4 31 88C31 85.6 32.5 84 33.5 84H81.5V73H86.5C87 72.3333 87.7 70.8 86.5 70H43.5C42.3333 70 39.8 69.2 39 66C38.2 62.8 41.5 60.5 43.5 60.5H86.5Z" fill="#6E3CA6"/>
</svg>
