<svg 
  id="icon"
  width="100%" 
  height="100%"
  viewBox="0 0 120 120"
  xmlns="http://www.w3.org/2000/svg">
<path d="M70.1752 40.5279L79.077 49.4297L82.2536 46.2337C83.0306 45.452 83.0287 44.189 82.2493 43.4096L76.1998 37.3601C75.4212 36.5815 74.1597 36.5787 73.3776 37.3538L70.1752 40.5279Z" stroke-linecap="round" stroke-linejoin="round"/>
<path d="M73.2344 54.3439L65.3855 46.495C65.1121 46.2216 64.6689 46.2216 64.3955 46.495L38.2043 72.6862C38.1236 72.7669 38.0638 72.8662 38.0302 72.9752L34.3978 84.7748C34.2294 85.3219 34.753 85.8288 35.2943 85.6428L46.7672 81.7005C46.8679 81.6659 46.9594 81.6088 47.0347 81.5335L73.2344 55.3338C73.5077 55.0604 73.5077 54.6172 73.2344 54.3439Z"/>
</svg>
