<svg id="icon" width="100%" height="100%" viewBox="0 0 120 120" xmlns="http://www.w3.org/2000/svg">
<rect x="26.7275" y="37" width="66.2479" height="39.5537" rx="4"/>
<path d="M99.6586 77.1488H19.8749C18.4816 77.1488 17.6399 78.518 18.6712 79.455C21.5132 82.0371 26.9964 83.8071 31.4008 83.9553C37.0207 84.1444 81.6281 84.3335 89.3554 83.9553C94.8676 83.6856 98.8309 81.09 100.735 79.087C101.582 78.1961 100.888 77.1488 99.6586 77.1488Z"/>
<path d="M37.372 66.9629L48.9856 53.3451C49.75 52.4487 51.1198 52.404 51.9411 53.2485L59.7785 61.3073C60.5848 62.1364 61.9241 62.1108 62.6982 61.2516L73.0835 49.724C73.831 48.8944 75.1129 48.8375 75.9309 49.5976L81.0621 54.3658" stroke-linecap="round"/>
<ellipse cx="50.7187" cy="51.8596" rx="2.80991" ry="2.80992"/>
<ellipse cx="61.256" cy="62.3966" rx="2.80991" ry="2.80992"/>
<ellipse cx="74.6027" cy="48.3473" rx="2.80991" ry="2.80992"/>
</svg>
