<svg id="icon" width="100%" height="100%" viewBox="0 0 120 120" xmlns="http://www.w3.org/2000/svg">
<path d="M21 56.2652H30.6694V92.6842H35.8264V56.2652L53.2314 30.902L21 56.2652Z"/>
<path d="M99 58.2163L59.6777 27L82.8843 58.2163H99Z"/>
<path d="M55.1653 51.7129C60.3223 51.7129 62.9008 54.7478 63.5455 56.2652C61.1818 55.8317 58.3487 55.0334 56 57C53.6901 58.9341 53.9111 62.7264 55 66C56.0889 69.2736 56.8225 69.7172 60.3223 76.4257C50.0083 70.7028 47.8595 61.9015 48.0744 58.2163C48.2893 56.0485 50.0083 51.7129 55.1653 51.7129Z"/>
<path d="M74.5041 60.8176C71.9256 58.2163 67.4132 59.5169 66.124 60.8176L64.8347 62.1183C66.5537 61.9015 69.0973 61.6663 70.6364 63.419C72.148 65.1404 71.182 69.3488 70.6364 70.5727C70 72 68.4876 75.1251 66.7686 77.0761C69.3471 76.5558 71.5 74 73.2149 71.8734C75.9435 68.4896 77.0826 63.419 74.5041 60.8176Z"/>
<circle cx="53.8764" cy="46.9829" r="2.47314"/>
<path d="M73.1095 54.075C73.1095 55.0848 72.2909 55.9035 71.281 55.9035C70.2712 55.9035 69.4525 55.0848 69.4525 54.075C69.4525 53.0651 70.2712 52.2465 71.281 52.2465C72.2909 52.2465 73.1095 53.0651 73.1095 54.075Z"/>
<path d="M81.3665 71.5973C80.6476 70.8486 79.4326 71.8122 78.788 72.2419C78.1434 72.6717 73.5 76.5 73.5 76.5C73.5 76.5 68.4739 80.6221 67.8293 82.5559C67.1436 84.6131 67.1847 90.2915 67.1847 90.2915L67.1847 92.2254L74.2756 92.2254C74.0607 90.2915 74.5186 87.5526 75.5649 86.4237C76.6111 85.2948 79.5 84.4736 82.6558 81.9113C85.8116 79.349 88.4574 74.7305 88.4574 69.0188C88.4574 67.5394 87.8128 65.7956 87.1682 65.151C86.6525 64.6353 86.0938 65.3659 85.8789 65.7956C85.2343 67.0849 85.6555 69.9063 84.5897 72.2419C83.9955 73.5438 83.5747 74.2575 82.6558 75.3544C81.4358 76.8107 79.6014 78.5847 78.9868 78.8289C78.3723 79.0731 77.6736 78.3059 77.4988 78.0436C77.4988 78.0436 80.5 74.5 81 74C81.5 73.5 82.024 72.2819 81.3665 71.5973Z"/>
<path d="M46.0909 71.5973C46.8099 70.8486 48.0248 71.8122 48.6694 72.2419C49.3141 72.6717 53.9575 76.5 53.9575 76.5C53.9575 76.5 58.9836 80.6221 59.6282 82.5559C60.3138 84.6131 60.2728 90.2915 60.2728 90.2915L60.2727 92.2254L53.1818 92.2254C53.3967 90.2915 52.9388 87.5526 51.8926 86.4237C50.8463 85.2948 47.9575 84.4736 44.8017 81.9113C41.6459 79.349 39 74.7305 39 69.0188C39 67.5394 39.6446 65.7956 40.2893 65.151C40.805 64.6353 41.3637 65.3659 41.5785 65.7956C42.2232 67.0849 41.8019 69.9063 42.8678 72.2419C43.4619 73.5438 43.8827 74.2575 44.8017 75.3544C46.0217 76.8107 47.8561 78.5847 48.4706 78.8289C49.0852 79.0731 49.7838 78.3059 49.9587 78.0436C49.9587 78.0436 46.9575 74.5 46.4575 74C45.9575 73.5 45.4335 72.2819 46.0909 71.5973Z"/>
</svg>
