<svg id="icon" width="100%" height="100%" viewBox="0 0 160 160" fill="none" xmlns="http://www.w3.org/2000/svg">
<path d="M98.97 82.5C93.0025 92.8353 83.1737 100.377 71.646 103.465M98.97 82.5C104.937 72.1644 106.554 59.8818 103.465 48.354M98.97 82.5L68.66 65M71.646 103.465C60.1182 106.554 47.8356 104.937 37.5 98.97M71.646 103.465L62.588 69.659M37.5 98.97C27.1647 93.0024 19.6233 83.1737 16.5346 71.6459M37.5 98.97L55 68.66M103.465 48.354C100.377 36.8263 92.8353 26.9975 82.5 21.03M103.465 48.354L69.659 57.412M82.5 21.03C72.1645 15.0629 59.8819 13.4458 48.3541 16.5345M82.5 21.03L65 51.34M68.66 65C67.3339 67.2967 65.1497 68.9726 62.588 69.659M68.66 65C69.986 62.7032 70.3454 59.9737 69.659 57.412M16.5346 71.6459C13.4459 60.1181 15.0629 47.8355 21.03 37.5M16.5346 71.6459L50.341 62.588M21.03 37.5C26.9976 27.1647 36.8263 19.6232 48.3541 16.5345M21.03 37.5L51.34 55M55 68.66C57.2968 69.986 60.0263 70.3453 62.588 69.659M55 68.66C52.7033 67.3339 51.0274 65.1497 50.341 62.588M48.3541 16.5345L57.412 50.341M51.34 55C50.014 57.2968 49.6546 60.0262 50.341 62.588M51.34 55C52.6661 52.7033 54.8503 51.0274 57.412 50.341M65 51.34C67.2967 52.6661 68.9726 54.8503 69.659 57.412M65 51.34C62.7032 50.014 59.9738 49.6546 57.412 50.341" stroke-width="7.5" stroke-linecap="round" stroke-linejoin="round"/>
</svg>
