<svg id="icon" width="100%" height="100%" viewBox="0 0 160 160" fill="none" xmlns="http://www.w3.org/2000/svg">
<path d="M78.75 112.5C72.8166 112.5 67.0164 110.741 62.0829 107.444C57.1494 104.148 53.3043 99.4623 51.0336 93.9805C48.763 88.4987 48.1689 82.4667 49.3265 76.6473C50.484 70.8279 53.3412 65.4824 57.5368 61.2868C61.7324 57.0912 67.0779 54.234 72.8973 53.0765C78.7167 51.9189 84.7487 52.513 90.2305 54.7836C95.7123 57.0543 100.398 60.8994 103.694 65.8329C106.991 70.7664 108.75 76.5666 108.75 82.5C108.75 90.4565 105.589 98.0871 99.9632 103.713C94.3371 109.339 86.7065 112.5 78.75 112.5ZM78.75 60C74.2999 60 69.9498 61.3196 66.2497 63.7919C62.5496 66.2643 59.6657 69.7783 57.9627 73.8896C56.2598 78.001 55.8142 82.525 56.6823 86.8895C57.5505 91.2541 59.6934 95.2632 62.8401 98.4099C65.9868 101.557 69.9959 103.7 74.3605 104.568C78.7251 105.436 83.2491 104.99 87.3604 103.287C91.4717 101.584 94.9857 98.7005 97.4581 95.0003C99.9304 91.3002 101.25 86.9501 101.25 82.5C101.25 76.5326 98.8795 70.8097 94.6599 66.5901C90.4404 62.3705 84.7174 60 78.75 60Z" fill="black" stroke-width="5"/>
<path d="M84.7125 93.75L75 84.0375V67.5H82.5V80.9625L90 88.4625L84.7125 93.75Z" fill="black"/>
<path d="M105 22.5C105 20.5109 104.21 18.6032 102.803 17.1967C101.397 15.7902 99.4891 15 97.5 15H82.5V7.5H75V15H45V7.5H37.5V15H22.5C20.5109 15 18.6032 15.7902 17.1967 17.1967C15.7902 18.6032 15 20.5109 15 22.5V97.5C15 99.4891 15.7902 101.397 17.1967 102.803C18.6032 104.21 20.5109 105 22.5 105H37.5V97.5H22.5V22.5H37.5V30H45V22.5H75V30H82.5V22.5H97.5V45H105V22.5Z" fill="black" stroke-width="5"/>
</svg>
