<svg id="icon" width="100%" height="100%" viewBox="0 0 160 160" xmlns="http://www.w3.org/2000/svg">
<path d="M27.5 75C27.5 74.337 27.7634 73.7011 28.2322 73.2322C28.7011 72.7634 29.337 72.5 30 72.5H65C65.663 72.5 66.2989 72.7634 66.7678 73.2322C67.2366 73.7011 67.5 74.337 67.5 75C67.5 75.663 67.2366 76.2989 66.7678 76.7678C66.2989 77.2366 65.663 77.5 65 77.5H30C29.337 77.5 28.7011 77.2366 28.2322 76.7678C27.7634 76.2989 27.5 75.663 27.5 75ZM30 85C29.337 85 28.7011 85.2634 28.2322 85.7322C27.7634 86.2011 27.5 86.837 27.5 87.5C27.5 88.163 27.7634 88.7989 28.2322 89.2678C28.7011 89.7366 29.337 90 30 90H65C65.663 90 66.2989 89.7366 66.7678 89.2678C67.2366 88.7989 67.5 88.163 67.5 87.5C67.5 86.837 67.2366 86.2011 66.7678 85.7322C66.2989 85.2634 65.663 85 65 85H30ZM35 52.5V45H40V52.5H47.5V57.5H40V65H35V57.5H27.5V52.5H35Z" fill="black"/>
<path fill-rule="evenodd" clip-rule="evenodd" d="M37.5 15C35.5109 15 33.6032 15.7902 32.1967 17.1967C30.7902 18.6032 30 20.5109 30 22.5H22.5C20.5109 22.5 18.6032 23.2902 17.1967 24.6967C15.7902 26.1032 15 28.0109 15 30V97.5C15 99.4891 15.7902 101.397 17.1967 102.803C18.6032 104.21 20.5109 105 22.5 105H72.5C74.4891 105 76.3968 104.21 77.8033 102.803C79.2098 101.397 80 99.4891 80 97.5V30C80 28.0109 79.2098 26.1032 77.8033 24.6967C76.3968 23.2902 74.4891 22.5 72.5 22.5H65C65 20.5109 64.2098 18.6032 62.8033 17.1967C61.3968 15.7902 59.4891 15 57.5 15H37.5ZM57.5 30C58.163 30 58.7989 29.7366 59.2678 29.2678C59.7366 28.7989 60 28.163 60 27.5V22.5C60 21.837 59.7366 21.2011 59.2678 20.7322C58.7989 20.2634 58.163 20 57.5 20H37.5C36.837 20 36.2011 20.2634 35.7322 20.7322C35.2634 21.2011 35 21.837 35 22.5V27.5C35 28.163 35.2634 28.7989 35.7322 29.2678C36.2011 29.7366 36.837 30 37.5 30H57.5ZM30 27.5C30 29.4891 30.7902 31.3968 32.1967 32.8033C33.6032 34.2098 35.5109 35 37.5 35H57.5C59.4891 35 61.3968 34.2098 62.8033 32.8033C64.2098 31.3968 65 29.4891 65 27.5H72.5C73.163 27.5 73.7989 27.7634 74.2678 28.2322C74.7366 28.7011 75 29.337 75 30V97.5C75 98.163 74.7366 98.7989 74.2678 99.2678C73.7989 99.7366 73.163 100 72.5 100H22.5C21.837 100 21.2011 99.7366 20.7322 99.2678C20.2634 98.7989 20 98.163 20 97.5V30C20 29.337 20.2634 28.7011 20.7322 28.2322C21.2011 27.7634 21.837 27.5 22.5 27.5H30ZM90 42.5C90 40.5109 90.7902 38.6032 92.1967 37.1967C93.6032 35.7902 95.5109 35 97.5 35C99.4891 35 101.397 35.7902 102.803 37.1967C104.21 38.6032 105 40.5109 105 42.5V93.2575L97.5 104.508L90 93.2575V42.5ZM97.5 40C96.837 40 96.2011 40.2634 95.7322 40.7322C95.2634 41.2011 95 41.837 95 42.5V47.5H100V42.5C100 41.837 99.7366 41.2011 99.2678 40.7322C98.7989 40.2634 98.163 40 97.5 40ZM97.5 95.4925L100 91.7425V52.5H95V91.7425L97.5 95.4925Z" stroke-width="5"/>
</svg>
