<svg id="icon" width="100%" height="100%" viewBox="0 0 160 160" fill="none" xmlns="http://www.w3.org/2000/svg">
<path d="M60 65C65.3043 65 70.3914 62.8929 74.1421 59.1421C77.8929 55.3914 80 50.3043 80 45C80 39.6957 77.8929 34.6086 74.1421 30.8579C70.3914 27.1071 65.3043 25 60 25C54.6957 25 49.6086 27.1071 45.8579 30.8579C42.1071 34.6086 40 39.6957 40 45C40 50.3043 42.1071 55.3914 45.8579 59.1421C49.6086 62.8929 54.6957 65 60 65ZM60 65C52.0435 65 44.4129 68.1607 38.7868 73.7868C33.1607 79.4129 30 87.0435 30 95V110M60 65C67.9565 65 75.5871 68.1607 81.2132 73.7868C86.8393 79.4129 90 87.0435 90 95V110M65 25C67.02 16.68 75.075 10 85 10C95.86 10 104.9 18.95 105 30C104.9 41.05 95.86 50 85 50M85 50H80M85 50C101.44 50 115 63.43 115 80V90M55 25C52.98 16.68 44.925 10 35 10C24.14 10 15.1 18.95 15 30C15.1 41.05 24.14 50 35 50M35 50H40M35 50C18.56 50 5 63.43 5 80V90"  stroke-width="10"/>
</svg>
