<svg id="icon" width="100%" height="100%" viewBox="0 0 160 160" fill="none" xmlns="http://www.w3.org/2000/svg">
<path d="M41.25 63.75C44.3566 63.75 46.875 61.2316 46.875 58.125C46.875 55.0184 44.3566 52.5 41.25 52.5C38.1434 52.5 35.625 55.0184 35.625 58.125C35.625 61.2316 38.1434 63.75 41.25 63.75Z" fill="black" stroke-width="6"/>
<path d="M45 45H37.5V30H45C46.9891 30 48.8968 29.2098 50.3033 27.8033C51.7098 26.3968 52.5 24.4891 52.5 22.5C52.5 20.5109 51.7098 18.6032 50.3033 17.1967C48.8968 15.7902 46.9891 15 45 15H37.5C35.5115 15.002 33.605 15.7928 32.1989 17.1989C30.7928 18.605 30.002 20.5115 30 22.5V24.375H22.5V22.5C22.505 18.5233 24.0869 14.7108 26.8989 11.8989C29.7108 9.08691 33.5233 7.50496 37.5 7.5H45C48.9782 7.5 52.7936 9.08035 55.6066 11.8934C58.4196 14.7064 60 18.5218 60 22.5C60 26.4782 58.4196 30.2936 55.6066 33.1066C52.7936 35.9196 48.9782 37.5 45 37.5V45Z" fill="black" stroke-width="6"/>
<path d="M84.18 78.8775C87.9316 74.3882 90.6826 69.1504 92.2493 63.5136C93.8161 57.8768 94.1626 51.9707 93.2658 46.1893C92.369 40.408 90.2494 34.8844 87.0485 29.9872C83.8477 25.09 79.6391 20.9318 74.7038 17.79L70.9575 24.2775C75.8476 27.4762 79.8231 31.8901 82.4947 37.0869C85.1663 42.2837 86.4424 48.0853 86.198 53.9236C85.9536 59.7618 84.1971 65.4364 81.1005 70.3918C78.0039 75.3471 73.6734 79.4133 68.5331 82.1921C63.3928 84.9709 57.6189 86.367 51.7768 86.2437C45.9348 86.1204 40.225 84.4819 35.2065 81.4887C30.188 78.4955 26.0329 74.2503 23.1481 69.1687C20.2634 64.0871 18.7479 58.3434 18.75 52.5H11.25C11.2443 60.3392 13.4742 68.0175 17.678 74.6342C21.8817 81.251 27.8852 86.5318 34.9841 89.8572C42.083 93.1827 49.9829 94.4149 57.7574 93.4094C65.5318 92.4038 72.8583 89.2022 78.8775 84.18L107.198 112.5L112.5 107.198L84.18 78.8775Z" fill="black" stroke-width="6"/>
</svg>
