<svg id="icon" width="100%" height="100%" viewBox="0 0 120 120" fill="none" xmlns="http://www.w3.org/2000/svg">
<path d="M73.8 15.325C66.1564 15.3655 58.8 18.2415 53.1559 23.396C47.5118 28.5506 43.9819 35.6165 43.2499 43.225C37.4315 43.7737 31.8892 45.9667 27.2707 49.5479C22.6522 53.1292 19.1481 57.9507 17.1677 63.4493C15.1874 68.9478 14.8126 74.8964 16.0872 80.6C17.3618 86.3036 20.2331 91.5268 24.3656 95.6594C28.4981 99.7919 33.7213 102.663 39.425 103.938C45.1286 105.212 51.0772 104.838 56.5757 102.857C62.0743 100.877 66.8958 97.3728 70.477 92.7543C74.0583 88.1358 76.2513 82.5935 76.7999 76.775C84.683 76.021 91.9727 72.259 97.1545 66.2707C102.336 60.2824 105.012 52.528 104.626 44.6183C104.24 36.7087 100.821 29.2518 95.0809 23.7967C89.3404 18.3416 81.719 15.3076 73.8 15.325ZM46.1499 99.675C41.2659 99.6654 36.4846 98.2713 32.3608 95.6544C28.237 93.0375 24.9396 89.3051 22.8512 84.89C20.7628 80.475 19.9689 75.5584 20.5616 70.7104C21.1543 65.8624 23.1093 61.2819 26.1999 57.5L62.55 93.8C57.9312 97.6031 52.1329 99.6802 46.1499 99.675ZM66.1 90.275L29.7499 53.925C34.705 49.8496 40.9997 47.7646 47.4079 48.076C53.816 48.3873 59.8789 51.0729 64.4155 55.6095C68.9521 60.1461 71.6376 66.2089 71.949 72.6171C72.2604 79.0253 70.1753 85.3199 66.1 90.275ZM76.8499 71.725C76.3666 64.3034 73.1968 57.3118 67.9332 52.0574C62.6695 46.803 55.6724 43.6454 48.2499 43.175C48.8023 38.3592 50.7009 33.7967 53.728 30.0107C56.7552 26.2248 60.7882 23.3688 65.3644 21.7704C69.9406 20.1719 74.8748 19.8958 79.6008 20.9737C84.3268 22.0516 88.6532 24.4399 92.0838 27.8645C95.5144 31.2891 97.9102 35.6113 98.9964 40.3354C100.083 45.0595 99.8151 49.9941 98.2247 54.5732C96.6342 59.1522 93.7853 63.1902 90.0047 66.2239C86.224 69.2576 81.6648 71.1643 76.8499 71.725Z" fill="black"/>
</svg>
