<svg id="icon" width="100%" height="100%" viewBox="0 0 160 160" xmlns="http://www.w3.org/2000/svg">
<path d="M66 18C64.4087 18 62.8826 18.6321 61.7574 19.7574C60.6321 20.8826 60 22.4087 60 24C60 25.5913 60.6321 27.1174 61.7574 28.2426C62.8826 29.3679 64.4087 30 66 30H81.516L43.758 67.758C43.1849 68.3115 42.7278 68.9736 42.4134 69.7056C42.0989 70.4376 41.9334 71.2249 41.9265 72.0216C41.9196 72.8183 42.0714 73.6083 42.3731 74.3457C42.6748 75.0831 43.1203 75.753 43.6836 76.3164C44.247 76.8797 44.9169 77.3252 45.6543 77.6269C46.3917 77.9286 47.1817 78.0804 47.9784 78.0735C48.7751 78.0666 49.5624 77.9011 50.2944 77.5866C51.0264 77.2722 51.6885 76.8151 52.242 76.242L90 38.484V54C90 55.5913 90.6321 57.1174 91.7574 58.2426C92.8826 59.3679 94.4087 60 96 60C97.5913 60 99.1174 59.3679 100.243 58.2426C101.368 57.1174 102 55.5913 102 54V24C102 22.4087 101.368 20.8826 100.243 19.7574C99.1174 18.6321 97.5913 18 96 18H66Z"  stroke-width="7"/>
<path d="M30 30C26.8174 30 23.7652 31.2643 21.5147 33.5147C19.2643 35.7652 18 38.8174 18 42V90C18 93.1826 19.2643 96.2348 21.5147 98.4853C23.7652 100.736 26.8174 102 30 102H78C81.1826 102 84.2348 100.736 86.4853 98.4853C88.7357 96.2348 90 93.1826 90 90V72C90 70.4087 89.3679 68.8826 88.2426 67.7574C87.1174 66.6321 85.5913 66 84 66C82.4087 66 80.8826 66.6321 79.7574 67.7574C78.6321 68.8826 78 70.4087 78 72V90H30V42H48C49.5913 42 51.1174 41.3679 52.2426 40.2426C53.3679 39.1174 54 37.5913 54 36C54 34.4087 53.3679 32.8826 52.2426 31.7574C51.1174 30.6321 49.5913 30 48 30H30Z"  stroke-width="7"/>
</svg>
