<?xml version="1.0" encoding="UTF-8"?>
<!DOCTYPE svg PUBLIC "-//W3C//DTD SVG 1.1//EN" "http://www.w3.org/Graphics/SVG/1.1/DTD/svg11.dtd">
<svg xmlns="http://www.w3.org/2000/svg" id="icon" width="100%" height="100%" viewBox="0 0 800 800" style="shape-rendering:geometricPrecision; text-rendering:geometricPrecision; image-rendering:optimizeQuality; fill-rule:evenodd; clip-rule:evenodd" xmlns:xlink="http://www.w3.org/1999/xlink">
<g><path style="opacity:1" stroke-width="10" d="M 299.5,2.5 C 306.016,1.23698 311.516,2.90365 316,7.5C 345.143,56.5972 362.477,109.597 368,166.5C 370.788,220.46 357.121,269.794 327,314.5C 308.942,340.226 291.276,366.226 274,392.5C 251.42,430.152 242.42,470.819 247,514.5C 249.048,532.648 255.048,549.314 265,564.5C 268.086,567.517 271.086,570.517 274,573.5C 277.29,584.607 273.29,590.941 262,592.5C 259.37,592.536 256.87,592.036 254.5,591C 228.432,574.703 204.266,555.87 182,534.5C 132.255,477.789 118.255,413.123 140,340.5C 154.01,299.471 174.01,261.805 200,227.5C 222.71,201.126 245.043,174.459 267,147.5C 286.026,120.079 295.192,89.5795 294.5,56C 293.709,41.1366 292.875,26.3032 292,11.5C 293.642,7.69966 296.142,4.69966 299.5,2.5 Z M 223.5,535.5 C 169.442,492.66 148.275,436.993 160,368.5C 168.823,333.86 182.823,301.527 202,271.5C 210.946,258.221 220.279,245.221 230,232.5C 248.374,211.794 266.374,190.794 284,169.5C 305.011,142.487 317.011,111.82 320,77.5C 333.667,111.168 341.167,146.168 342.5,182.5C 341.441,218.07 332.274,251.403 315,282.5C 309.667,291.167 304.333,299.833 299,308.5C 283.276,330.559 267.943,352.892 253,375.5C 222.578,425.032 212.745,478.365 223.5,535.5 Z"/></g>
<g><path style="opacity:1" stroke-width="10" d="M 214.5,148.5 C 229.862,148.024 235.028,155.024 230,169.5C 200.057,202.098 172.39,236.431 147,272.5C 133.088,293.324 122.088,315.657 114,339.5C 100.646,408.416 115.979,470.083 160,524.5C 163.87,532.225 162.37,538.725 155.5,544C 152.262,545.368 148.928,545.701 145.5,545C 99.1646,522.663 66.6646,487.496 48,439.5C 28.9522,384.885 34.9522,333.218 66,284.5C 76.8582,268.982 89.0249,254.482 102.5,241C 138.858,208.793 176.191,177.959 214.5,148.5 Z M 124.5,257.5 C 124.5,257.833 124.5,258.167 124.5,258.5C 109.241,280.686 97.4077,304.686 89,330.5C 80.1312,368.891 80.4645,407.225 90,445.5C 93.076,455.56 96.2427,465.56 99.5,475.5C 59.681,425.612 53.181,371.612 80,313.5C 91.6534,292.342 106.487,273.675 124.5,257.5 Z"/></g>
<g><path style="opacity:1" stroke-width="10" d="M 465.5,422.5 C 464.471,426.364 464.804,426.364 466.5,422.5C 471.434,414.968 475.601,406.968 479,398.5C 484.779,392.836 491.279,392.003 498.5,396C 500.041,397.579 501.208,399.413 502,401.5C 501.087,449.907 486.42,493.574 458,532.5C 423.602,571.95 380.102,593.783 327.5,598C 320.5,598.667 313.5,598.667 306.5,598C 303.333,596.167 300.833,593.667 299,590.5C 268.391,539.073 262.724,485.073 282,428.5C 284.887,421.058 288.554,414.058 293,407.5C 310.057,383.441 326.724,359.108 343,334.5C 367.318,296.855 382.984,255.855 390,211.5C 391.107,201.311 391.274,191.144 390.5,181C 392.284,169.11 398.951,164.776 410.5,168C 417.075,174.624 422.575,182.124 427,190.5C 462.416,255.158 476.749,324.158 470,397.5C 468.929,405.93 467.429,414.263 465.5,422.5 Z M 414.5,226.5 C 442.499,284.99 451.332,346.323 441,410.5C 436.67,431.818 429.004,451.818 418,470.5C 416.308,483.141 421.808,488.975 434.5,488C 444.85,481.986 454.35,474.82 463,466.5C 444.042,521.781 405.875,555.614 348.5,568C 338.995,569.786 329.495,571.286 320,572.5C 297.959,534.882 291.959,494.882 302,452.5C 304.503,443.829 307.836,435.495 312,427.5C 328.42,402.993 345.086,378.66 362,354.5C 388.04,315.409 405.54,272.743 414.5,226.5 Z"/></g>
<g><path style="opacity:1" stroke-width="10" d="M 124.5,258.5 C 124.5,258.167 124.5,257.833 124.5,257.5C 124.976,255.934 125.643,255.6 126.5,256.5C 126.145,257.522 125.478,258.189 124.5,258.5 Z"/></g>
<g><path style="opacity:1" stroke-width="10" d="M 465.5,422.5 C 465.833,422.5 466.167,422.5 466.5,422.5C 464.804,426.364 464.471,426.364 465.5,422.5 Z"/></g>
<g><path style="opacity:1" stroke-width="10" d="M 99.5,476.5 C 101.028,476.517 101.528,477.184 101,478.5C 100.283,477.956 99.7828,477.289 99.5,476.5 Z"/></g>
</svg>
