<svg id="icon" width="100%" height="100%" viewBox="0 0 120 120" xmlns="http://www.w3.org/2000/svg">
<path d="M54.5749 82.4851V70.7911H66.6322V82.4851M54.5749 82.4851H66.6322M54.5749 82.4851C51.1031 83.1379 42.8368 85.2296 41.9549 88.3732H79.8952C77.1943 84.6315 69.9278 82.8887 66.6322 82.4851"/>
<path d="M29.1255 34.3698H41.1606V37.3483H32.6024C32.6024 37.3483 31.8 50.5548 32.6024 52.9445C33.4047 55.3343 37.1989 56.5921 40.5643 57.0952L41.8292 60.8685C33.8983 61.1872 29.408 55.941 29.1255 53.3376C28.8431 50.7342 29.1255 34.3698 29.1255 34.3698Z"/>
<path d="M78.9698 31H41.9549V53.2662C41.9549 59.868 45.7393 66.0356 54.6648 68.0149H66.2599C76.0711 65.7239 78.8212 57.2279 78.9698 53.2662V31Z"/>
<path d="M90.8819 33.87H79.562V36.8485H87.6117C87.6117 36.8485 88.3664 50.055 87.6117 52.4447C86.8571 54.8345 83.2883 56.0922 80.1229 56.5953L78.9332 60.3686C86.3928 60.6874 90.6163 55.4412 90.8819 52.8378C91.1476 50.2344 90.8819 33.87 90.8819 33.87Z"/>
<path d="M41.0296 31H80.5242" stroke-linecap="round"/>
</svg>
