<svg id="icon" width="100%" height="100%" viewBox="0 0 160 160" fill="none" xmlns="http://www.w3.org/2000/svg">
<path d="M103.125 85.6641C105.703 86.9531 108.027 88.5352 110.098 90.4102C112.168 92.2852 113.926 94.375 115.371 96.6797C116.816 98.9844 117.949 101.484 118.77 104.18C119.59 106.875 120 109.648 120 112.5H112.5C112.5 109.414 111.914 106.504 110.742 103.77C109.57 101.035 107.969 98.6523 105.938 96.6211C103.906 94.5898 101.504 92.9687 98.7305 91.7578C95.957 90.5469 93.0469 89.9609 90 90C86.875 90 83.9648 90.5859 81.2695 91.7578C78.5742 92.9297 76.1914 94.5312 74.1211 96.5625C72.0508 98.5938 70.4297 100.996 69.2578 103.77C68.0859 106.543 67.5 109.453 67.5 112.5H60C60 109.648 60.3906 106.875 61.1719 104.18C61.9531 101.484 63.0859 98.9844 64.5703 96.6797C66.0547 94.375 67.832 92.2852 69.9023 90.4102C71.9727 88.5352 74.2969 86.9531 76.875 85.6641C73.9453 83.5547 71.6602 80.918 70.0195 77.7539C68.3789 74.5898 67.5391 71.1719 67.5 67.5C67.5 64.4141 68.0859 61.5039 69.2578 58.7695C70.4297 56.0352 72.0312 53.6523 74.0625 51.6211C76.0938 49.5898 78.4766 47.9687 81.2109 46.7578C83.9453 45.5469 86.875 44.9609 90 45C93.0859 45 95.9961 45.5859 98.7305 46.7578C101.465 47.9297 103.848 49.5312 105.879 51.5625C107.91 53.5938 109.531 55.9961 110.742 58.7695C111.953 61.543 112.539 64.4531 112.5 67.5C112.5 71.1719 111.68 74.5898 110.039 77.7539C108.398 80.918 106.094 83.5547 103.125 85.6641ZM90 82.5C92.0703 82.5 94.0039 82.1094 95.8008 81.3281C97.5977 80.5469 99.1992 79.4727 100.605 78.1055C102.012 76.7383 103.086 75.1562 103.828 73.3594C104.57 71.5625 104.961 69.6094 105 67.5C105 65.4297 104.609 63.4961 103.828 61.6992C103.047 59.9023 101.973 58.3008 100.605 56.8945C99.2383 55.4883 97.6562 54.4141 95.8594 53.6719C94.0625 52.9297 92.1094 52.5391 90 52.5C87.9297 52.5 85.9961 52.8906 84.1992 53.6719C82.4023 54.4531 80.8008 55.5273 79.3945 56.8945C77.9883 58.2617 76.9141 59.8438 76.1719 61.6406C75.4297 63.4375 75.0391 65.3906 75 67.5C75 69.5703 75.3906 71.5039 76.1719 73.3008C76.9531 75.0977 78.0273 76.6992 79.3945 78.1055C80.7617 79.5117 82.3438 80.5859 84.1406 81.3281C85.9375 82.0703 87.8906 82.4609 90 82.5ZM60 87.1875C58.75 88.6328 57.6172 90.1367 56.6016 91.6992C55.5859 93.2617 54.6875 94.9414 53.9062 96.7383C51.8359 94.5898 49.3359 92.9297 46.4062 91.7578C43.4766 90.5859 40.5078 90 37.5 90H15V15H7.5V97.5H53.6133C53.0664 98.7109 52.6172 99.9414 52.2656 101.191C51.9141 102.441 51.6211 103.711 51.3867 105H0V7.5H15V0H37.5C40.9375 0 44.2383 0.527344 47.4023 1.58203C50.5664 2.63672 53.5156 4.21875 56.25 6.32812C58.9453 4.21875 61.875 2.63672 65.0391 1.58203C68.2031 0.527344 71.5234 0 75 0H97.5V7.5H112.5V45C110.234 42.7734 107.734 40.918 105 39.4336V15H97.5V36.6211C96.25 36.2695 95 36.0156 93.75 35.8594C92.5 35.7031 91.25 35.625 90 35.625V7.5H75C72.2656 7.5 69.6094 7.96875 67.0312 8.90625C64.4531 9.84375 62.1094 11.2305 60 13.0664V87.1875ZM52.5 86.4258V13.0664C50.3906 11.2695 48.0469 9.90234 45.4688 8.96484C42.8906 8.02734 40.2344 7.53906 37.5 7.5H22.5V82.5H37.5C40.1172 82.5 42.6953 82.832 45.2344 83.4961C47.7734 84.1602 50.1953 85.1367 52.5 86.4258Z" fill="black" stroke-width="4"/>
</svg>
