<svg id="icon" width="100%" height="100%" viewBox="0 0 160 160" fill="none" xmlns="http://www.w3.org/2000/svg">
<path d="M107.651 72.3487L97.5 62.1975V48.75C97.4884 39.4569 94.0313 30.4982 87.7974 23.6062C81.5634 16.7142 72.9954 12.3785 63.75 11.4375V3.75H56.25V11.4375C47.0046 12.3785 38.4366 16.7142 32.2026 23.6062C25.9687 30.4982 22.5116 39.4569 22.5 48.75V62.1975L12.3487 72.3487C11.6454 73.0518 11.2502 74.0055 11.25 75V86.25C11.25 87.2446 11.6451 88.1984 12.3483 88.9017C13.0516 89.6049 14.0054 90 15 90H41.25V92.9138C41.1684 97.6711 42.8453 102.291 45.9592 105.889C49.0731 109.487 53.4051 111.809 58.125 112.41C60.7319 112.669 63.3641 112.379 65.8522 111.559C68.3403 110.739 70.6293 109.407 72.572 107.65C74.5146 105.892 76.0679 103.748 77.1319 101.354C78.1959 98.9598 78.7471 96.3697 78.75 93.75V90H105C105.995 90 106.948 89.6049 107.652 88.9017C108.355 88.1984 108.75 87.2446 108.75 86.25V75C108.75 74.0055 108.355 73.0518 107.651 72.3487ZM71.25 93.75C71.25 96.7337 70.0647 99.5952 67.955 101.705C65.8452 103.815 62.9837 105 60 105C57.0163 105 54.1548 103.815 52.045 101.705C49.9353 99.5952 48.75 96.7337 48.75 93.75V90H71.25V93.75ZM101.25 82.5H18.75V76.5525L28.9012 66.4013C29.6046 65.6982 29.9998 64.7445 30 63.75V48.75C30 40.7935 33.1607 33.1629 38.7868 27.5368C44.4129 21.9107 52.0435 18.75 60 18.75C67.9565 18.75 75.5871 21.9107 81.2132 27.5368C86.8393 33.1629 90 40.7935 90 48.75V63.75C90.0002 64.7445 90.3954 65.6982 91.0987 66.4013L101.25 76.5525V82.5Z" fill="black" stroke-width="6"/>
</svg>
