<svg id="icon" width="100%" height="100%" viewBox="0 0 160 160" fill="none" xmlns="http://www.w3.org/2000/svg">
<path d="M15 26.25V86.25C15 88.2391 15.7902 90.1468 17.1967 91.5533C18.6032 92.9598 20.5109 93.75 22.5 93.75H97.5C99.4891 93.75 101.397 92.9598 102.803 91.5533C104.21 90.1468 105 88.2391 105 86.25V26.25H15ZM15 18.75H105C106.989 18.75 108.897 19.5402 110.303 20.9467C111.71 22.3532 112.5 24.2609 112.5 26.25V86.25C112.5 90.2282 110.92 94.0436 108.107 96.8566C105.294 99.6696 101.478 101.25 97.5 101.25H22.5C18.5218 101.25 14.7064 99.6696 11.8934 96.8566C9.08035 94.0436 7.5 90.2282 7.5 86.25V26.25C7.5 24.2609 8.29018 22.3532 9.6967 20.9467C11.1032 19.5402 13.0109 18.75 15 18.75Z" fill="black" stroke-width="6"/>
<path d="M105.938 26.25L76.935 59.4C74.8232 61.8142 72.2196 63.749 69.2988 65.0746C66.378 66.4002 63.2075 67.086 60 67.086C56.7925 67.086 53.622 66.4002 50.7012 65.0746C47.7804 63.749 45.1768 61.8142 43.065 59.4L14.0625 26.25H105.938ZM24.03 26.25L48.705 54.4575C50.1129 56.0674 51.8488 57.3576 53.7962 58.2416C55.7436 59.1256 57.8576 59.5829 59.9962 59.5829C62.1349 59.5829 64.2489 59.1256 66.1963 58.2416C68.1437 57.3576 69.8796 56.0674 71.2875 54.4575L95.97 26.25H24.03Z" fill="black" stroke-width="6"/>
</svg>
