<svg id="icon" width="100%" height="100%" viewBox="0 0 160 160" fill="none" xmlns="http://www.w3.org/2000/svg">
<path d="M82.5 30C74.9391 29.3226 67.5 33.75 60 33.75C52.5 33.75 45.0586 29.2968 37.5 30C22.5 31.4062 15 45 15 67.5C15 86.25 30 112.5 41.0625 112.5C52.125 112.5 53.2359 106.875 60 106.875C66.7641 106.875 67.8727 112.5 78.9375 112.5C90.0023 112.5 105 86.25 105 67.5C105 45 98.2031 31.4062 82.5 30Z" stroke="black" stroke-width="7.5" stroke-miterlimit="10"/>
<path d="M75.9188 19.486C70.9969 24.4078 65.2172 25.8141 62.1328 26.2336C61.8508 26.2743 61.5633 26.2501 61.292 26.163C61.0207 26.0759 60.7729 25.9281 60.5673 25.7308C60.3617 25.5336 60.2037 25.2921 60.1054 25.0247C60.0072 24.7573 59.9711 24.471 60 24.1875C60.5563 18.9154 62.9265 14.0002 66.7055 10.282C71.8617 5.1258 77.4867 3.97736 80.468 3.75471C80.7463 3.72931 81.0268 3.76645 81.2889 3.86341C81.551 3.96037 81.7881 4.1147 81.9829 4.3151C82.1777 4.5155 82.3252 4.75691 82.4147 5.02168C82.5041 5.28644 82.5333 5.56785 82.5 5.84533C81.9115 11.0055 79.5916 15.8139 75.9188 19.486Z" fill="black"/>
<path d="M50.625 82.5C53.7316 82.5 56.25 77.4632 56.25 71.25C56.25 65.0368 53.7316 60 50.625 60C47.5184 60 45 65.0368 45 71.25C45 77.4632 47.5184 82.5 50.625 82.5Z" fill="black"/>
<path d="M69.375 82.5C72.4816 82.5 75 77.4632 75 71.25C75 65.0368 72.4816 60 69.375 60C66.2684 60 63.75 65.0368 63.75 71.25C63.75 77.4632 66.2684 82.5 69.375 82.5Z" fill="black"/>
</svg>
