<svg id="icon" width="100%" height="100%" viewBox="0 0 160 160" fill="none" xmlns="http://www.w3.org/2000/svg">
<path d="M31.25 60C30.2554 60 29.3016 60.3951 28.5983 61.0984C27.8951 61.8016 27.5 62.7554 27.5 63.75C27.5 64.7446 27.8951 65.6984 28.5983 66.4016C29.3016 67.1049 30.2554 67.5 31.25 67.5H33.75C34.7446 67.5 35.6984 67.1049 36.4017 66.4016C37.1049 65.6984 37.5 64.7446 37.5 63.75C37.5 62.7554 37.1049 61.8016 36.4017 61.0984C35.6984 60.3951 34.7446 60 33.75 60H31.25ZM27.5 46.25C27.5 45.2554 27.8951 44.3016 28.5983 43.5984C29.3016 42.8951 30.2554 42.5 31.25 42.5H33.75C34.7446 42.5 35.6984 42.8951 36.4017 43.5984C37.1049 44.3016 37.5 45.2554 37.5 46.25C37.5 47.2446 37.1049 48.1984 36.4017 48.9016C35.6984 49.6049 34.7446 50 33.75 50H31.25C30.2554 50 29.3016 49.6049 28.5983 48.9016C27.8951 48.1984 27.5 47.2446 27.5 46.25ZM31.25 25C30.2554 25 29.3016 25.3951 28.5983 26.0983C27.8951 26.8016 27.5 27.7554 27.5 28.75C27.5 29.7446 27.8951 30.6984 28.5983 31.4017C29.3016 32.1049 30.2554 32.5 31.25 32.5H33.75C34.7446 32.5 35.6984 32.1049 36.4017 31.4017C37.1049 30.6984 37.5 29.7446 37.5 28.75C37.5 27.7554 37.1049 26.8016 36.4017 26.0983C35.6984 25.3951 34.7446 25 33.75 25H31.25ZM45 63.75C45 62.7554 45.3951 61.8016 46.0984 61.0984C46.8016 60.3951 47.7554 60 48.75 60H51.25C52.2446 60 53.1984 60.3951 53.9016 61.0984C54.6049 61.8016 55 62.7554 55 63.75C55 64.7446 54.6049 65.6984 53.9016 66.4016C53.1984 67.1049 52.2446 67.5 51.25 67.5H48.75C47.7554 67.5 46.8016 67.1049 46.0984 66.4016C45.3951 65.6984 45 64.7446 45 63.75ZM48.75 42.5C47.7554 42.5 46.8016 42.8951 46.0984 43.5984C45.3951 44.3016 45 45.2554 45 46.25C45 47.2446 45.3951 48.1984 46.0984 48.9016C46.8016 49.6049 47.7554 50 48.75 50H51.25C52.2446 50 53.1984 49.6049 53.9016 48.9016C54.6049 48.1984 55 47.2446 55 46.25C55 45.2554 54.6049 44.3016 53.9016 43.5984C53.1984 42.8951 52.2446 42.5 51.25 42.5H48.75ZM45 28.75C45 27.7554 45.3951 26.8016 46.0984 26.0983C46.8016 25.3951 47.7554 25 48.75 25H51.25C52.2446 25 53.1984 25.3951 53.9016 26.0983C54.6049 26.8016 55 27.7554 55 28.75C55 29.7446 54.6049 30.6984 53.9016 31.4017C53.1984 32.1049 52.2446 32.5 51.25 32.5H48.75C47.7554 32.5 46.8016 32.1049 46.0984 31.4017C45.3951 30.6984 45 29.7446 45 28.75ZM66.25 60C65.2554 60 64.3016 60.3951 63.5984 61.0984C62.8951 61.8016 62.5 62.7554 62.5 63.75C62.5 64.7446 62.8951 65.6984 63.5984 66.4016C64.3016 67.1049 65.2554 67.5 66.25 67.5H68.75C69.7446 67.5 70.6984 67.1049 71.4016 66.4016C72.1049 65.6984 72.5 64.7446 72.5 63.75C72.5 62.7554 72.1049 61.8016 71.4016 61.0984C70.6984 60.3951 69.7446 60 68.75 60H66.25ZM62.5 46.25C62.5 45.2554 62.8951 44.3016 63.5984 43.5984C64.3016 42.8951 65.2554 42.5 66.25 42.5H68.75C69.7446 42.5 70.6984 42.8951 71.4016 43.5984C72.1049 44.3016 72.5 45.2554 72.5 46.25C72.5 47.2446 72.1049 48.1984 71.4016 48.9016C70.6984 49.6049 69.7446 50 68.75 50H66.25C65.2554 50 64.3016 49.6049 63.5984 48.9016C62.8951 48.1984 62.5 47.2446 62.5 46.25ZM66.25 25C65.2554 25 64.3016 25.3951 63.5984 26.0983C62.8951 26.8016 62.5 27.7554 62.5 28.75C62.5 29.7446 62.8951 30.6984 63.5984 31.4017C64.3016 32.1049 65.2554 32.5 66.25 32.5H68.75C69.7446 32.5 70.6984 32.1049 71.4016 31.4017C72.1049 30.6984 72.5 29.7446 72.5 28.75C72.5 27.7554 72.1049 26.8016 71.4016 26.0983C70.6984 25.3951 69.7446 25 68.75 25H66.25Z" stroke-width="6" fill="black"/>
<path d="M10 100V15C10 12.3478 11.0536 9.8043 12.9289 7.92893C14.8043 6.05357 17.3478 5 20 5H80C82.6522 5 85.1957 6.05357 87.0711 7.92893C88.9464 9.8043 90 12.3478 90 15V100C90 100.865 89.89 101.7 89.685 102.5H100C100.663 102.5 101.299 102.237 101.768 101.768C102.237 101.299 102.5 100.663 102.5 100V60C102.5 59.6119 102.41 59.2291 102.236 58.882C102.063 58.5348 101.81 58.2329 101.5 58L99 56.125C98.2043 55.5283 97.6783 54.6399 97.5377 53.6553C97.397 52.6708 97.6533 51.6707 98.25 50.875C98.8467 50.0794 99.7351 49.5533 100.72 49.4127C101.704 49.272 102.704 49.5283 103.5 50.125L106 52C108.52 53.89 110 56.85 110 60V100C110 102.652 108.946 105.196 107.071 107.071C105.196 108.946 102.652 110 100 110H82.19C81.9109 110 81.6326 109.97 81.36 109.91C80.915 109.97 80.46 110 80 110H61.25C60.2554 110 59.3016 109.605 58.5984 108.902C57.8951 108.198 57.5 107.245 57.5 106.25V95H42.5V106.25C42.5 107.245 42.1049 108.198 41.4016 108.902C40.6984 109.605 39.7446 110 38.75 110H20C17.3478 110 14.8043 108.946 12.9289 107.071C11.0536 105.196 10 102.652 10 100ZM20 102.5H35V91.25C35 90.2554 35.3951 89.3016 36.0983 88.5983C36.8016 87.8951 37.7554 87.5 38.75 87.5H61.25C62.2446 87.5 63.1984 87.8951 63.9016 88.5983C64.6049 89.3016 65 90.2554 65 91.25V102.5H80C80.663 102.5 81.2989 102.237 81.7678 101.768C82.2366 101.299 82.5 100.663 82.5 100V15C82.5 14.337 82.2366 13.7011 81.7678 13.2322C81.2989 12.7634 80.663 12.5 80 12.5H20C19.337 12.5 18.7011 12.7634 18.2322 13.2322C17.7634 13.7011 17.5 14.337 17.5 15V100C17.5 100.663 17.7634 101.299 18.2322 101.768C18.7011 102.237 19.337 102.5 20 102.5Z" fill="black" stroke-width="6"/>
</svg>
