<svg id="icon" width="100%" height="100%" viewBox="0 0 160 160" fill="none" xmlns="http://www.w3.org/2000/svg">
<path d="M25.5574 80.9575H16.3524C16.0151 80.9582 15.6809 80.8922 15.3691 80.7634C15.0573 80.6346 14.774 80.4455 14.5355 80.207C14.2969 79.9684 14.1078 79.6851 13.979 79.3733C13.8502 79.0615 13.7843 78.7274 13.7849 78.39V19.3375C13.7849 17.9125 14.9299 16.77 16.3524 16.77H103.647C105.072 16.77 106.215 17.915 106.215 19.3375V78.39C106.215 79.815 105.07 80.9575 103.647 80.9575H65.6399" stroke-width="8" stroke-linecap="round" stroke-linejoin="round"/>
<path d="M45.9851 67.4826C54.493 67.4826 61.3901 60.5856 61.3901 52.0776C61.3901 43.5697 54.493 36.6726 45.9851 36.6726C37.4771 36.6726 30.5801 43.5697 30.5801 52.0776C30.5801 60.5856 37.4771 67.4826 45.9851 67.4826Z" stroke-width="8" stroke-linecap="round" stroke-linejoin="round"/>
<path d="M44.0574 16.77V36.7875M74.2649 16.77V80.9575M106.215 48.8625H61.0699M13.7849 48.8625H30.7499M74.4374 64.635H106.215M20.1599 103.23H71.1974C73.6874 60.3625 18.0824 58.5325 20.1599 103.23Z" stroke-width="8" stroke-linecap="round" stroke-linejoin="round"/>
</svg>
