<svg id="icon" width="100%" height="100%" viewBox="0 0 160 160" fill="none" xmlns="http://www.w3.org/2000/svg">
<path d="M101.25 7.5C98.0034 7.49861 94.8441 8.55099 92.247 10.499C89.6498 12.447 87.7551 15.1853 86.8475 18.3024C85.94 21.4195 86.0687 24.747 87.2144 27.7846C88.36 30.8223 90.4606 33.4061 93.2005 35.1476L83.4126 69.4055C83.1087 69.3861 82.8044 69.3759 82.4999 69.375C79.2733 69.3715 76.1325 70.4141 73.5484 72.3464L55.4655 57.2773C56.3216 54.7372 56.4814 52.0142 55.9284 49.3915C55.3753 46.7688 54.1296 44.3421 52.3208 42.364C50.512 40.386 48.2061 38.9287 45.6432 38.1438C43.0803 37.359 40.3539 37.2753 37.7476 37.9013C35.1413 38.5274 32.7504 39.8404 30.8236 41.7037C28.8968 43.567 27.5045 45.9126 26.7915 48.4965C26.0785 51.0803 26.0709 53.808 26.7695 56.3958C27.4681 58.9836 28.8473 61.3369 30.7638 63.2109L20.1484 84.4425C19.6836 84.3984 19.2169 84.3758 18.7499 84.375C15.1564 84.3704 11.6804 85.6544 8.9527 87.9939C6.22505 90.3333 4.42659 93.5733 3.88379 97.1255C3.34099 100.678 4.08982 104.307 5.99435 107.354C7.89888 110.402 10.8329 112.665 14.2638 113.734C17.6947 114.803 21.3951 114.606 24.6933 113.179C27.9914 111.753 30.6688 109.191 32.2394 105.959C33.81 102.726 34.1697 99.0383 33.2532 95.5637C32.3367 92.089 30.2048 89.0581 27.2444 87.0211L37.2756 66.9612C39.7124 67.6334 42.2797 67.6774 44.738 67.089C47.1963 66.5006 49.4656 65.2991 51.3339 63.5965L68.8417 78.1868C67.6528 80.8068 67.2425 83.7134 67.6596 86.5601C68.0768 89.4068 69.3039 92.0735 71.1945 94.2422C73.0851 96.4109 75.5596 97.9901 78.3228 98.7915C81.0861 99.593 84.0215 99.5828 86.7791 98.7622C89.5367 97.9417 92.0002 96.3454 93.8758 94.1636C95.7513 91.9819 96.9599 89.3068 97.3573 86.4573C97.7548 83.6077 97.3243 80.704 96.1173 78.0923C94.9103 75.4807 92.9776 73.2712 90.5498 71.7274L100.337 37.4695C100.639 37.4878 100.943 37.5 101.25 37.5C105.228 37.5 109.043 35.9196 111.857 33.1066C114.67 30.2936 116.25 26.4782 116.25 22.5C116.25 18.5218 114.67 14.7064 111.857 11.8934C109.043 9.08035 105.228 7.5 101.25 7.5ZM18.7499 106.875C17.2666 106.875 15.8165 106.435 14.5831 105.611C13.3498 104.787 12.3885 103.616 11.8208 102.245C11.2532 100.875 11.1046 99.3667 11.394 97.9118C11.6834 96.457 12.3977 95.1206 13.4466 94.0717C14.4955 93.0228 15.8319 92.3085 17.2867 92.0191C18.7416 91.7297 20.2496 91.8782 21.62 92.4459C22.9905 93.0136 24.1618 93.9749 24.9859 95.2082C25.8101 96.4416 26.2499 97.8916 26.2499 99.375C26.2477 101.363 25.4568 103.27 24.0508 104.676C22.6447 106.082 20.7384 106.873 18.7499 106.875ZM41.2499 60C39.7666 60 38.3165 59.5601 37.0831 58.736C35.8498 57.9119 34.8885 56.7406 34.3208 55.3701C33.7532 53.9997 33.6046 52.4917 33.894 51.0368C34.1834 49.582 34.8977 48.2456 35.9466 47.1967C36.9955 46.1478 38.3319 45.4335 39.7867 45.1441C41.2416 44.8547 42.7496 45.0032 44.12 45.5709C45.4905 46.1386 46.6618 47.0999 47.4859 48.3332C48.3101 49.5666 48.7499 51.0166 48.7499 52.5C48.7477 54.4884 47.9568 56.3948 46.5508 57.8008C45.1447 59.2069 43.2384 59.9978 41.2499 60ZM82.4999 91.875C81.0166 91.875 79.5665 91.4351 78.3331 90.611C77.0998 89.7869 76.1385 88.6156 75.5708 87.2451C75.0032 85.8747 74.8546 84.3667 75.144 82.9118C75.4334 81.457 76.1477 80.1206 77.1966 79.0717C78.2455 78.0228 79.5819 77.3085 81.0367 77.0191C82.4916 76.7297 83.9996 76.8782 85.37 77.4459C86.7405 78.0136 87.9118 78.9749 88.7359 80.2082C89.5601 81.4416 89.9999 82.8916 89.9999 84.375C89.9977 86.3634 89.2068 88.2698 87.8008 89.6758C86.3947 91.0819 84.4884 91.8728 82.4999 91.875ZM101.25 30C99.7666 30 98.3165 29.5601 97.0831 28.736C95.8498 27.9119 94.8885 26.7406 94.3208 25.3701C93.7532 23.9997 93.6046 22.4917 93.894 21.0368C94.1834 19.582 94.8977 18.2456 95.9466 17.1967C96.9955 16.1478 98.3319 15.4335 99.7867 15.1441C101.242 14.8547 102.75 15.0032 104.12 15.5709C105.49 16.1386 106.662 17.0999 107.486 18.3332C108.31 19.5666 108.75 21.0166 108.75 22.5C108.748 24.4884 107.957 26.3948 106.551 27.8008C105.145 29.2069 103.238 29.9978 101.25 30Z" fill="black" stroke-width="6"/>
</svg>
