<svg id="icon" width="100%" height="100%" viewBox="0 0 160 160" fill="none" xmlns="http://www.w3.org/2000/svg">
<path d="M100 56.3V20C100 17.3478 98.9464 14.8043 97.0711 12.9289C95.1957 11.0536 92.6522 10 90 10H30C27.3478 10 24.8043 11.0536 22.9289 12.9289C21.0536 14.8043 20 17.3478 20 20V100C20 105.55 24.45 110 30 110H55.55C61.85 116.2 70.45 120 80 120C99.35 120 115 104.35 115 85C115 73.1 109.05 62.65 100 56.3ZM90 20V51.45C86.85 50.55 83.5 50 80 50C74.65 50 69.55 51.25 65 53.4V20H90ZM30 20H40V60L52.5 48.75L60.5 55.95C55.7295 59.1469 51.8198 63.4697 49.1165 68.5363C46.4131 73.6029 44.9993 79.2573 45 85C45 90.4 46.25 95.45 48.4 100H30V20ZM80 110C66.2 110 55 98.8 55 85C55 71.2 66.2 60 80 60C93.8 60 105 71.2 105 85C105 98.8 93.8 110 80 110ZM82.5 86.25L96.8 94.7L93.05 100.8L75 90V65H82.5V86.25Z" fill="black" stroke-width="4"/>
</svg>
