<svg id="icon" width="100%" height="100%" viewBox="0 0 160 160" fill="none" xmlns="http://www.w3.org/2000/svg">
<path d="M45 105H75M45 105V80M45 105H18C17.2044 105 16.4413 104.684 15.8787 104.121C15.3161 103.559 15 102.796 15 102V83C15 82.2044 15.3161 81.4413 15.8787 80.8787C16.4413 80.3161 17.2044 80 18 80H45M75 105V45M75 105H102C102.796 105 103.559 104.684 104.121 104.121C104.684 103.559 105 102.796 105 102V18C105 17.2044 104.684 16.4413 104.121 15.8787C103.559 15.3161 102.796 15 102 15H78C77.2044 15 76.4413 15.3161 75.8787 15.8787C75.3161 16.4413 75 17.2044 75 18V45M45 80V48C45 47.2044 45.3161 46.4413 45.8787 45.8787C46.4413 45.3161 47.2044 45 48 45H75" stroke-width="7.5"/>
</svg>
