<svg id="icon" width="100%" height="100%" viewBox="0 0 160 160" fill="none" xmlns="http://www.w3.org/2000/svg">
<g clip-path="url(#clip0_249_892)">
<path d="M56.26 116.115C56.1648 109.226 53.3613 102.651 48.4558 97.8126C43.5504 92.9744 36.9374 90.2619 30.0475 90.2619C23.1575 90.2619 16.5446 92.9744 11.6391 97.8126C6.73365 102.651 3.93011 109.226 3.83496 116.115M93.7 26.2449V86.1599M30.05 83.0349C34.6846 83.0349 39.1295 81.1938 42.4067 77.9166C45.6839 74.6394 47.525 70.1945 47.525 65.5599C47.525 60.9252 45.6839 56.4804 42.4067 53.2032C39.1295 49.926 34.6846 48.0849 30.05 48.0849C25.4153 48.0849 20.9705 49.926 17.6933 53.2032C14.4161 56.4804 12.575 60.9252 12.575 65.5599C12.575 70.1945 14.4161 74.6394 17.6933 77.9166C20.9705 81.1938 25.4153 83.0349 30.05 83.0349ZM108.675 77.0099V18.7549C108.711 16.765 108.351 14.7878 107.614 12.9388C106.878 11.0898 105.781 9.40607 104.386 7.98596C102.992 6.56586 101.328 5.43785 99.4932 4.66783C97.658 3.89781 95.6877 3.50122 93.6975 3.50122C91.7072 3.50122 89.737 3.89781 87.9017 4.66783C86.0665 5.43785 84.4031 6.56586 83.0087 7.98596C81.6143 9.40607 80.5169 11.0898 79.7805 12.9388C79.0441 14.7878 78.6836 16.765 78.72 18.7549V77.0099C75.329 80.0431 72.939 84.0345 71.8661 88.4558C70.7932 92.8771 71.088 97.52 72.7115 101.77C74.335 106.02 77.2107 109.677 80.9581 112.257C84.7054 114.837 89.1478 116.219 93.6975 116.219C98.2471 116.219 102.689 114.837 106.437 112.257C110.184 109.677 113.06 106.02 114.683 101.77C116.307 97.52 116.602 92.8771 115.529 88.4558C114.456 84.0345 112.066 80.0431 108.675 77.0099Z" stroke-width="7.5" stroke-linecap="round" stroke-linejoin="round"/>
<path d="M10.07 38.7249C8.92174 37.5779 8.01085 36.2159 7.38937 34.7166C6.76788 33.2174 6.448 31.6104 6.448 29.9874C6.448 28.3645 6.76788 26.7574 7.38937 25.2582C8.01085 23.7589 8.92174 22.3969 10.07 21.2499C12.3865 18.9321 13.6878 15.7893 13.6878 12.5124C13.6878 9.23547 12.3865 6.09266 10.07 3.7749M28.675 38.7249C27.5267 37.5779 26.6158 36.2159 25.9944 34.7166C25.3729 33.2174 25.053 31.6104 25.053 29.9874C25.053 28.3645 25.3729 26.7574 25.9944 25.2582C26.6158 23.7589 27.5267 22.3969 28.675 21.2499C30.9915 18.9321 32.2928 15.7893 32.2928 12.5124C32.2928 9.23547 30.9915 6.09266 28.675 3.7749M48.65 38.7249C47.5017 37.5779 46.5909 36.2159 45.9694 34.7166C45.3479 33.2174 45.028 31.6104 45.028 29.9874C45.028 28.3645 45.3479 26.7574 45.9694 25.2582C46.5909 23.7589 47.5017 22.3969 48.65 21.2499C50.9653 18.9315 52.2657 15.7889 52.2657 12.5124C52.2657 9.23588 50.9653 6.09331 48.65 3.7749M93.7 101.135C94.6995 101.161 95.6941 100.986 96.6251 100.622C97.5562 100.257 98.4047 99.7094 99.1208 99.0116C99.8369 98.3138 100.406 97.4796 100.795 96.5583C101.183 95.6371 101.383 94.6473 101.383 93.6474C101.383 92.6475 101.183 91.6578 100.795 90.7365C100.406 89.8152 99.8369 88.981 99.1208 88.2832C98.4047 87.5854 97.5562 87.038 96.6251 86.6733C95.6941 86.3086 94.6995 86.1341 93.7 86.1599C91.7477 86.2104 89.8923 87.0214 88.5293 88.42C87.1663 89.8187 86.4035 91.6944 86.4035 93.6474C86.4035 95.6004 87.1663 97.4761 88.5293 98.8748C89.8923 100.273 91.7477 101.084 93.7 101.135Z" stroke-width="7.5" stroke-linecap="round" stroke-linejoin="round"/>
</g>
<defs>
<clipPath id="clip0_249_892">
<rect width="120" height="120" stroke-width="20"/>
</clipPath>
</defs>
</svg>
