<svg id="icon" width="100%" height="100%" viewBox="0 0 140 140" fill="none" xmlns="http://www.w3.org/2000/svg">
<path d="M33.75 63.75H15C14.0054 63.75 13.0516 63.3549 12.3483 62.6517C11.6451 61.9484 11.25 60.9946 11.25 60C11.25 59.0054 11.6451 58.0516 12.3483 57.3484C13.0516 56.6451 14.0054 56.25 15 56.25H31.7438L38.1281 46.6688C38.4704 46.1544 38.9345 45.7326 39.4792 45.4408C40.0238 45.149 40.6321 44.9963 41.25 44.9963C41.8679 44.9963 42.4762 45.149 43.0208 45.4408C43.5655 45.7326 44.0296 46.1544 44.3719 46.6688L56.25 64.4813L60.6281 57.9188C60.9709 57.4051 61.4351 56.9839 61.9798 56.6928C62.5244 56.4017 63.1325 56.2496 63.75 56.25H75C75.9946 56.25 76.9484 56.6451 77.6517 57.3484C78.3549 58.0516 78.75 59.0054 78.75 60C78.75 60.9946 78.3549 61.9484 77.6517 62.6517C76.9484 63.3549 75.9946 63.75 75 63.75H65.7562L59.3719 73.3313C59.0296 73.8456 58.5655 74.2675 58.0208 74.5592C57.4762 74.851 56.8679 75.0037 56.25 75.0037C55.6321 75.0037 55.0238 74.851 54.4792 74.5592C53.9345 74.2675 53.4704 73.8456 53.1281 73.3313L41.25 55.5094L36.8719 62.0719C36.5302 62.5873 36.0664 63.0103 35.5217 63.303C34.977 63.5958 34.3684 63.7494 33.75 63.75ZM83.4375 15C73.7578 15 65.2828 19.1625 60 26.1984C54.7172 19.1625 46.2422 15 36.5625 15C28.8573 15.0087 21.4702 18.0734 16.0218 23.5218C10.5734 28.9702 7.50868 36.3573 7.5 44.0625V45.1172C7.53108 46.1118 7.95598 47.0532 8.68121 47.7345C9.40645 48.4158 10.3726 48.7811 11.3672 48.75C12.3617 48.7189 13.3032 48.294 13.9845 47.5688C14.6658 46.8436 15.0311 45.8774 15 44.8828V44.0625C15.0074 38.3461 17.2816 32.8659 21.3237 28.8237C25.3659 24.7816 30.8461 22.5074 36.5625 22.5C45.6797 22.5 53.3344 27.3563 56.5312 35.1563C56.8138 35.844 57.2944 36.4323 57.912 36.8463C58.5297 37.2603 59.2564 37.4814 60 37.4814C60.7436 37.4814 61.4703 37.2603 62.088 36.8463C62.7056 36.4323 63.1862 35.844 63.4687 35.1563C66.6656 27.3422 74.3203 22.5 83.4375 22.5C89.1539 22.5074 94.6341 24.7816 98.6763 28.8237C102.718 32.8659 104.993 38.3461 105 44.0625C105 69.1922 68.55 91.9453 60 96.9375C54.9234 93.9797 40.0172 84.75 28.7437 72.4641C28.0712 71.7306 27.1348 71.2943 26.1405 71.2512C25.1463 71.2082 24.1757 71.5618 23.4422 72.2344C22.7087 72.907 22.2724 73.8434 22.2294 74.8376C22.1863 75.8318 22.5399 76.8025 23.2125 77.5359C37.8234 93.4734 57.3984 104.105 58.2234 104.55C58.7695 104.844 59.3799 104.998 60 104.998C60.6201 104.998 61.2305 104.844 61.7766 104.55C63.8484 103.434 112.5 76.875 112.5 44.0625C112.491 36.3573 109.427 28.9702 103.978 23.5218C98.5298 18.0734 91.1427 15.0087 83.4375 15Z" fill="black" stroke-width="6"/>
</svg>
