<svg id="icon" width="100%" height="100%" viewBox="0 0 120 120" xmlns="http://www.w3.org/2000/svg">
<path d="M76.3478 43.3043C80.0217 43.3043 83 40.3261 83 36.6522C83 32.9783 80.0217 30 76.3478 30C72.6739 30 69.6956 32.9783 69.6956 36.6522C69.6956 40.3261 72.6739 43.3043 76.3478 43.3043Z" stroke-linecap="round" stroke-linejoin="round"/>
<path d="M38.6522 65.1614C42.3261 65.1614 45.3043 62.1831 45.3043 58.5092C45.3043 54.8353 42.3261 51.8571 38.6522 51.8571C34.9783 51.8571 32 54.8353 32 58.5092C32 62.1831 34.9783 65.1614 38.6522 65.1614Z" stroke-linecap="round" stroke-linejoin="round"/>
<path d="M76.3478 85.4346C80.0217 85.4346 83 82.4563 83 78.7824C83 75.1085 80.0217 72.1302 76.3478 72.1302C72.6739 72.1302 69.6956 75.1085 69.6956 78.7824C69.6956 82.4563 72.6739 85.4346 76.3478 85.4346Z" stroke-linecap="round" stroke-linejoin="round"/>
<path d="M43.1762 64.5571L69.7849 78.0401" stroke-linecap="round" stroke-linejoin="round"/>
<path d="M69.7849 40.8448L43.1762 54.3278" stroke-linecap="round" stroke-linejoin="round"/>
</svg>
