<svg id="icon" width="100%" height="100%" viewBox="0 0 120 120" xmlns="http://www.w3.org/2000/svg">
<path d="M57.3422 66.0623V65.8194C57.3592 64.2342 57.5169 62.9728 57.8152 62.0353C58.122 61.0978 58.5567 60.3393 59.1192 59.7598C59.6817 59.1802 60.3592 58.6518 61.1519 58.1745C61.6632 57.8507 62.1234 57.4885 62.5325 57.0879C62.9416 56.6873 63.2655 56.2271 63.5041 55.7072C63.7428 55.1873 63.8621 54.612 63.8621 53.9814C63.8621 53.2228 63.6831 52.5666 63.3251 52.0126C62.9672 51.4586 62.4899 51.0325 61.8933 50.7342C61.3053 50.4274 60.649 50.274 59.9246 50.274C59.2683 50.274 58.6419 50.4103 58.0453 50.6831C57.4487 50.9558 56.9544 51.3819 56.5624 51.9615C56.1703 52.5325 55.9445 53.2697 55.8848 54.1731H51.9984C52.0581 52.639 52.4459 51.3436 53.1618 50.2868C53.8777 49.2214 54.8237 48.416 55.9999 47.8706C57.1845 47.3251 58.4928 47.0524 59.9246 47.0524C61.4928 47.0524 62.8649 47.3464 64.0411 47.9345C65.2172 48.514 66.1291 49.328 66.7769 50.3763C67.4331 51.416 67.7612 52.6305 67.7612 54.0197C67.7612 54.9743 67.6121 55.8351 67.3138 56.6021C67.0155 57.3606 66.5894 58.0382 66.0354 58.6348C65.4899 59.2314 64.8337 59.7598 64.0666 60.22C63.3422 60.6717 62.7541 61.1405 62.3024 61.6263C61.8592 62.112 61.5354 62.6873 61.3308 63.3521C61.1263 64.0169 61.0155 64.8393 60.9984 65.8194V66.0623H57.3422ZM59.2726 73.8351C58.5737 73.8351 57.9729 73.5879 57.47 73.0936C56.9672 72.5907 56.7158 71.9856 56.7158 71.2782C56.7158 70.5794 56.9672 69.9828 57.47 69.4885C57.9729 68.9856 58.5737 68.7342 59.2726 68.7342C59.9629 68.7342 60.5595 68.9856 61.0624 69.4885C61.5737 69.9828 61.8294 70.5794 61.8294 71.2782C61.8294 71.747 61.7101 72.1774 61.4715 72.5694C61.2413 72.953 60.9345 73.2598 60.551 73.4899C60.1675 73.72 59.7413 73.8351 59.2726 73.8351Z"/>
<path d="M78.9631 41.2212C79.6709 40.5134 79.6745 39.3609 78.9232 38.6995C75.2375 35.4552 70.7674 33.2109 65.9417 32.1989C60.5235 31.0626 54.8915 31.529 49.734 33.5411C44.5764 35.5532 40.1165 39.0239 36.8991 43.5292C34.0337 47.5417 32.2643 52.2201 31.7493 57.1032C31.6444 58.0987 32.4275 58.9443 33.4276 58.9858V58.9858C34.4278 59.0273 35.2654 58.2488 35.3796 57.2543C35.8594 53.0751 37.3929 49.0752 39.8491 45.6359C42.6573 41.7036 46.5499 38.6744 51.0514 36.9182C55.553 35.162 60.4686 34.755 65.1977 35.7467C69.3341 36.6142 73.1712 38.5189 76.3543 41.269C77.1118 41.9234 78.2553 41.9291 78.9631 41.2212V41.2212Z"/>
<path d="M85.5922 50.5922L83.8657 36.262L72.3187 44.9223L85.5922 50.5922Z"/>
<path d="M40.167 77.8464C39.4196 78.5123 39.3497 79.6627 40.0618 80.3662C43.7581 84.0182 48.392 86.5987 53.4682 87.8117C59.1333 89.1655 65.0772 88.751 70.4996 86.624C75.922 84.497 80.5625 80.7596 83.7963 75.9151C86.6939 71.5743 88.3374 66.5314 88.5649 61.3403C88.6087 60.3402 87.7753 59.5442 86.7745 59.564V59.564C85.7737 59.5838 84.9853 60.4122 84.9322 61.4118C84.6959 65.8614 83.2675 70.1781 80.7813 73.9026C77.9588 78.1309 73.9086 81.3929 69.1759 83.2493C64.4432 85.1058 59.2553 85.4676 54.3107 84.286C49.9553 83.2452 45.9729 81.051 42.7743 77.9488C42.0557 77.2519 40.9144 77.1804 40.167 77.8464V77.8464Z"/>
<path d="M34.0879 68.1096L34.9873 82.5154L47.0133 74.5336L34.0879 68.1096Z"/>
</svg>
