<svg id="icon" width="100%" height="100%" viewBox="0 0 120 120" xmlns="http://www.w3.org/2000/svg">
<path d="M93 48.3089C93 46.791 92.3046 45.3351 91.0669 44.2618C89.8292 43.1884 88.1504 42.5854 86.4 42.5854H56.7L51.6469 36.0122M93 48.3089V79.7886C93 81.3066 92.3046 82.7624 91.0669 83.8358C89.8292 84.9092 88.1504 85.5122 86.4 85.5122H33.6C31.8496 85.5122 30.1708 84.9092 28.9331 83.8358C27.6954 82.7624 27 81.3066 27 79.7886V39.7236C27 38.2056 27.6954 36.7498 28.9331 35.6764C30.1708 34.603 31.8496 34 33.6 34H50.1L51.6469 36.0122M93 48.3089V38.8293C92.1951 35.6098 89.7805 36.0122 88.1707 36.0122H51.6469" stroke-linecap="round" stroke-linejoin="round"/>
<path d="M60.5234 55.7317V72.8756" stroke-linecap="round" stroke-linejoin="round"/>
<path d="M51.9512 64.3036H69.0951" stroke-linecap="round" stroke-linejoin="round"/>
</svg>
