<svg id="icon" width="100%" height="100%" viewBox="0 0 120 120" xmlns="http://www.w3.org/2000/svg">
<path d="M63.3051 32L66.8406 35.5355M82.7506 51.4454L79.215 47.9099M66.8406 35.5355L79.215 47.9099M66.8406 35.5355L52.6985 49.6777M79.215 47.9099L76.3866 50.7383M52.6985 49.6777L32.546 69.8302C30.7782 72.0694 28.3033 77.6084 32.546 81.851C36.7886 86.0937 42.5633 83.8545 44.9203 82.2046L76.3866 50.7383M52.6985 49.6777L76.3866 50.7383"/>
<path d="M80.4297 68.1202C80.7832 64.9382 83.2581 62.699 84.6723 61.0491C85.3794 61.7562 88.1327 64.5 88.5005 68.4996C88.7327 71.0254 87.1356 75.0938 84.3187 74.8377C80.4297 74.4842 80.3219 69.0898 80.4297 68.1202Z"/>
</svg>
