<svg id="icon" width="100%" height="100%" viewBox="0 0 120 120" xmlns="http://www.w3.org/2000/svg">
<path d="M71.5 81.5C68.4469 82.6879 63.1084 83.2727 59.5 83.2727C38.8182 83.2727 27 59.6364 27 59.6364C27 59.6364 38.8182 36 59.5 36C80.1818 36 92 59.6364 92 59.6364C92 59.6364 92.1867 59.8382 91.5 61" stroke-linecap="round" stroke-linejoin="round"/>
<path d="M59.5005 68.4997C64.3957 68.4997 68.3641 64.5313 68.3641 59.636C68.3641 54.7408 64.3957 50.7724 59.5005 50.7724C54.6052 50.7724 50.6368 54.7408 50.6368 59.636C50.6368 64.5313 54.6052 68.4997 59.5005 68.4997Z" stroke-linecap="round" stroke-linejoin="round"/>
<path d="M83.995 63L89.655 68.66C90.7743 69.7786 91.5368 71.2041 91.8459 72.7561C92.155 74.308 91.9969 75.9168 91.3915 77.379C90.7862 78.8411 89.7608 80.0908 88.4451 80.9701C87.1294 81.8494 85.5825 82.3187 84 82.3187C82.4175 82.3187 80.8706 81.8494 79.5549 80.9701C78.2392 80.0908 77.2138 78.8411 76.6085 77.379C76.0031 75.9168 75.845 74.308 76.1541 72.7561C76.4632 71.2041 77.2257 69.7786 78.345 68.66L83.995 63Z" stroke-linecap="round" stroke-linejoin="round"/>
</svg>
