<svg id="icon" width="100%" height="100%" viewBox="0 0 120 120" fill="none" xmlns="http://www.w3.org/2000/svg">
<path d="M60 70.5H45.5C41.6544 70.5 37.9662 72.0277 35.247 74.747C32.5277 77.4662 31 81.1544 31 85V92.25H60H74.5H81.75H89V88.625" stroke-linecap="round" stroke-linejoin="round"/>
<path d="M60 56C68.0081 56 74.5 49.5081 74.5 41.5C74.5 33.4919 68.0081 27 60 27C51.9919 27 45.5 33.4919 45.5 41.5C45.5 49.5081 51.9919 56 60 56Z" stroke-linecap="round" stroke-linejoin="round"/>
<path d="M78.6667 77.3333C83.4531 77.3333 87.3333 73.4531 87.3333 68.6667C87.3333 63.8802 83.4531 60 78.6667 60C73.8802 60 70 63.8802 70 68.6667C70 73.4531 73.8802 77.3333 78.6667 77.3333Z" stroke-linecap="round" stroke-linejoin="round"/>
<path d="M91.0002 81L85.0002 75" stroke-linecap="round" stroke-linejoin="round"/>
</svg>
