<svg id="icon" width="100%" height="100%" viewBox="0 0 120 120" fill="none" xmlns="http://www.w3.org/2000/svg">
<path d="M26 51V26H53M26 67.5V94H53M67.5 94H94V67.5M94 51V26H67.5" stroke-linecap="round"/>
<path d="M76 78.125V74C76 71.812 75.1308 69.7135 73.5836 68.1664C72.0365 66.6192 69.938 65.75 67.75 65.75H51.25C49.062 65.75 46.9635 66.6192 45.4164 68.1664C43.8692 69.7135 43 71.812 43 74V78.125" stroke-linecap="round" stroke-linejoin="round"/>
<path d="M59.5 57.5C64.0563 57.5 67.75 53.8063 67.75 49.25C67.75 44.6937 64.0563 41 59.5 41C54.9437 41 51.25 44.6937 51.25 49.25C51.25 53.8063 54.9437 57.5 59.5 57.5Z" stroke-linecap="round" stroke-linejoin="round"/>
</svg>
