<svg id="icon" width="100%" height="100%" viewBox="0 0 120 120" fill="none" xmlns="http://www.w3.org/2000/svg">
<path d="M85 88.25V82C85 78.6848 83.683 75.5054 81.3388 73.1612C78.9946 70.817 75.8152 69.5 72.5 69.5H47.5C44.1848 69.5 41.0054 70.817 38.6612 73.1612C36.317 75.5054 35 78.6848 35 82V88.25" stroke-linecap="round" stroke-linejoin="round"/>
<path d="M60 57C66.9036 57 72.5 51.4036 72.5 44.5C72.5 37.5964 66.9036 32 60 32C53.0964 32 47.5 37.5964 47.5 44.5C47.5 51.4036 53.0964 57 60 57Z" stroke-linecap="round" stroke-linejoin="round"/>
<path d="M66.75 66.25H76.5H86.25C88.8359 66.25 91.3158 67.2772 93.1443 69.1057C94.9728 70.9342 96 73.4141 96 76V80.875H85" stroke-linecap="round" stroke-linejoin="round"/>
<path d="M76.5 56.5C81.8848 56.5 86.25 52.1348 86.25 46.75C86.25 41.3652 81.8848 37 76.5 37" stroke-linecap="round" stroke-linejoin="round"/>
<path d="M53.25 66.25H43.5H33.75C31.1641 66.25 28.6842 67.2772 26.8557 69.1057C25.0272 70.9342 24 73.4141 24 76V80.875H35" stroke-linecap="round" stroke-linejoin="round"/>
<path d="M43.5 56.5C38.1152 56.5 33.75 52.1348 33.75 46.75C33.75 41.3652 38.1152 37 43.5 37" stroke-linecap="round" stroke-linejoin="round"/>
</svg>
