<svg id="icon" width="100%" height="100%" viewBox="0 0 120 120" fill="none" xmlns="http://www.w3.org/2000/svg">
<path d="M78.6667 54C78.6667 49.0493 76.7 44.3014 73.1993 40.8007C69.6987 37.3 64.9507 35.3334 60 35.3334C55.0493 35.3334 50.3014 37.3 46.8007 40.8007C43.3 44.3014 41.3333 49.0493 41.3333 54C41.3333 75.7778 32 82 32 82H88C88 82 78.6667 75.7778 78.6667 54Z" stroke-linecap="round" stroke-linejoin="round"/>
<path d="M66.9996 88.6666C66.1527 90.1265 64.9371 91.3384 63.4746 92.1807C62.0121 93.0231 60.354 93.4665 58.6662 93.4665C56.9785 93.4665 55.3203 93.0231 53.8578 92.1807C52.3953 91.3384 51.1798 90.1265 50.3329 88.6666" stroke-linecap="round" stroke-linejoin="round"/>
<path d="M65.3332 31.5043C64.8081 30.1343 64.1409 28.7841 63.4785 28.2066C62.5718 27.4161 61.213 27 60.1665 27C59.1201 27 57.6289 27.4161 56.7221 28.2066C55.3973 29.6496 55.5249 30.1343 54.9999 31.5043" stroke-linecap="round" stroke-linejoin="round"/>
</svg>
