<svg id="icon" width="100%" height="100%" viewBox="0 0 120 120" fill="none" xmlns="http://www.w3.org/2000/svg">
<path d="M67.6459 32.4177L68.1743 32.8031L68.8284 32.8019L78.9113 32.7827L82.0088 42.378L82.2097 43.0004L82.7396 43.3839L90.9081 49.2949L87.7741 58.8783L87.5708 59.5L87.7741 60.1217L90.9081 69.7051L82.7396 75.6161L82.2097 75.9996L82.0088 76.622L78.9113 86.2173L68.8284 86.1981L68.1743 86.1969L67.6459 86.5823L59.5 92.5244L51.3541 86.5823L50.8257 86.1969L50.1716 86.1981L40.0887 86.2173L36.9912 76.622L36.7903 75.9996L36.2604 75.6161L28.0919 69.7051L31.2259 60.1217L31.4292 59.5L31.2259 58.8783L28.0919 49.2949L36.2604 43.3839L36.7903 43.0004L36.9912 42.378L40.0887 32.7827L50.1716 32.8019L50.8257 32.8031L51.3541 32.4177L59.5 26.4756L67.6459 32.4177Z"/>
<path d="M62.7216 42.0909L62.1591 66.7386H56.6705L56.125 42.0909H62.7216ZM59.4148 77.375C58.3807 77.375 57.4943 77.0114 56.7557 76.2841C56.0284 75.5568 55.6648 74.6705 55.6648 73.625C55.6648 72.6023 56.0284 71.7273 56.7557 71C57.4943 70.2727 58.3807 69.9091 59.4148 69.9091C60.4261 69.9091 61.3011 70.2727 62.0398 71C62.7898 71.7273 63.1648 72.6023 63.1648 73.625C63.1648 74.3182 62.9886 74.9489 62.6364 75.517C62.2955 76.0852 61.8409 76.5398 61.2727 76.8807C60.7159 77.2102 60.0966 77.375 59.4148 77.375Z" fill="black"/>
</svg>
