<svg id="icon" width="100%" height="100%" viewBox="0 0 120 120" xmlns="http://www.w3.org/2000/svg">
<rect x="29" y="30" width="62" height="60.9612" rx="4"/>
<path d="M53.3999 44.2496H79.7999" stroke-linecap="round"/>
<path d="M53.3999 59.5433H79.7999" stroke-linecap="round"/>
<path d="M53.3999 75.7929H79.7999" stroke-linecap="round"/>
<path d="M44.3993 48.6469L43.8813 47.4429H40.1013L39.5833 48.6469H37.5533L41.6833 39.2389H42.3133L46.4293 48.6469H44.3993ZM43.2233 45.8889L41.9913 42.7669L40.7593 45.8889H43.2233Z"/>
<path d="M45.5893 61.2246C45.5893 62.8206 44.3293 63.9406 42.5513 63.9406H38.4353V54.7006H41.7113C43.4193 54.7006 44.6373 55.7646 44.6373 57.2766C44.6373 57.9486 44.4133 58.5086 43.9513 58.9426C44.9733 59.3206 45.5893 60.1046 45.5893 61.2246ZM41.5573 56.3246H40.2553V58.4386H41.5573C42.3273 58.4386 42.7613 58.0326 42.7613 57.3746C42.7613 56.7166 42.3273 56.3246 41.5573 56.3246ZM43.7273 61.1546C43.7273 60.4406 43.2373 59.9926 42.4113 59.9926H40.2553V62.3166H42.4113C43.2373 62.3166 43.7273 61.8826 43.7273 61.1546Z"/>
<path d="M37.9033 75.5701C37.8613 72.9241 40.1433 70.7261 42.8313 70.7821C44.5813 70.7821 46.0793 71.6361 46.9053 73.0781L45.4773 74.0861C44.8193 73.0501 43.9373 72.5321 42.8313 72.5321C41.1093 72.5321 39.8493 73.8201 39.8493 75.5841C39.8493 77.3481 41.1093 78.6081 42.8313 78.6081C43.9373 78.6081 44.8193 78.0901 45.4773 77.0541L46.9053 78.0621C46.1073 79.5041 44.5953 80.3581 42.8173 80.3581C40.1153 80.4141 37.8473 78.2161 37.9033 75.5701Z"/>
</svg>
