<svg id="icon" width="100%" height="100%" viewBox="0 0 120 120" xmlns="http://www.w3.org/2000/svg">
<path d="M30.8315 42.6197H48.0329C51.0743 42.6197 53.9912 43.8279 56.1418 45.9785C58.2924 48.1291 59.5005 51.0459 59.5005 54.0873V94.2239C59.5005 91.9429 58.5944 89.7552 56.9815 88.1423C55.3685 86.5293 53.1809 85.6232 50.8998 85.6232H30.8315V42.6197Z" stroke-linecap="round" stroke-linejoin="round"/>
<path d="M88.169 42.6197H70.9676C67.9262 42.6197 65.0094 43.8279 62.8588 45.9785C60.7082 48.1291 59.5 51.0459 59.5 54.0873V94.2239C59.5 91.9429 60.4061 89.7552 62.0191 88.1423C63.632 86.5293 65.8197 85.6232 68.1007 85.6232H88.169V42.6197Z" stroke-linecap="round" stroke-linejoin="round"/>
<path d="M30 33.4789L59.9155 26L89 33.4789"/>
</svg>
