<svg id="icon" width="100%" height="100%" viewBox="0 0 120 120" xmlns="http://www.w3.org/2000/svg">
<path d="M58.3162 55.9387C57.6687 55.7229 57 56.2049 57 56.8874V61.5C57 62.0523 57.4477 62.5 58 62.5H60.5C61.0523 62.5 61.5 62.0523 61.5 61.5V57.7208C61.5 57.2903 61.2246 56.9082 60.8162 56.7721L58.3162 55.9387Z" fill="black"/>
<path d="M60 84H39.5C38.9477 84 38.5 83.5523 38.5 83V36C38.5 35.4477 38.9477 35 39.5 35H62.5M62.5 35L75 47.5M62.5 35V46.5C62.5 47.0523 62.9477 47.5 63.5 47.5H75M75 47.5V60M61.5 57.7208V61.5C61.5 62.0523 61.0523 62.5 60.5 62.5H58C57.4477 62.5 57 62.0523 57 61.5V56.8874C57 56.2049 57.6687 55.7229 58.3162 55.9387L60.8162 56.7721C61.2246 56.9082 61.5 57.2903 61.5 57.7208Z"/>
<path d="M67.2958 58.9496C66.424 56.5184 64.791 54.4332 62.6395 53.0041C60.488 51.5751 57.9328 50.8783 55.3537 51.0174C52.7746 51.1565 50.3092 52.1241 48.3239 53.7763C46.3385 55.4285 44.9393 57.6772 44.3341 60.1881C43.7289 62.6991 43.95 65.3383 44.9645 67.7136C45.9791 70.0889 47.7329 72.0734 49.9655 73.3723C52.198 74.6712 54.79 75.215 57.3563 74.9231C59.9226 74.6312 62.3263 73.519 64.21 71.7519L61.3159 68.6667C60.0962 69.8109 58.5399 70.531 56.8782 70.7201C55.2165 70.9091 53.5382 70.5569 52.0927 69.7159C50.6472 68.8749 49.5116 67.59 48.8547 66.052C48.1977 64.514 48.0546 62.8052 48.4465 61.1794C48.8383 59.5535 49.7443 58.0975 51.0298 57.0278C52.3152 55.958 53.9116 55.3315 55.5815 55.2414C57.2515 55.1513 58.9059 55.6025 60.299 56.5278C61.6921 57.4531 62.7494 58.8032 63.3139 60.3774L67.2958 58.9496Z"/>
<path d="M69 82.3451V66.5C69 65.9477 69.4477 65.5 70 65.5H86C86.5523 65.5 87 65.9477 87 66.5V85.5C87 87 86 90 82 90M82 90C78.1007 90 71.0338 90 68.2101 90C68.0702 90 67.9337 89.9725 67.8092 89.9086C66.5019 89.238 64.9088 87.519 64.5667 84.9977C64.4924 84.4504 64.9477 84 65.5 84H77.6421C78.1357 84 78.5528 84.3599 78.6387 84.8459C79.0379 87.1047 79.8843 90.3526 82 90Z"/>
</svg>
