<svg id="icon" width="100%" height="100%" viewBox="0 0 120 120" xmlns="http://www.w3.org/2000/svg">
<path d="M60 82V72.5832C60 70.5411 60.3071 68.422 61.8157 67.0454C63.3944 65.6049 66.0786 64.0124 70.3082 63.0432C70.4319 63.0149 70.8166 62.6833 70.9064 62.5936V62.5936C71.4536 62.0463 76.3247 57.2278 77.0574 56.9786C78.0505 56.6409 79.2088 56.5696 80.5 57M75 67L76.9304 65.0696C79.8935 62.1065 81.7939 58.2471 82.3358 54.092L83 49C83 47 83.6 43 86 43C89 43 89.7737 46.5103 90 49C90.5 54.5 90 59 88.5 64C87.9046 65.5479 86.0673 68.661 82.7328 71.6256C79.8967 74.147 76.6445 76.6799 75.823 80.3847C75.5845 81.4602 75.5 82.5611 75.5 84" stroke-linecap="round"/>
<path d="M60.1875 82V72.5832C60.1875 70.5411 59.8804 68.422 58.3718 67.0454C56.7931 65.6049 54.1089 64.0124 49.8793 63.0432C49.7556 63.0149 49.3709 62.6833 49.2811 62.5936V62.5936C48.7339 62.0463 43.8628 57.2278 43.1301 56.9786C42.137 56.6409 40.9787 56.5696 39.6875 57M45.1875 67L43.2571 65.0696C40.294 62.1065 38.3936 58.2471 37.8517 54.092L37.1875 49C37.1875 47 36.5875 43 34.1875 43C31.1875 43 30.4138 46.5103 30.1875 49C29.6875 54.5 30.1875 59 31.6875 64C32.2829 65.5479 34.1202 68.661 37.4547 71.6256C40.2908 74.147 43.543 76.6799 44.3645 80.3847C44.603 81.4602 44.6875 82.5611 44.6875 84" stroke-linecap="round"/>
<path d="M71.0723 37.945C70.4614 37.3284 69.7361 36.8392 68.9378 36.5055C68.1396 36.1718 67.2839 36 66.4199 36C65.5558 36 64.7001 36.1718 63.9019 36.5055C63.1036 36.8392 62.3783 37.3284 61.7674 37.945L60.4997 39.224L59.2319 37.945C57.998 36.7 56.3245 36.0006 54.5795 36.0006C52.8345 36.0006 51.161 36.7 49.9271 37.945C48.6932 39.1899 48 40.8784 48 42.6389C48 44.3995 48.6932 46.088 49.9271 47.3329L51.1948 48.612L60.4997 58L69.8045 48.612L71.0723 47.3329C71.6834 46.7166 72.1682 45.9849 72.499 45.1794C72.8298 44.374 73 43.5108 73 42.6389C73 41.7671 72.8298 40.9039 72.499 40.0985C72.1682 39.293 71.6834 38.5613 71.0723 37.945Z" stroke-linecap="round" stroke-linejoin="round"/>
</svg>
