<svg id="icon" width="100%" height="100%" viewBox="0 0 120 120" xmlns="http://www.w3.org/2000/svg">
<rect x="29.2729" y="39" width="62.1157" height="36.9917" rx="4"/>
<path d="M97.6586 76.6696H22.8749C21.4816 76.6696 20.6498 78.0345 21.6985 78.952C24.4068 81.3214 29.4723 82.9383 33.5537 83.0757C38.843 83.2536 80.8264 83.4315 88.0992 83.0757C93.1973 82.8262 96.8876 80.4629 98.7146 78.5922C99.5734 77.7128 98.8878 76.6696 97.6586 76.6696Z"/>
<path d="M39.1736 67.0827L50.0203 54.3642C50.7847 53.4679 52.1545 53.4231 52.9758 54.2677L60.1745 61.6697C60.9808 62.4988 62.3201 62.4732 63.0942 61.614L72.7045 50.9466C73.452 50.117 74.7339 50.0601 75.5519 50.8202L80.2937 55.2267" stroke-linecap="round"/>
<ellipse cx="51.7351" cy="52.8679" rx="2.64463" ry="2.64463"/>
<ellipse cx="61.6526" cy="62.785" rx="2.64463" ry="2.64463"/>
<ellipse cx="74.2143" cy="49.5621" rx="2.64463" ry="2.64463"/>
</svg>
