<svg id="icon" width="100%" height="100%" viewBox="0 0 250 250" fill="none" xmlns="http://www.w3.org/2000/svg">
<path d="M145.208 16.4167V32.8333H170.893C175.574 32.8333 179.375 36.486 179.375 40.9842V172.432C179.373 174.594 178.478 176.665 176.888 178.194C175.298 179.722 173.142 180.581 170.893 180.583H34.1069C31.8573 180.583 29.6999 179.725 28.1093 178.196C26.5186 176.667 25.625 174.594 25.625 172.432V40.9842C25.625 36.486 29.426 32.8333 34.1069 32.8333H59.7917V16.4167H145.208ZM59.7917 49.25H42.7083V164.167H162.292V49.25H145.208V65.6667H59.7917V49.25ZM76.875 131.333V147.75H59.7917V131.333H76.875ZM76.875 106.708V123.125H59.7917V106.708H76.875ZM76.875 82.0833V98.5H59.7917V82.0833H76.875ZM128.125 32.8333H76.875V49.25H128.125V32.8333Z" fill="black" stroke-width="6"/>
</svg>
