<svg id="icon" width="100%" height="100%" viewBox="0 0 160 160" fill="none" xmlns="http://www.w3.org/2000/svg">
<path d="M40 50C39.337 50 38.7011 50.2634 38.2322 50.7322C37.7634 51.2011 37.5 51.837 37.5 52.5C37.5 53.163 37.7634 53.7989 38.2322 54.2678C38.7011 54.7366 39.337 55 40 55H57.5C58.163 55 58.7989 54.7366 59.2678 54.2678C59.7366 53.7989 60 53.163 60 52.5C60 51.837 59.7366 51.2011 59.2678 50.7322C58.7989 50.2634 58.163 50 57.5 50H40ZM37.5 40C37.5 39.337 37.7634 38.7011 38.2322 38.2322C38.7011 37.7634 39.337 37.5 40 37.5H78.75C79.413 37.5 80.0489 37.7634 80.5178 38.2322C80.9866 38.7011 81.25 39.337 81.25 40C81.25 40.663 80.9866 41.2989 80.5178 41.7678C80.0489 42.2366 79.413 42.5 78.75 42.5H40C39.337 42.5 38.7011 42.2366 38.2322 41.7678C37.7634 41.2989 37.5 40.663 37.5 40Z" fill="black"/>
<path fill-rule="evenodd" clip-rule="evenodd" d="M37.5 70C37.5 69.337 37.7634 68.7011 38.2322 68.2322C38.7011 67.7634 39.337 67.5 40 67.5H50C50.663 67.5 51.2989 67.7634 51.7678 68.2322C52.2366 68.7011 52.5 69.337 52.5 70V80C52.5 80.663 52.2366 81.2989 51.7678 81.7678C51.2989 82.2366 50.663 82.5 50 82.5H40C39.337 82.5 38.7011 82.2366 38.2322 81.7678C37.7634 81.2989 37.5 80.663 37.5 80V70ZM42.5 77.5V72.5H47.5V77.5H42.5ZM70 77.5C71.9891 77.5 73.8968 76.7098 75.3033 75.3033C76.7098 73.8968 77.5 71.9891 77.5 70C77.5 68.0109 76.7098 66.1032 75.3033 64.6967C73.8968 63.2902 71.9891 62.5 70 62.5C68.0109 62.5 66.1032 63.2902 64.6967 64.6967C63.2902 66.1032 62.5 68.0109 62.5 70C62.5 71.9891 63.2902 73.8968 64.6967 75.3033C66.1032 76.7098 68.0109 77.5 70 77.5ZM70 72.5C70.3374 72.5154 70.6744 72.4624 70.9906 72.344C71.3069 72.2256 71.5959 72.0443 71.8402 71.8112C72.0846 71.578 72.2791 71.2978 72.4121 70.9874C72.5452 70.677 72.6139 70.3428 72.6142 70.0051C72.6146 69.6674 72.5465 69.3331 72.4141 69.0224C72.2817 68.7118 72.0877 68.4311 71.8439 68.1975C71.6 67.9639 71.3114 67.782 70.9953 67.663C70.6793 67.544 70.3424 67.4902 70.005 67.505C69.3619 67.5331 68.7545 67.8082 68.3091 68.273C67.8638 68.7378 67.6149 69.3564 67.6143 70.0001C67.6136 70.6438 67.8613 71.2629 68.3057 71.7286C68.7501 72.1943 69.357 72.4706 70 72.5ZM55 87.955C55 82.665 64.9925 80 70 80C75.0075 80 85 82.665 85 87.955V97.5H55V87.955ZM60.1375 88.055C60.0897 88.1005 60.0438 88.1481 60 88.1975V92.5H80V88.2C79.9563 88.1489 79.9105 88.0997 79.8625 88.0525C79.4525 87.6525 78.6625 87.1225 77.4225 86.595C74.9225 85.5325 71.8375 85 70 85C68.1625 85 65.0775 85.5325 62.5775 86.595C61.3375 87.12 60.5475 87.655 60.1375 88.055Z" fill="black"/>
<path fill-rule="evenodd" clip-rule="evenodd" d="M42.5 17.5C42.5 15.5109 43.2902 13.6032 44.6967 12.1967C46.1032 10.7902 48.0109 10 50 10H70C71.9891 10 73.8968 10.7902 75.3033 12.1967C76.7098 13.6032 77.5 15.5109 77.5 17.5H87.5C89.4891 17.5 91.3968 18.2902 92.8033 19.6967C94.2098 21.1032 95 23.0109 95 25V102.5C95 104.489 94.2098 106.397 92.8033 107.803C91.3968 109.21 89.4891 110 87.5 110H32.5C30.5109 110 28.6032 109.21 27.1967 107.803C25.7902 106.397 25 104.489 25 102.5V25C25 23.0109 25.7902 21.1032 27.1967 19.6967C28.6032 18.2902 30.5109 17.5 32.5 17.5H42.5ZM70 30C71.9891 30 73.8968 29.2098 75.3033 27.8033C76.7098 26.3968 77.5 24.4891 77.5 22.5H87.5C88.163 22.5 88.7989 22.7634 89.2678 23.2322C89.7366 23.7011 90 24.337 90 25V102.5C90 103.163 89.7366 103.799 89.2678 104.268C88.7989 104.737 88.163 105 87.5 105H32.5C31.837 105 31.2011 104.737 30.7322 104.268C30.2634 103.799 30 103.163 30 102.5V25C30 24.337 30.2634 23.7011 30.7322 23.2322C31.2011 22.7634 31.837 22.5 32.5 22.5H42.5C42.5 24.4891 43.2902 26.3968 44.6967 27.8033C46.1032 29.2098 48.0109 30 50 30H70ZM50 15C49.337 15 48.7011 15.2634 48.2322 15.7322C47.7634 16.2011 47.5 16.837 47.5 17.5V22.5C47.5 23.163 47.7634 23.7989 48.2322 24.2678C48.7011 24.7366 49.337 25 50 25H70C70.663 25 71.2989 24.7366 71.7678 24.2678C72.2366 23.7989 72.5 23.163 72.5 22.5V17.5C72.5 16.837 72.2366 16.2011 71.7678 15.7322C71.2989 15.2634 70.663 15 70 15H50Z" fill="black"/>
</svg>
