<svg id="icon" width="100%" height="100%" viewBox="0 0 160 160" fill="none" xmlns="http://www.w3.org/2000/svg">
<path d="M105.938 60H99.375C98.8594 60 98.4375 60.4219 98.4375 60.9375V98.4375H21.5625V21.5625H59.0625C59.5781 21.5625 60 21.1406 60 20.625V14.0625C60 13.5469 59.5781 13.125 59.0625 13.125H16.875C14.8008 13.125 13.125 14.8008 13.125 16.875V103.125C13.125 105.199 14.8008 106.875 16.875 106.875H103.125C105.199 106.875 106.875 105.199 106.875 103.125V60.9375C106.875 60.4219 106.453 60 105.938 60Z" fill="black" stroke-width="6"/>
<path d="M41.707 62.6836L41.4844 76.6172C41.4727 77.6602 42.3164 78.5156 43.3594 78.5156H43.4062L57.2344 78.1758C57.4687 78.1641 57.7031 78.0703 57.8672 77.9062L106.605 29.2734C106.969 28.9102 106.969 28.3125 106.605 27.9492L92.0391 13.3945C91.8516 13.207 91.6172 13.125 91.3711 13.125C91.125 13.125 90.8906 13.2188 90.7031 13.3945L41.9766 62.0273C41.8073 62.2044 41.711 62.4387 41.707 62.6836ZM49.1484 65.4492L91.3711 23.3203L96.668 28.6055L54.4219 70.7578L49.0664 70.8867L49.1484 65.4492Z" fill="black" stroke-width="6"/>
</svg>
