<svg id="icon" idth="100%" height="100%" viewBox="0 0 300 300" fill="none" xmlns="http://www.w3.org/2000/svg">
<g clip-path="url(#clip0_223_33)">
<path fill-rule="evenodd" clip-rule="evenodd" d="M58.2417 -0.483887C83.8828 -0.483887 109.524 -0.483887 135.165 -0.483887C138.384 0.713247 142.047 1.68114 146.154 2.41978C146.886 3.38767 148.352 4.03294 150.549 4.35556C152.729 4.18949 154.194 4.51212 154.945 5.32345C172.401 15.2324 181.925 26.5244 183.516 39.1996C184.221 42.4889 183.488 45.7151 181.319 48.8785C172.087 46.3349 162.929 46.3349 153.846 48.8785C152.776 44.0729 150.212 39.5562 146.154 35.328C144.125 32.0969 139.729 29.6772 132.967 28.0689C109.524 27.4236 86.0806 27.4236 62.6373 28.0689C51.8219 31.9488 45.9612 36.9496 45.0549 43.0712C44.6885 83.0786 45.0549 123.085 46.1538 163.089C47.0533 167.987 51.8153 171.859 60.4395 174.704C61.4793 176.065 63.6771 176.711 67.0329 176.64C89.1256 176.915 111.104 176.592 132.967 175.672C136.302 175.661 138.866 175.017 140.659 173.736C144.852 171.108 147.783 168.205 149.45 165.025C150.183 155.669 150.916 146.313 151.648 136.956C162.132 128.045 172.022 119.012 181.319 109.856C181.319 109.533 181.319 109.21 181.319 108.888C183.509 125.818 184.242 142.918 183.516 160.186C183.394 168.577 179.731 176.643 172.527 184.383C165.01 192.051 152.556 197.696 135.165 201.321C62.0936 210.504 20.7017 198.727 10.9889 165.993C9.89006 123.73 9.52375 81.4653 9.89004 39.1996C11.1942 28.7701 17.7876 19.0912 29.6703 10.1629C35.5311 8.22712 40.6593 5.96872 45.0549 3.38767C49.4505 2.09716 53.8461 0.806633 58.2417 -0.483887Z" fill="#030303" stroke-width="6"/>
<path opacity="0.01" fill-rule="evenodd" clip-rule="evenodd" d="M146.154 2.41968C149.084 2.41968 150.549 3.06494 150.549 4.35546C148.352 4.03283 146.886 3.38757 146.154 2.41968Z"/>
<path opacity="0.01" fill-rule="evenodd" clip-rule="evenodd" d="M45.055 3.38757C40.6594 5.96862 35.5313 8.22702 29.6704 10.1628C31.8682 6.61387 36.9963 4.35546 45.055 3.38757Z" />
<path opacity="0.01" fill-rule="evenodd" clip-rule="evenodd" d="M29.6703 10.1629C17.7877 19.0912 11.1943 28.7701 9.89009 39.1996C7.33009 82.2689 6.9638 125.501 8.79119 168.897C9.52378 172.446 10.2564 175.994 10.989 179.544C15.7047 182.085 18.6351 184.989 19.7802 188.255C26.9501 195.429 38.3055 200.752 53.8461 204.225C80.8264 205.758 107.933 206.08 135.165 205.193C155.155 201.875 168.342 195.744 174.725 186.803C173.072 186.153 172.339 185.347 172.527 184.383C179.731 176.643 183.394 168.577 183.516 160.186C185.707 143.255 186.44 126.156 185.714 108.888C187.903 108.804 189.734 109.128 191.209 109.856C192.674 130.181 192.674 150.507 191.209 170.833C186.919 182.049 178.127 192.051 164.835 200.837C156.658 204.758 146.768 207.5 135.165 209.064C55.5176 217.771 11.1952 204.382 2.19778 168.897C0.732576 125.987 0.732576 83.0772 2.19778 40.1675C4.16631 33.1536 7.82929 26.3783 13.1868 19.8418C17.4072 17.0941 21.0702 14.1905 24.1758 11.1308C25.6501 10.4025 27.4815 10.0798 29.6703 10.1629Z"/>
<path opacity="0.188" fill-rule="evenodd" clip-rule="evenodd" d="M146.154 35.328C142.834 34.0348 139.172 32.9056 135.165 31.9404C110.989 31.2951 86.8132 31.2951 62.6373 31.9404C55.3727 35.3152 49.5119 39.0254 45.0549 43.0711C45.9613 36.9496 51.822 31.9488 62.6373 28.0688C86.0806 27.4235 109.524 27.4235 132.967 28.0688C139.729 29.6772 144.125 32.0969 146.154 35.328Z"/>
<path opacity="0.012" fill-rule="evenodd" clip-rule="evenodd" d="M154.945 5.32336C174.959 12.9356 185.948 22.4532 187.912 33.8761C189.377 35.4893 190.842 37.1024 192.308 38.7156C191.367 41.4193 191.367 44.3229 192.308 47.4266C192.159 50.2819 190.694 52.8628 187.912 55.1697C174.011 54.465 160.092 54.6263 146.154 55.6536C144.913 50.0569 142.349 44.5722 138.461 39.1995C134.683 37.2085 130.287 35.5954 125.275 34.3601C107.943 34.3469 89.9944 34.5082 71.4285 34.844C62.0692 36.4322 56.5747 39.4971 54.945 44.039C53.4797 85.3356 53.4797 126.632 54.945 167.929C54.7694 170.341 56.6008 172.599 60.4395 174.704C51.8153 171.859 47.0533 167.987 46.1538 163.089C45.0549 123.085 44.6885 83.0785 45.0549 43.0711C49.5118 39.0254 55.3727 35.3152 62.6373 31.9403C86.8131 31.295 110.989 31.295 135.165 31.9403C139.172 32.9056 142.834 34.0348 146.154 35.328C147.03 40.6747 149.96 45.6755 154.945 50.3302C164.469 50.9755 173.993 50.9755 183.516 50.3302C186.42 46.5225 186.42 42.8123 183.516 39.1995C181.925 26.5243 172.401 15.2323 154.945 5.32336Z"/>
<path opacity="0.178" fill-rule="evenodd" clip-rule="evenodd" d="M146.154 35.328C150.212 39.5561 152.776 44.0729 153.846 48.8785C162.929 46.3348 172.087 46.3348 181.319 48.8785C183.488 45.7151 184.221 42.4888 183.516 39.1996C186.42 42.8123 186.42 46.5225 183.516 50.3303C173.993 50.9756 164.469 50.9756 154.945 50.3303C149.96 45.6755 147.03 40.6747 146.154 35.328Z"/>
<path fill-rule="evenodd" clip-rule="evenodd" d="M183.516 71.1399C185.795 73.3056 186.161 75.5641 184.615 77.9152C178.495 82.9816 173 88.1437 168.132 93.4014C153.829 104.708 140.642 116.323 128.571 128.245C124.674 131.415 119.545 134.158 113.187 136.473C106.294 137.48 100.799 136.673 96.7033 134.053C82.6294 124.98 76.4024 114.978 78.022 104.048C78.4571 100.572 80.6549 97.3446 84.6154 94.3693C87.5457 93.0788 90.4762 93.0788 93.4066 94.3693C98.3466 99.0442 103.841 103.561 109.89 107.92C124.626 96.231 138.179 84.2938 150.549 72.1078C160.857 66.1308 171.846 65.8081 183.516 71.1399Z" fill="#060606" stroke-width="6"/>
<path opacity="0.01" fill-rule="evenodd" clip-rule="evenodd" d="M150.549 72.1078C138.179 84.2937 124.626 96.231 109.89 107.92C103.841 103.561 98.3465 99.0442 93.4065 94.3693C101.424 96.6494 106.918 99.8756 109.89 104.048C120.117 95.0827 130.374 86.049 140.659 76.9472C142.623 74.7531 145.92 73.1399 150.549 72.1078Z"/>
<path opacity="0.01" fill-rule="evenodd" clip-rule="evenodd" d="M183.517 71.1399C187.716 71.2118 190.28 72.1797 191.209 74.0436C192.54 76.7046 193.639 79.1243 194.506 81.3027C182.046 92.8845 169.592 103.531 157.143 113.243C148.847 120.734 140.422 128.637 131.868 136.956C120.309 145.556 106.389 146.847 90.1099 140.828C84.9818 135.989 79.8535 131.149 74.7253 126.31C66.5027 117.107 66.5027 108.074 74.7253 99.2087C76.0702 96.6781 79.3669 95.0649 84.6154 94.3693C80.655 97.3445 78.4572 100.571 78.022 104.048C75.4858 110.327 75.1196 116.78 76.9231 123.406C84.7493 127.718 90.2438 132.557 93.4066 137.924C98.5181 138.554 103.646 139.2 108.791 139.86C120.669 137.73 127.262 133.858 128.571 128.245C132.032 127.822 134.596 126.855 136.264 125.342C146.004 116.438 156.26 107.727 167.033 99.2087C168.122 97.2991 168.488 95.3636 168.132 93.4014C173 88.1437 178.495 82.9815 184.615 77.9151C186.161 75.564 185.795 73.3055 183.517 71.1399Z"/>
<path opacity="0.555" fill-rule="evenodd" clip-rule="evenodd" d="M185.714 108.888C186.44 126.156 185.707 143.255 183.516 160.186C184.242 142.918 183.509 125.818 181.319 108.888C183.621 106.533 185.087 106.533 185.714 108.888Z"/>
<path opacity="0.141" fill-rule="evenodd" clip-rule="evenodd" d="M168.132 93.4014C168.488 95.3636 168.122 97.2991 167.033 99.2087C156.26 107.727 146.004 116.438 136.264 125.342C134.596 126.855 132.032 127.822 128.572 128.245C140.642 116.323 153.829 104.708 168.132 93.4014Z"/>
<path opacity="0.053" fill-rule="evenodd" clip-rule="evenodd" d="M78.0221 104.048C76.4025 114.978 82.6295 124.98 96.7034 134.053C100.799 136.673 106.294 137.48 113.187 136.473C119.546 134.158 124.674 131.415 128.572 128.245C127.263 133.858 120.669 137.73 108.791 139.86C103.646 139.2 98.5181 138.554 93.4067 137.924C90.2438 132.557 84.7493 127.718 76.9232 123.406C75.1196 116.78 75.4858 110.327 78.0221 104.048Z"/>
<path opacity="0.01" fill-rule="evenodd" clip-rule="evenodd" d="M181.319 109.856C172.022 119.012 162.132 128.045 151.648 136.956C150.916 146.313 150.183 155.669 149.451 165.025C147.783 168.205 144.852 171.108 140.659 173.736C138.866 175.017 136.302 175.661 132.967 175.672C139.07 171.966 142.367 167.772 142.857 163.089C143.26 155.432 144.359 147.849 146.154 140.344C145.421 140.022 144.689 139.698 143.956 139.376C154.813 129.649 165.436 119.809 175.824 109.856C177.516 108.793 179.347 108.793 181.319 109.856Z"/>
<path opacity="0.125" fill-rule="evenodd" clip-rule="evenodd" d="M60.4395 174.704C63.7953 174.633 65.9931 175.279 67.0329 176.64C63.677 176.711 61.4792 176.065 60.4395 174.704Z"/>
<path opacity="0.166" fill-rule="evenodd" clip-rule="evenodd" d="M9.89001 39.1996C9.52372 81.4653 9.89003 123.73 10.9889 165.993C20.7017 198.727 62.0935 210.504 135.165 201.321C152.556 197.696 165.01 192.051 172.527 184.383C172.339 185.347 173.072 186.153 174.725 186.803C168.342 195.744 155.155 201.875 135.165 205.193C107.932 206.08 80.8263 205.758 53.8461 204.225C38.3054 200.752 26.95 195.429 19.7801 188.255C18.6351 184.989 15.7047 182.085 10.9889 179.544C10.2563 175.994 9.5237 172.446 8.79111 168.897C6.96372 125.501 7.33001 82.2688 9.89001 39.1996Z"/>
</g>
<defs>
<clipPath id="clip0_223_33">
<rect width="200" height="211" fill="white"/>
</clipPath>
</defs>
</svg>
