
<svg id="icon" xmlns="http://www.w3.org/2000/svg"
 width="100%" height="100%" viewBox="0 0 400 400"
 preserveAspectRatio="xMidYMid meet">

<g transform="translate(0.000000,258.000000) scale(0.100000,-0.100000)"
stroke-width="6">
<path d="M2576 2205 c-88 -31 -96 -53 -96 -279 l0 -186 195 -146 c163 -123
197 -153 216 -190 19 -40 23 -44 40 -32 10 7 141 106 291 220 577 439 541 407
541 483 0 107 -114 172 -206 117 -19 -11 -204 -148 -411 -306 -207 -157 -378
-286 -381 -286 -3 0 -5 111 -5 247 0 225 -2 250 -20 287 -31 65 -97 94 -164
71z"/>
<path d="M1650 2181 c-68 -36 -74 -55 -80 -229 l-5 -157 142 -145 143 -145 -7
143 c-4 91 -3 142 4 142 13 0 638 -469 638 -479 0 -10 -626 -480 -639 -481 -5
0 -6 58 -3 140 4 77 3 140 -1 140 -4 -1 -67 -60 -140 -133 l-134 -133 1 -158
c1 -117 6 -166 16 -187 34 -64 131 -97 194 -66 18 9 260 187 539 396 532 398
542 407 542 481 0 76 -7 83 -549 488 -283 211 -525 388 -538 393 -38 14 -85
11 -123 -10z"/>
<path d="M965 2141 c-16 -10 -195 -185 -397 -387 -319 -321 -367 -374 -373
-406 -17 -91 -22 -84 363 -472 196 -197 377 -371 401 -387 49 -31 97 -37 143
-16 40 18 757 730 779 774 23 45 24 84 3 126 -19 38 -727 752 -766 773 -39 20
-117 18 -153 -5z m348 -569 l257 -258 -260 -259 c-143 -143 -264 -261 -268
-262 -4 -1 -124 114 -267 257 l-260 260 260 260 c143 143 264 260 270 260 6 0
126 -116 268 -258z"/>
<path d="M2897 1228 c-18 -44 -71 -90 -260 -228 l-156 -115 -1 -190 c0 -173 2
-193 20 -223 56 -92 197 -85 241 11 17 38 19 68 19 290 0 136 2 247 5 247 2 0
183 -135 401 -301 218 -166 410 -305 427 -310 65 -19 146 29 166 99 11 38 -1
97 -26 124 -15 17 -774 599 -810 621 -8 5 -17 -3 -26 -25z"/>
</g>
</svg>
