<svg id="icon" width="100%" height="100%" viewBox="0 0 160 160" fill="none" xmlns="http://www.w3.org/2000/svg">
<path d="M99 113L85.75 100H32.5C24.8333 100 18.3333 97.3333 13 92C7.66667 86.6667 5 80.1667 5 72.5C5 66.1 6.98333 60.4 10.95 55.4C14.9167 50.3667 20.0167 47.15 26.25 45.75C26.5167 45.0833 26.7667 44.4333 27 43.8C27.3333 43.1667 27.5833 42.4833 27.75 41.75L7 21L14 14L106 106M32.5 90H75.75L35.5 49.75C35.3333 50.6833 35.2167 51.6 35.15 52.5C35.05 53.2667 35 54.1 35 55H32.5C27.6667 55 23.55 56.7167 20.15 60.15C16.7167 63.55 15 67.6667 15 72.5C15 77.3333 16.7167 81.5 20.15 85C23.55 88.3333 27.6667 90 32.5 90ZM108 93.75L100.75 86.75C102.183 85.5833 103.25 84.2333 103.95 82.7C104.65 81.1667 105 79.4333 105 77.5C105 74 103.783 71.05 101.35 68.65C98.95 66.2167 96 65 92.5 65H85V55C85 48.1 82.5667 42.2 77.7 37.3C72.8333 32.4333 66.9333 30 60 30C57.7667 30 55.6 30.2667 53.5 30.8C51.4 31.3667 49.4 32.2333 47.5 33.4L40.25 26.15C43.1833 24.15 46.2833 22.6167 49.55 21.55C52.85 20.5167 56.3333 20 60 20C69.7667 20 78.0333 23.4 84.8 30.2C91.6 36.9667 95 45.2333 95 55C100.767 55.6667 105.533 58.1667 109.3 62.5C113.1 66.7667 115 71.7667 115 77.5C115 80.8333 114.383 83.85 113.15 86.55C111.883 89.35 110.167 91.75 108 93.75Z" fill="black"/>
</svg>
