<svg id="icon" width="100%" height="100%" viewBox="0 0 160 160" fill="none" xmlns="http://www.w3.org/2000/svg">
<path d="M105.048 91.9938C112.201 85.6188 116.251 77.1216 116.251 68.3037C116.251 58.9324 111.864 50.1682 103.898 43.624C96.1448 37.257 85.8825 33.75 75 33.75C64.1175 33.75 53.8552 37.257 46.1032 43.6245C38.137 50.1682 33.75 58.9324 33.75 68.3037C33.75 77.6749 38.137 86.4391 46.1032 92.9834C53.8552 99.3509 64.1175 102.858 75 102.858C76.4501 102.858 77.9091 102.794 79.3559 102.666L81.8276 104.809C90.3428 112.188 101.233 116.25 112.5 116.25H116.25V108.268L115.152 107.17C110.819 102.824 107.386 97.6674 105.048 91.9938ZM86.7396 99.1406L81.78 94.842L80.1263 95.0447C78.4254 95.2527 76.7135 95.357 75 95.3571C56.3906 95.3571 41.25 83.2209 41.25 68.3037C41.25 53.3864 56.3906 41.25 75 41.25C93.6094 41.25 108.75 53.3862 108.75 68.3037C108.75 75.7357 105.042 82.6741 98.3095 87.8407L96.1498 89.498L97.1463 92.3187C99.1886 98.0795 102.19 103.454 106.025 108.213C98.8841 107.021 92.2107 103.882 86.7396 99.1406Z" fill="black" stroke-width="6"/>
<path d="M14.1059 74.4084C17.6162 69.965 20.3723 64.9748 22.264 59.6374L23.253 56.8308L21.0952 55.1747C14.7464 50.303 11.25 43.7644 11.25 36.7634C11.25 22.6952 25.549 11.25 43.125 11.25C56.055 11.25 67.211 17.4445 72.2055 26.3203C73.133 26.2753 74.0644 26.25 75 26.25C76.8792 26.25 78.7413 26.3412 80.5861 26.5235C78.656 21.5231 75.304 16.9584 70.6955 13.1733C63.2981 7.09664 53.5078 3.75 43.125 3.75C32.7422 3.75 22.9519 7.09664 15.5541 13.1733C7.94203 19.4262 3.75 27.8039 3.75 36.7634C3.75 45.154 7.5825 53.2388 14.3555 59.3203C12.1452 64.6394 8.91552 69.4747 4.84852 73.5537L3.75 74.652V82.5H7.5C14.4345 82.4991 21.2736 80.8843 27.476 77.7832C26.7959 75.2054 26.3974 72.5614 26.2875 69.8977C22.5229 72.104 18.3995 73.6309 14.1059 74.4084Z" fill="black" stroke-width="6"/>
</svg>
