<svg id="icon" width="100%" height="100%" viewBox="0 0 160 160" fill="none" xmlns="http://www.w3.org/2000/svg">
<g clip-path="url(#clip0_204_75)">
<path d="M101.333 58.6667C95.3334 52.3333 87.3334 48 79 46.3333C75.3334 45.3333 71.6667 44.6667 68 44.3333C77.3334 33.3333 75.6667 16.6667 64.6667 7.33335C53.6667 -1.99999 37 -0.33332 27.6667 10.6667C18.3334 21.6667 20 38.3333 31 47.6667C33 49.3333 35 50.6667 37 51.3333V58.6667L31.6667 53.6667C27 49 19.3334 49 14.3334 53.6667C9.66669 58.3333 9.33336 65.6667 14 70.3333L29.3334 88.3333C30 93 31.6667 97.3333 34 101.333C35.6667 104.333 38 107.333 40.3334 109.667V116C40.3334 118 41.6667 119.333 43.6667 119.333H89C90.6667 119.333 92.3334 117.667 92.3334 116V107.333C98.6667 99.6667 102 90 102 80.3333V61C102.333 59.6667 102 59 101.333 58.6667ZM28 27.3333C28 16.3333 37 7.66668 48 8.00001C59 8.00001 67.6667 17 67.3334 28C67.3334 34 64.6667 39.3333 60 43V26.3333C59.8298 23.4446 58.561 20.7304 56.4538 18.7471C54.3465 16.7638 51.5605 15.6617 48.6667 15.6667C42.6667 15.3333 37.3334 20.3333 37.3334 26.3333V43.6667C31.6667 40.3333 28.3334 34 28 27.3333ZM95.6667 80C96 88.6667 93 97 87.3334 103.667C86.6667 104.333 86 105 86 106V113H47.3334V108.333C47.3334 107.333 46.6667 106.333 46 105.667C43.6667 103.667 41.6667 101.333 40 98.3333C38 95 36.6667 91 36 87C36 86.3333 35.6667 85.6667 35.3334 85L19.3334 66C18.3334 65 17.6667 63.6667 17.6667 62C17.6667 60.6667 18.3334 59 19.3334 58C21.6667 56 25 56 27.3334 58L37 67.6667V77.6667L43.3334 74.3333V26.3333C43.6667 24 45.6667 22 48.3334 22.3333C50.6667 22.3333 53 24 53 26.3333V64.6667L59.6667 66V50.6667C60 50.3333 60.3334 50.3333 60.6667 50C63 50 65.3334 50.3333 67.6667 50.6667V67.6667L73 68.6667V51.3333L77 52.3333C78.6667 52.6667 80.3334 53.3333 82 54V70.6667L87.3334 71.6667V56.3333C90.3334 57.6667 93 59.6667 95.3334 62L95.6667 80Z" fill="black"/>
</g>
<defs>
<clipPath id="clip0_204_75">
<rect width="120" height="120" fill="white"/>
</clipPath>
</defs>
</svg>
