<svg id="icon" width="100%" height="100%" viewBox="0 0 160 160" fill="none" xmlns="http://www.w3.org/2000/svg">
<path d="M30 52.5H52.5V120H30V52.5ZM37.5 112.5H45V60H37.5V112.5ZM60 67.5H82.5V120H60V67.5ZM67.5 112.5H75V75H67.5V112.5ZM0 82.5H22.5V120H0V82.5ZM7.5 112.5H15V90H7.5V112.5ZM90 37.5H112.5V120H90V37.5ZM97.5 112.5H105V45H97.5V112.5ZM81.3867 36.3867C82.1289 37.9883 82.5 39.6094 82.5 41.25C82.5 42.8125 82.207 44.2773 81.6211 45.6445C81.0352 47.0117 80.2344 48.2031 79.2188 49.2188C78.2031 50.2344 77.0117 51.0352 75.6445 51.6211C74.2773 52.207 72.8125 52.5 71.25 52.5C69.6875 52.5 68.2227 52.207 66.8555 51.6211C65.4883 51.0352 64.2969 50.2344 63.2812 49.2188C62.2656 48.2031 61.4648 47.0117 60.8789 45.6445C60.293 44.2773 60 42.8125 60 41.25V40.5469C60 40.3125 60.0195 40.0781 60.0586 39.8438L49.043 34.3359C48.0273 35.3516 46.8359 36.1328 45.4688 36.6797C44.1016 37.2266 42.6953 37.5 41.25 37.5C39.6094 37.5 37.9883 37.1289 36.3867 36.3867L21.3867 51.3867C22.1289 52.9883 22.5 54.6094 22.5 56.25C22.5 57.8125 22.207 59.2773 21.6211 60.6445C21.0352 62.0117 20.2344 63.2031 19.2188 64.2188C18.2031 65.2344 17.0117 66.0352 15.6445 66.6211C14.2773 67.207 12.8125 67.5 11.25 67.5C9.6875 67.5 8.22266 67.207 6.85547 66.6211C5.48828 66.0352 4.29688 65.2344 3.28125 64.2188C2.26562 63.2031 1.46484 62.0117 0.878906 60.6445C0.292969 59.2773 0 57.8125 0 56.25C0 54.6875 0.292969 53.2227 0.878906 51.8555C1.46484 50.4883 2.26562 49.2969 3.28125 48.2812C4.29688 47.2656 5.48828 46.4648 6.85547 45.8789C8.22266 45.293 9.6875 45 11.25 45C12.8906 45 14.5117 45.3711 16.1133 46.1133L31.1133 31.1133C30.3711 29.5117 30 27.8906 30 26.25C30 24.6875 30.293 23.2227 30.8789 21.8555C31.4648 20.4883 32.2656 19.2969 33.2812 18.2812C34.2969 17.2656 35.4883 16.4648 36.8555 15.8789C38.2227 15.293 39.6875 15 41.25 15C42.8125 15 44.2773 15.293 45.6445 15.8789C47.0117 16.4648 48.2031 17.2656 49.2188 18.2812C50.2344 19.2969 51.0352 20.4883 51.6211 21.8555C52.207 23.2227 52.5 24.6875 52.5 26.25V26.9531C52.5 27.1875 52.4805 27.4219 52.4414 27.6562L63.457 33.1641C64.4727 32.1484 65.6641 31.3672 67.0312 30.8203C68.3984 30.2734 69.8047 30 71.25 30C72.8906 30 74.5117 30.3711 76.1133 31.1133L91.1133 16.1133C90.3711 14.5117 90 12.8906 90 11.25C90 9.6875 90.293 8.22266 90.8789 6.85547C91.4648 5.48828 92.2656 4.29688 93.2812 3.28125C94.2969 2.26562 95.4883 1.46484 96.8555 0.878906C98.2227 0.292969 99.6875 0 101.25 0C102.812 0 104.277 0.292969 105.645 0.878906C107.012 1.46484 108.203 2.26562 109.219 3.28125C110.234 4.29688 111.035 5.48828 111.621 6.85547C112.207 8.22266 112.5 9.6875 112.5 11.25C112.5 12.8125 112.207 14.2773 111.621 15.6445C111.035 17.0117 110.234 18.2031 109.219 19.2188C108.203 20.2344 107.012 21.0352 105.645 21.6211C104.277 22.207 102.812 22.5 101.25 22.5C99.6094 22.5 97.9883 22.1289 96.3867 21.3867L81.3867 36.3867ZM11.25 60C12.2656 60 13.1445 59.6289 13.8867 58.8867C14.6289 58.1445 15 57.2656 15 56.25C15 55.2344 14.6289 54.3555 13.8867 53.6133C13.1445 52.8711 12.2656 52.5 11.25 52.5C10.2344 52.5 9.35547 52.8711 8.61328 53.6133C7.87109 54.3555 7.5 55.2344 7.5 56.25C7.5 57.2656 7.87109 58.1445 8.61328 58.8867C9.35547 59.6289 10.2344 60 11.25 60ZM101.25 7.5C100.234 7.5 99.3555 7.87109 98.6133 8.61328C97.8711 9.35547 97.5 10.2344 97.5 11.25C97.5 12.2656 97.8711 13.1445 98.6133 13.8867C99.3555 14.6289 100.234 15 101.25 15C102.266 15 103.145 14.6289 103.887 13.8867C104.629 13.1445 105 12.2656 105 11.25C105 10.2344 104.629 9.35547 103.887 8.61328C103.145 7.87109 102.266 7.5 101.25 7.5ZM41.25 30C42.2656 30 43.1445 29.6289 43.8867 28.8867C44.6289 28.1445 45 27.2656 45 26.25C45 25.2344 44.6289 24.3555 43.8867 23.6133C43.1445 22.8711 42.2656 22.5 41.25 22.5C40.2344 22.5 39.3555 22.8711 38.6133 23.6133C37.8711 24.3555 37.5 25.2344 37.5 26.25C37.5 27.2656 37.8711 28.1445 38.6133 28.8867C39.3555 29.6289 40.2344 30 41.25 30ZM71.25 45C72.2656 45 73.1445 44.6289 73.8867 43.8867C74.6289 43.1445 75 42.2656 75 41.25C75 40.2344 74.6289 39.3555 73.8867 38.6133C73.1445 37.8711 72.2656 37.5 71.25 37.5C70.2344 37.5 69.3555 37.8711 68.6133 38.6133C67.8711 39.3555 67.5 40.2344 67.5 41.25C67.5 42.2656 67.8711 43.1445 68.6133 43.8867C69.3555 44.6289 70.2344 45 71.25 45Z" fill="black"/>
</svg>
