<svg id="icon" width="100%" height="100%" viewBox="0 0 180 180" xmlns="http://www.w3.org/2000/svg">
<path d="M15 25V20C13.6739 20 12.4021 20.5268 11.4645 21.4645C10.5268 22.4021 10 23.6739 10 25H15ZM105 25H110C110 23.6739 109.473 22.4021 108.536 21.4645C107.598 20.5268 106.326 20 105 20V25ZM15 30H105V20H15V30ZM100 25V85H110V25H100ZM95 90H25V100H95V90ZM20 85V25H10V85H20ZM25 90C23.6739 90 22.4021 89.4732 21.4645 88.5355C20.5268 87.5979 20 86.3261 20 85H10C10 88.9782 11.5804 92.7936 14.3934 95.6066C17.2064 98.4196 21.0218 100 25 100V90ZM100 85C100 86.3261 99.4732 87.5979 98.5355 88.5355C97.5979 89.4732 96.3261 90 95 90V100C98.9782 100 102.794 98.4196 105.607 95.6066C108.42 92.7936 110 88.9782 110 85H100Z" fill="black"/>
<path d="M15 25L60 70L105 25" stroke-width="10" stroke-linecap="round" stroke-linejoin="round"/>
</svg>
