<svg id="icon" width="100%" height="100%" viewBox="0 0 220 220" xmlns="http://www.w3.org/2000/svg">
<path d="M193.528 195.624L192.065 194.167H190H75C66.7417 194.167 60 187.423 60 179.25V124.479C60 116.306 66.7417 109.562 75 109.562H200C208.258 109.562 215 116.306 215 124.479V217.006L193.528 195.624Z" fill="white" stroke="black" stroke-width="10"/>
<path d="M144 163.317H126L122.5 173.773H111.5L130 123.981H139.5L158 173.773H147L144 163.317ZM128.5 155.35H141L135 136.429L128.5 155.35Z" fill="black"/>
<path d="M50 119.479H47.935L46.4719 120.936L25 142.319V39.8333C25 31.6602 31.7417 24.9166 40 24.9166H165C173.258 24.9166 180 31.6602 180 39.8333V104.562C180 112.736 173.258 119.479 165 119.479H50Z" fill="white" stroke="black" stroke-width="10"/>
<path d="M127 70.7042C127 75.6833 126 79.6667 124.5 83.1521C123 86.6375 121 89.625 118 91.6167L126.5 98.0896L120 104.065L109 95.6C108 95.6 106.5 96.0979 105 96.0979C102 96.0979 99 95.6 96 94.6042C93.5 93.6083 91 91.6167 89 89.625C87 87.6333 85.5 84.6458 84.5 81.6583C83.5 78.6708 83 75.1854 83 71.2021V69.2104C83 65.2271 83.5 61.7417 84.5 58.7542C85.5 55.7667 87 52.7792 89 50.7875C91 48.7958 93 46.8042 96 45.8083C98.5 44.8125 101.5 44.3146 105 44.3146C108 44.3146 111 44.8125 114 45.8083C116.5 46.8042 119 48.7958 121 50.7875C123 52.7792 124.5 55.7667 125.5 58.7542C126.5 61.7417 127 65.2271 127 69.2104V70.7042ZM116 68.2146C116 62.7375 115 58.7542 113 56.2646C111 53.2771 108.5 52.2812 105 52.2812C101.5 52.2812 98.5 53.775 97 56.2646C95 59.2521 94 63.2354 94 68.2146V70.7042C94 73.1937 94.5 75.6833 95 77.675C95.5 79.6667 96 81.6583 97 82.6542C98 84.1479 99 85.1437 100.5 85.6417C102 86.1396 103.5 86.6375 105 86.6375C108.5 86.6375 111.5 85.1437 113 82.6542C115 79.6667 116 75.6833 116 70.2062V68.2146Z" fill="black"/>
</svg>
