<svg id="icon" width="100%" height="100%" viewBox="0 0 160 160" fill="none" xmlns="http://www.w3.org/2000/svg">
<path d="M32.5 40.55C28.05 40.55 24.45 36.95 24.45 32.5C24.45 30.365 25.2981 28.3175 26.8078 26.8078C28.3175 25.2981 30.365 24.45 32.5 24.45C36.95 24.45 40.55 28.05 40.55 32.5C40.55 34.635 39.7019 36.6825 38.1922 38.1922C36.6825 39.7019 34.635 40.55 32.5 40.55ZM32.5 10C20 10 10 20 10 32.5C10 49.35 32.5 74.3 32.5 74.3C32.5 74.3 55 49.35 55 32.5C55 20 45 10 32.5 10ZM87.5 40.55C85.365 40.55 83.3175 39.7019 81.8078 38.1922C80.2981 36.6825 79.45 34.635 79.45 32.5C79.45 31.4429 79.6582 30.3961 80.0628 29.4194C80.4673 28.4427 81.0603 27.5553 81.8078 26.8078C82.5553 26.0603 83.4427 25.4673 84.4194 25.0628C85.3961 24.6582 86.4429 24.45 87.5 24.45C88.5571 24.45 89.6039 24.6582 90.5806 25.0628C91.5573 25.4673 92.4447 26.0603 93.1922 26.8078C93.9397 27.5553 94.5327 28.4427 94.9372 29.4194C95.3418 30.3961 95.55 31.4429 95.55 32.5C95.55 34.635 94.7019 36.6825 93.1922 38.1922C91.6825 39.7019 89.635 40.55 87.5 40.55ZM87.5 10C75 10 65 20 65 32.5C65 49.35 87.5 74.3 87.5 74.3C87.5 74.3 110 49.35 110 32.5C110 20 100 10 87.5 10ZM87.5 80C81.15 80 75.5 84 73.4 90H46.6C45.2751 86.2578 42.5208 83.1935 38.9407 81.4784C35.3605 79.7633 31.2465 79.5373 27.5 80.85C25.6379 81.5025 23.9227 82.5155 22.4524 83.8313C20.982 85.1471 19.7855 86.7397 18.931 88.5182C18.0766 90.2967 17.5811 92.2262 17.4728 94.1963C17.3645 96.1664 17.6456 98.1386 18.3 100C19.6428 103.752 22.4157 106.82 26.0131 108.534C29.6104 110.249 33.74 110.47 37.5 109.15C41.75 107.65 45 104.25 46.6 100H73.45C76.2 107.8 84.8 111.9 92.5 109.15C94.3678 108.504 96.0895 107.496 97.5663 106.183C99.0431 104.869 100.246 103.277 101.105 101.498C101.965 99.7181 102.464 97.7863 102.575 95.8131C102.686 93.84 102.405 91.8644 101.75 90C99.6 84 93.9 80 87.5 80ZM87.5 102.5C85.5109 102.5 83.6032 101.71 82.1967 100.303C80.7902 98.8968 80 96.9891 80 95C80 93.0109 80.7902 91.1032 82.1967 89.6967C83.6032 88.2902 85.5109 87.5 87.5 87.5C89.4891 87.5 91.3968 88.2902 92.8033 89.6967C94.2098 91.1032 95 93.0109 95 95C95 96.9891 94.2098 98.8968 92.8033 100.303C91.3968 101.71 89.4891 102.5 87.5 102.5Z" fill="black" stroke-width="6"/>
</svg>
