<svg id="icon" width="100%" height="100%" viewBox="0 0 160 160" fill="none" xmlns="http://www.w3.org/2000/svg">
<path d="M40 45H80M40 65H70M90 20C93.9782 20 97.7936 21.5804 100.607 24.3934C103.42 27.2064 105 31.0218 105 35V75C105 78.9782 103.42 82.7936 100.607 85.6066C97.7936 88.4196 93.9782 90 90 90H65L40 105V90H30C26.0218 90 22.2064 88.4196 19.3934 85.6066C16.5804 82.7936 15 78.9782 15 75V35C15 31.0218 16.5804 27.2064 19.3934 24.3934C22.2064 21.5804 26.0218 20 30 20H90Z" stroke-width="10" stroke-linecap="round" stroke-linejoin="round"/>
</svg>
