<svg id="icon" width="100%" height="100%" viewBox="0 0 160 160" fill="none" xmlns="http://www.w3.org/2000/svg">
<path d="M102.188 60.0001C105.171 57.7623 107.144 54.4309 107.671 50.7388C108.199 47.0467 107.238 43.2962 105 40.3126C102.762 37.3289 99.4309 35.3563 95.7387 34.8289C92.0466 34.3014 88.2962 35.2623 85.3125 37.5001V26.2501C85.3125 23.2986 84.3839 20.4219 82.6581 18.0276C80.9323 15.6332 78.497 13.8425 75.697 12.9092C72.8969 11.9759 69.8742 11.9472 67.057 12.8272C64.2398 13.7072 61.7709 15.4514 60 17.8126C57.7622 14.8289 54.4309 12.8563 50.7387 12.3289C47.0466 11.8014 43.2962 12.7623 40.3125 15.0001C37.3288 17.2378 35.3563 20.5692 34.8288 24.2613C34.3014 27.9534 35.2622 31.7039 37.5 34.6876H26.25C23.2985 34.6876 20.4219 35.6162 18.0275 37.342C15.6332 39.0677 13.8425 41.5031 12.9091 44.3031C11.9758 47.1031 11.9471 50.1258 12.8272 52.943C13.7072 55.7603 15.4513 58.2292 17.8125 60.0001C16.3351 61.1081 15.0905 62.4963 14.1496 64.0853C13.2087 65.6744 12.59 67.4332 12.3288 69.2613C12.0677 71.0895 12.1691 72.9512 12.6275 74.7401C13.0858 76.529 13.892 78.2102 15 79.6876C16.108 81.1649 17.4962 82.4096 19.0852 83.3505C20.6743 84.2914 22.4331 84.9101 24.2613 85.1712C26.0894 85.4324 27.9511 85.3309 29.74 84.8726C31.529 84.4143 33.2101 83.6081 34.6875 82.5001V93.7501C34.6875 96.7015 35.6162 99.5782 37.3419 101.973C39.0677 104.367 41.503 106.158 44.303 107.091C47.1031 108.024 50.1258 108.053 52.943 107.173C55.7602 106.293 58.2291 104.549 60 102.188C61.108 103.665 62.4962 104.91 64.0853 105.85C65.6743 106.791 67.4331 107.41 69.2613 107.671C71.0894 107.932 72.9511 107.831 74.7401 107.373C76.529 106.914 78.2101 106.108 79.6875 105C81.1649 103.892 82.4095 102.504 83.3504 100.915C84.2913 99.3258 84.91 97.567 85.1712 95.7388C85.4323 93.9106 85.3309 92.049 84.8725 90.26C84.4142 88.4711 83.608 86.7899 82.5 85.3126H93.75C96.7015 85.3126 99.5781 84.3839 101.972 82.6582C104.367 80.9324 106.158 78.497 107.091 75.697C108.024 72.897 108.053 69.8743 107.173 67.0571C106.293 64.2399 104.549 61.7709 102.188 60.0001ZM93.75 40.3126C95.9878 40.3126 98.1339 41.2015 99.7162 42.7838C101.299 44.3662 102.188 46.5123 102.188 48.7501C102.188 50.9878 101.299 53.1339 99.7162 54.7163C98.1339 56.2986 95.9878 57.1876 93.75 57.1876H85.3125V48.7501C85.3125 46.5123 86.2015 44.3662 87.7838 42.7838C89.3661 41.2015 91.5122 40.3126 93.75 40.3126ZM71.25 17.8126C73.4878 17.8126 75.6339 18.7015 77.2162 20.2838C78.7986 21.8662 79.6875 24.0123 79.6875 26.2501V48.7501C79.6875 50.9878 78.7986 53.1339 77.2162 54.7163C75.6339 56.2986 73.4878 57.1876 71.25 57.1876H62.8125V26.2501C62.8125 24.0123 63.7015 21.8662 65.2838 20.2838C66.8661 18.7015 69.0122 17.8126 71.25 17.8126ZM40.3125 26.2501C40.3125 24.0123 41.2015 21.8662 42.7838 20.2838C44.3661 18.7015 46.5122 17.8126 48.75 17.8126C50.9878 17.8126 53.1339 18.7015 54.7162 20.2838C56.2986 21.8662 57.1875 24.0123 57.1875 26.2501V34.6876H48.75C46.5122 34.6876 44.3661 33.7986 42.7838 32.2163C41.2015 30.6339 40.3125 28.4878 40.3125 26.2501ZM17.8125 48.7501C17.8125 46.5123 18.7014 44.3662 20.2838 42.7838C21.8661 41.2015 24.0122 40.3126 26.25 40.3126H48.75C50.9878 40.3126 53.1339 41.2015 54.7162 42.7838C56.2986 44.3662 57.1875 46.5123 57.1875 48.7501V57.1876H26.25C24.0122 57.1876 21.8661 56.2986 20.2838 54.7163C18.7014 53.1339 17.8125 50.9878 17.8125 48.7501ZM26.25 79.6876C24.0122 79.6876 21.8661 78.7986 20.2838 77.2163C18.7014 75.6339 17.8125 73.4878 17.8125 71.2501C17.8125 69.0123 18.7014 66.8662 20.2838 65.2838C21.8661 63.7015 24.0122 62.8126 26.25 62.8126H34.6875V71.2501C34.6875 73.4878 33.7986 75.6339 32.2162 77.2163C30.6339 78.7986 28.4878 79.6876 26.25 79.6876ZM48.75 102.188C46.5122 102.188 44.3661 101.299 42.7838 99.7163C41.2015 98.1339 40.3125 95.9878 40.3125 93.7501V71.2501C40.3125 69.0123 41.2015 66.8662 42.7838 65.2838C44.3661 63.7015 46.5122 62.8126 48.75 62.8126H57.1875V93.7501C57.1875 95.9878 56.2986 98.1339 54.7162 99.7163C53.1339 101.299 50.9878 102.188 48.75 102.188ZM79.6875 93.7501C79.6875 95.9878 78.7986 98.1339 77.2162 99.7163C75.6339 101.299 73.4878 102.188 71.25 102.188C69.0122 102.188 66.8661 101.299 65.2838 99.7163C63.7015 98.1339 62.8125 95.9878 62.8125 93.7501V85.3126H71.25C73.4878 85.3126 75.6339 86.2015 77.2162 87.7838C78.7986 89.3662 79.6875 91.5123 79.6875 93.7501ZM93.75 79.6876H71.25C69.0122 79.6876 66.8661 78.7986 65.2838 77.2163C63.7015 75.6339 62.8125 73.4878 62.8125 71.2501V62.8126H93.75C95.9878 62.8126 98.1339 63.7015 99.7162 65.2838C101.299 66.8662 102.188 69.0123 102.188 71.2501C102.188 73.4878 101.299 75.6339 99.7162 77.2163C98.1339 78.7986 95.9878 79.6876 93.75 79.6876Z" fill="black"/>
</svg>
