<svg id="icon" width="100%" height="100%" viewBox="0 0 160 160" fill="none" xmlns="http://www.w3.org/2000/svg">
<path d="M58.85 100V95H91.925C92.7583 95 93.4783 94.7433 94.085 94.23C94.695 93.7167 95 93.0433 95 92.21V57.77C95 48.4033 91.5567 40.5817 84.67 34.305C77.78 28.025 69.5567 24.885 60 24.885C50.4433 24.885 42.22 28.0233 35.33 34.3C28.4433 40.58 25 48.4033 25 57.77V86.155H22.5C20.4567 86.155 18.695 85.4633 17.215 84.08C15.7383 82.7 15 80.9867 15 78.94V69.52C15 68.0267 15.485 66.7017 16.455 65.545C17.4283 64.3883 18.61 63.4467 20 62.72L20.085 56.575C20.175 51.3583 21.3083 46.525 23.485 42.075C25.6617 37.6283 28.5683 33.7567 32.205 30.46C35.845 27.1667 40.05 24.6 44.82 22.76C49.5933 20.92 54.6533 20 60 20C65.3467 20 70.4017 20.92 75.165 22.76C79.9283 24.6 84.1167 27.1617 87.73 30.445C91.3467 33.7317 94.2383 37.5983 96.405 42.045C98.5717 46.495 99.7417 51.3283 99.915 56.545L100 62.57C101.327 63.1933 102.493 64.03 103.5 65.08C104.5 66.1333 105 67.3967 105 68.87V79.695C105 81.1717 104.498 82.435 103.495 83.485C102.495 84.5383 101.33 85.375 100 85.995V92.215C100 94.3883 99.2133 96.23 97.64 97.74C96.0667 99.25 94.1617 100.005 91.925 100.005L58.85 100ZM46.925 67.69C45.8917 67.69 44.9917 67.34 44.225 66.64C43.4583 65.94 43.075 65.0733 43.075 64.04C43.075 63.0067 43.4583 62.1233 44.225 61.39C44.9917 60.6567 45.8917 60.29 46.925 60.29C47.9583 60.29 48.8567 60.6567 49.62 61.39C50.3867 62.1233 50.77 63.0067 50.77 64.04C50.77 65.0733 50.3867 65.94 49.62 66.64C48.8533 67.34 47.9533 67.69 46.92 67.69M73.075 67.69C72.0417 67.69 71.1433 67.34 70.38 66.64C69.6133 65.94 69.23 65.0733 69.23 64.04C69.23 63.0067 69.6133 62.1233 70.38 61.39C71.1467 60.6567 72.0467 60.29 73.08 60.29C74.11 60.29 75.0083 60.6567 75.775 61.39C76.5417 62.1233 76.925 63.0067 76.925 64.04C76.925 65.0733 76.5417 65.94 75.775 66.64C75.0083 67.34 74.1083 67.69 73.075 67.69ZM33.585 59.75C33.1317 52.2633 35.5417 45.8817 40.815 40.605C46.0917 35.3283 52.57 32.69 60.25 32.69C66.7067 32.69 72.4267 34.6283 77.41 38.505C82.3933 42.3783 85.4367 47.47 86.54 53.78C79.9167 53.6967 73.77 52.0067 68.1 48.71C62.4333 45.4167 58.0833 40.8333 55.05 34.96C53.8433 40.73 51.335 45.7867 47.525 50.13C43.715 54.4733 39.0683 57.68 33.585 59.75Z" fill="black"/>
</svg>
