<svg id="icon" width="100%" height="100%" viewBox="0 0 160 160" fill="none" xmlns="http://www.w3.org/2000/svg">
<g clip-path="url(#clip0_204_43)">
<path fill-rule="evenodd" clip-rule="evenodd" d="M109.2 30.28C109.418 28.9566 109.277 27.5989 108.792 26.3484C108.307 25.0979 107.496 24.0003 106.442 23.1701C105.389 22.3398 104.132 21.8072 102.803 21.6278C101.474 21.4484 100.121 21.6287 98.885 22.15L13.385 58.15C7.42501 60.66 7.12001 69.28 13.385 71.88C19.5886 74.4672 25.8826 76.8321 32.255 78.97C38.095 80.9 44.465 82.685 49.57 83.19C50.965 84.86 52.72 86.47 54.51 87.94C57.245 90.19 60.535 92.505 63.935 94.725C70.745 99.175 78.3 103.43 83.39 106.2C89.475 109.5 96.76 105.7 97.85 99.065L109.2 30.28ZM22.97 64.965L98.59 33.125L88 97.325C83.005 94.61 75.81 90.545 69.4 86.355C66.4457 84.4582 63.5934 82.4071 60.855 80.21C60.123 79.6122 59.4126 78.9884 58.725 78.34L78.53 58.54C79.4682 57.6025 79.9956 56.3306 79.996 55.0043C79.9965 53.6779 79.4701 52.4057 78.5325 51.4675C77.595 50.5293 76.3231 50.002 74.9968 50.0015C73.6704 50.001 72.3982 50.5275 71.46 51.465L49.775 73.15C46.105 72.68 40.995 71.32 35.385 69.47C31.2085 68.0787 27.0703 66.5748 22.975 64.96L22.97 64.965Z" fill="black" stroke-width="6"/>
</g>
<defs>
<clipPath id="clip0_204_43">
<rect width="120" height="120" fill="white"/>
</clipPath>
</defs>
</svg>
