<svg id="icon" width="100%" height="100%" viewBox="0 0 180 180" fill="none" xmlns="http://www.w3.org/2000/svg">
<path d="M95.25 24.5501C90.666 19.9197 85.2059 16.2484 79.1882 13.7503C73.1705 11.2522 66.7156 9.97736 60.2 10.0001C32.9 10.0001 10.65 32.2501 10.65 59.5501C10.65 68.3001 12.95 76.8001 17.25 84.3001L10.25 110L36.5 103.1C43.75 107.05 51.9 109.15 60.2 109.15C87.5 109.15 109.75 86.9001 109.75 59.6001C109.75 46.3501 104.6 33.9001 95.25 24.5501ZM60.2 100.75C52.8 100.75 45.55 98.7501 39.2 95.0001L37.7 94.1L22.1 98.2L26.25 83.0001L25.25 81.4501C21.1387 74.8849 18.9557 67.2963 18.95 59.5501C18.95 36.8501 37.45 18.3501 60.15 18.3501C71.15 18.3501 81.5 22.6501 89.25 30.4501C93.0874 34.2699 96.1285 38.8134 98.197 43.8172C100.265 48.821 101.32 54.1856 101.3 59.6001C101.4 82.3001 82.9 100.75 60.2 100.75ZM82.8 69.9501C81.55 69.3501 75.45 66.3501 74.35 65.9001C73.2 65.5001 72.4 65.3001 71.55 66.5001C70.7 67.7501 68.35 70.5501 67.65 71.3501C66.95 72.2001 66.2 72.3001 64.95 71.6501C63.7 71.0501 59.7 69.7001 55 65.5001C51.3 62.2001 48.85 58.1501 48.1 56.9001C47.4 55.6501 48 55.0001 48.65 54.3501C49.2 53.8001 49.9 52.9 50.5 52.2C51.1 51.5 51.35 50.9501 51.75 50.1501C52.15 49.3001 51.95 48.6001 51.65 48.0001C51.35 47.4001 48.85 41.3001 47.85 38.8001C46.85 36.4001 45.8 36.7001 45.05 36.6501H42.65C41.8 36.6501 40.5 36.9501 39.35 38.2001C38.25 39.4501 35.05 42.4501 35.05 48.5501C35.05 54.6501 39.5 60.5501 40.1 61.3501C40.7 62.2001 48.85 74.7001 61.25 80.0501C64.2 81.3501 66.5 82.1001 68.3 82.6501C71.25 83.6001 73.95 83.45 76.1 83.15C78.5 82.8 83.45 80.1501 84.45 77.2501C85.5 74.3501 85.5 71.9001 85.15 71.3501C84.8 70.8001 84.05 70.5501 82.8 69.9501Z" fill="black" stroke-width="6"/>
</svg>
