<svg id="icon" width="100%" height="100%" viewBox="0 0 160 160" xmlns="http://www.w3.org/2000/svg">
<path d="M37.5 41.25H82.5M37.5 56.25H60M11.25 63.8C11.25 71.8 16.865 78.77 24.785 79.935C30.43 80.765 36.135 81.4 41.9 81.83C43.65 81.96 45.25 82.88 46.225 84.335L60 105L73.775 84.34C74.2577 83.6204 74.8981 83.0203 75.6476 82.5854C76.397 82.1505 77.2357 81.8921 78.1 81.83C83.8258 81.4025 89.5344 80.7705 95.215 79.935C103.135 78.77 108.75 71.805 108.75 63.795V33.705C108.75 25.695 103.135 18.73 95.215 17.565C83.5548 15.8536 71.7851 14.9963 60 15C48.04 15 36.28 15.875 24.785 17.565C16.865 18.73 11.25 25.7 11.25 33.705V63.8Z" stroke-width="7.5" stroke-linecap="round" stroke-linejoin="round"/>
</svg>
