<svg id="icon" width="100%" height="100%" viewBox="0 0 160 160" fill="none" xmlns="http://www.w3.org/2000/svg">
<path d="M37.5 33.75H52.5M37.5 60H82.5M37.5 75H82.5M37.5 90H52.5M30 108.75H90C91.9891 108.75 93.8968 107.96 95.3033 106.553C96.7098 105.147 97.5 103.239 97.5 101.25V18.75C97.5 16.7609 96.7098 14.8532 95.3033 13.4467C93.8968 12.0402 91.9891 11.25 90 11.25H30C28.0109 11.25 26.1032 12.0402 24.6967 13.4467C23.2902 14.8532 22.5 16.7609 22.5 18.75V101.25C22.5 103.239 23.2902 105.147 24.6967 106.553C26.1032 107.96 28.0109 108.75 30 108.75Z" stroke-width="7.5" stroke-linecap="round" stroke-linejoin="round"/>
<path d="M82.5 35.625C83.5355 35.625 84.375 34.7855 84.375 33.75C84.375 32.7145 83.5355 31.875 82.5 31.875C81.4645 31.875 80.625 32.7145 80.625 33.75C80.625 34.7855 81.4645 35.625 82.5 35.625Z" fill="black" stroke-width="3.75"/>
</svg>
