<svg id="icon" width="100%" height="100%" viewBox="0 0 140 140" fill="none" xmlns="http://www.w3.org/2000/svg">
<path d="M60 24C56.8174 24 53.7652 25.2643 51.5147 27.5147C49.2643 29.7652 48 32.8174 48 36C48 39.1826 49.2643 42.2348 51.5147 44.4853C53.7652 46.7357 56.8174 48 60 48C63.1826 48 66.2348 46.7357 68.4853 44.4853C70.7357 42.2348 72 39.1826 72 36C72 32.8174 70.7357 29.7652 68.4853 27.5147C66.2348 25.2643 63.1826 24 60 24ZM54 36C54 34.4087 54.6321 32.8826 55.7574 31.7574C56.8826 30.6321 58.4087 30 60 30C61.5913 30 63.1174 30.6321 64.2426 31.7574C65.3679 32.8826 66 34.4087 66 36C66 37.5913 65.3679 39.1174 64.2426 40.2426C63.1174 41.3679 61.5913 42 60 42C58.4087 42 56.8826 41.3679 55.7574 40.2426C54.6321 39.1174 54 37.5913 54 36ZM39 87C38.2044 87 37.4413 87.3161 36.8787 87.8787C36.3161 88.4413 36 89.2044 36 90C36 90.7956 36.3161 91.5587 36.8787 92.1213C37.4413 92.6839 38.2044 93 39 93H81C81.7956 93 82.5587 92.6839 83.1213 92.1213C83.6839 91.5587 84 90.7956 84 90C84 89.2044 83.6839 88.4413 83.1213 87.8787C82.5587 87.3161 81.7956 87 81 87H39ZM24 24C24 20.8174 25.2643 17.7652 27.5147 15.5147C29.7652 13.2643 32.8174 12 36 12H84C87.1826 12 90.2348 13.2643 92.4853 15.5147C94.7357 17.7652 96 20.8174 96 24V96C96 99.1826 94.7357 102.235 92.4853 104.485C90.2348 106.736 87.1826 108 84 108H36C32.8174 108 29.7652 106.736 27.5147 104.485C25.2643 102.235 24 99.1826 24 96V24ZM84 18H36C34.4087 18 32.8826 18.6321 31.7574 19.7574C30.6321 20.8826 30 22.4087 30 24V72H42V60C42 58.4087 42.6321 56.8826 43.7574 55.7574C44.8826 54.6321 46.4087 54 48 54H72C73.5913 54 75.1174 54.6321 76.2426 55.7574C77.3679 56.8826 78 58.4087 78 60V72H90V24C90 22.4087 89.3679 20.8826 88.2426 19.7574C87.1174 18.6321 85.5913 18 84 18ZM72 60H48V72H72V60ZM30 78V96C30 97.5913 30.6321 99.1174 31.7574 100.243C32.8826 101.368 34.4087 102 36 102H84C85.5913 102 87.1174 101.368 88.2426 100.243C89.3679 99.1174 90 97.5913 90 96V78H30Z" fill="black" stroke-width="4"/>
</svg>
