<svg id="icon" width="100%" height="100%" viewBox="0 0 120 120" fill="none" xmlns="http://www.w3.org/2000/svg">
<path d="M93.8196 57.232C94.6084 56.4432 95.6783 56 96.7938 56C97.9094 56 98.9792 56.4432 99.768 57.232C100.557 58.0208 101 59.0906 101 60.2062C101 61.3217 100.557 62.3916 99.768 63.1804L80.9313 82.0172L73 84L74.9828 76.0687L93.8196 57.232Z" stroke-linecap="round" stroke-linejoin="round"/>
<path d="M90 54V40.796C90 37.2625 86.9157 34.398 83.1111 34.398H34.8889C31.0843 34.398 28 37.2625 28 40.796V85.5819C28 89.1154 31.0843 91.9799 34.8889 91.9799H83.1111C86.9157 91.9799 90 89.1154 90 85.5819V81.5" stroke-linecap="round" stroke-linejoin="round"/>
<path d="M72.7766 28V40.796" stroke-linecap="round" stroke-linejoin="round"/>
<path d="M45.2234 28V40.796" stroke-linecap="round" stroke-linejoin="round"/>
<path d="M28.9539 39.6308C28.9539 37.4216 30.7447 35.6308 32.9539 35.6308H85.0462C87.2553 35.6308 89.0462 37.4216 89.0462 39.6308V51.8462H28.9539V39.6308Z" fill="black"/>
</svg>
