<svg id="icon" width="100%" height="100%" viewBox="0 0 120 120" xmlns="http://www.w3.org/2000/svg">
<path d="M92 60.5C92 67.7126 89.6007 74.7203 85.1801 80.4194C80.7595 86.1185 74.5687 90.1851 67.5827 91.9789C60.5967 93.7726 53.2125 93.1916 46.5931 90.3272C39.9736 87.4628 34.4951 82.4778 31.0203 76.1575C27.5455 69.8371 26.2719 62.5403 27.4 55.4165C28.5282 48.2927 31.994 41.7465 37.2516 36.8091C42.5093 31.8716 49.26 28.8233 56.4406 28.1443C63.6211 27.4654 70.8236 29.1943 76.9135 33.0588L74.5676 36.7556C69.2981 33.4117 63.0659 31.9157 56.8527 32.5032C50.6395 33.0907 44.7982 35.7283 40.2489 40.0006C35.6995 44.273 32.7006 49.9372 31.7245 56.1014C30.7483 62.2655 31.8503 68.5792 34.857 74.0481C37.8637 79.517 42.6042 83.8304 48.3318 86.3089C54.0595 88.7874 60.4489 89.2902 66.4938 87.7381C72.5386 86.186 77.8955 82.6672 81.7206 77.7359C85.5456 72.8046 87.6217 66.7409 87.6217 60.5H92Z"/>
<path d="M75 33V63.5"/>
<path d="M60 62.5L90 62.5"/>
<path d="M77 60.5C77 64.1273 75.8728 67.665 73.7744 70.6238C71.676 73.5825 68.71 75.8161 65.2868 77.0155C61.8635 78.215 58.1521 78.3211 54.6659 77.3191C51.1797 76.3171 48.091 74.2566 45.8271 71.4225C43.5631 68.5884 42.2357 65.1209 42.0286 61.4994C41.8214 57.878 42.7447 54.2817 44.6707 51.208C46.5967 48.1342 49.4303 45.7349 52.7795 44.3419C56.1286 42.9489 59.8279 42.631 63.3657 43.4323L62.48 47.3427C59.7528 46.725 56.9011 46.97 54.3192 48.0439C51.7374 49.1177 49.553 50.9674 48.0682 53.3369C46.5835 55.7064 45.8718 58.4788 46.0315 61.2705C46.1912 64.0622 47.2144 66.7353 48.9597 68.92C50.7049 71.1048 53.086 72.6932 55.7734 73.4656C58.4609 74.2381 61.322 74.1563 63.961 73.2317C66.5999 72.307 68.8864 70.5852 70.504 68.3043C72.1216 66.0234 72.9906 63.2963 72.9906 60.5H77Z"/>
</svg>
