<svg id="icon" width="100%" height="100%" viewBox="0 0 170 170" fill="none" xmlns="http://www.w3.org/2000/svg">
<g clip-path="url(#clip0_203_21)">
<path d="M12.8571 17.1428C10.5838 17.1428 8.40367 18.0459 6.79622 19.6534C5.18876 21.2608 4.28571 23.441 4.28571 25.7143V107.143C4.28571 109.416 5.18876 111.596 6.79622 113.204C8.40367 114.811 10.5838 115.714 12.8571 115.714H107.143C109.416 115.714 111.596 114.811 113.204 113.204C114.811 111.596 115.714 109.416 115.714 107.143V25.7143C115.714 23.441 114.811 21.2608 113.204 19.6534C111.596 18.0459 109.416 17.1428 107.143 17.1428H90M30 4.28571V30M90 4.28571V30M30 17.1428H72.8571" stroke="black" stroke-width="8.57143" stroke-linecap="round" stroke-linejoin="round"/>
<path d="M53.04 39.1028C51.9033 39.1028 50.8132 39.5544 50.0095 40.3581C49.2058 41.1618 48.7543 42.2519 48.7543 43.3886V55.44H36.6857C35.549 55.44 34.4589 55.8915 33.6552 56.6952C32.8515 57.499 32.4 58.5891 32.4 59.7257V73.6543C32.4 74.7909 32.8515 75.881 33.6552 76.6847C34.4589 77.4885 35.549 77.94 36.6857 77.94H48.7457V89.9914C48.7457 91.1281 49.1972 92.2181 50.0009 93.0219C50.8047 93.8256 51.8947 94.2771 53.0314 94.2771H66.96C67.5228 94.2771 68.0801 94.1663 68.6 93.9509C69.12 93.7355 69.5925 93.4198 69.9904 93.0219C70.3884 92.6239 70.7041 92.1515 70.9195 91.6315C71.1348 91.1115 71.2457 90.5542 71.2457 89.9914V77.94H83.2971C84.4338 77.94 85.5238 77.4885 86.3276 76.6847C87.1313 75.881 87.5828 74.7909 87.5828 73.6543V59.7257C87.5828 58.5891 87.1313 57.499 86.3276 56.6952C85.5238 55.8915 84.4338 55.44 83.2971 55.44H71.2542V43.3886C71.2542 42.2519 70.8027 41.1618 69.999 40.3581C69.1953 39.5544 68.1052 39.1028 66.9685 39.1028H53.04Z" stroke="black" stroke-width="8.57143" stroke-linecap="round" stroke-linejoin="round"/>
</g>
<defs>
<clipPath id="clip0_203_21">
<rect width="120" height="120" fill="white"/>
</clipPath>
</defs>
</svg>
