<svg id="icon" width="100%" height="100%" viewBox="0 0 160 160" fill="none" xmlns="http://www.w3.org/2000/svg">
<path d="M30 45C30 52.9565 33.1607 60.5871 38.7868 66.2132C44.4129 71.8393 52.0435 75 60 75C67.9565 75 75.5871 71.8393 81.2132 66.2132C86.8393 60.5871 90 52.9565 90 45C90 37.0435 86.8393 29.4129 81.2132 23.7868C75.5871 18.1607 67.9565 15 60 15C52.0435 15 44.4129 18.1607 38.7868 23.7868C33.1607 29.4129 30 37.0435 30 45Z" stroke="black" stroke-width="10" stroke-linecap="round" stroke-linejoin="round"/>
<path d="M60 75L77 104.45L84.99 88.285L102.98 89.445L85.98 60M34.01 60L17.01 89.45L35 88.285L42.99 104.445L59.99 75" stroke="black" stroke-width="10" stroke-linecap="round" stroke-linejoin="round"/>
</svg>
