
<svg xmlns="http://www.w3.org/2000/svg" id="icon" width="100%" height="100%" viewBox="0 0 120 120" xmlns:xlink="http://www.w3.org/1999/xlink">
<g><path style="opacity:0.997" fill="#000000" d="M 37.5,2.5 C 42.5,1.5 44.5,3.5 43.5,8.5C 37.5907,9.92557 35.5907,7.92557 37.5,2.5 Z"/></g>
<g><path style="opacity:0.962" fill="#000000" d="M 24.5,4.5 C 26.5273,4.33788 28.5273,4.50454 30.5,5C 31.6497,9.18569 29.983,10.8524 25.5,10C 24.5939,8.30054 24.2606,6.4672 24.5,4.5 Z"/></g>
<g><path style="opacity:0.995" fill="#000000" d="M 54.5,12.5 C 52.4352,12.4828 50.4352,12.1495 48.5,11.5C 48.5,10.8333 48.5,10.1667 48.5,9.5C 50.2821,8.28043 52.2821,7.61377 54.5,7.5C 54.5,9.16667 54.5,10.8333 54.5,12.5 Z"/></g>
<g><path style="opacity:0.906" fill="#000000" d="M 54.5,12.5 C 54.5,10.8333 54.5,9.16667 54.5,7.5C 52.2821,7.61377 50.2821,8.28043 48.5,9.5C 48.4142,8.5041 48.7476,7.67076 49.5,7C 51.5,6.33333 53.5,6.33333 55.5,7C 57.0779,9.33883 56.7446,11.1722 54.5,12.5 Z"/></g>
<g><path style="opacity:0.995" fill="#000000" d="M 19.5,9.5 C 23.4809,13.2141 23.4809,17.0475 19.5,21C 16.9615,21.7958 14.6282,21.6291 12.5,20.5C 8.10708,12.4392 10.4404,8.77254 19.5,9.5 Z"/></g>
<g><path style="opacity:0.957" fill="#000000" d="M 38.5,11.5 C 44.2641,11.8596 45.9308,14.6929 43.5,20C 36.9094,22.2438 34.4094,20.0771 36,13.5C 36.9947,12.9341 37.828,12.2674 38.5,11.5 Z"/></g>
<g><path style="opacity:0.314" fill="#000000" d="M 48.5,11.5 C 50.4352,12.1495 52.4352,12.4828 54.5,12.5C 53.9032,13.1386 53.0698,13.472 52,13.5C 50.3009,13.6134 49.1342,12.9468 48.5,11.5 Z"/></g>
<g><path style="opacity:0.749" fill="#000000" d="M 19.5,9.5 C 10.4404,8.77254 8.10708,12.4392 12.5,20.5C 10.5891,20.4257 9.42244,19.4257 9,17.5C 8.38004,9.27888 11.88,6.61222 19.5,9.5 Z"/></g>
<g><path style="opacity:1" fill="#000000" d="M 25.5,14.5 C 29.145,13.6797 31.4783,15.013 32.5,18.5C 30.4977,22.7796 27.6643,23.4462 24,20.5C 23.2516,18.1599 23.7516,16.1599 25.5,14.5 Z"/></g>
<g><path style="opacity:0.984" fill="#000000" d="M 65.5,17.5 C 68.1402,19.8794 68.1402,22.3794 65.5,25C 60.6624,26.3276 58.329,24.4943 58.5,19.5C 60.5582,18.0669 62.8915,17.4003 65.5,17.5 Z"/></g>
<g><path style="opacity:0.749" fill="#000000" d="M 65.5,17.5 C 62.8915,17.4003 60.5582,18.0669 58.5,19.5C 60.265,16.5512 62.5983,15.8846 65.5,17.5 Z"/></g>
<g><path style="opacity:0.624" fill="#000000" d="M 47.5,17.5 C 49.9118,17.6941 50.9118,19.0274 50.5,21.5C 45.8937,21.9492 44.8937,20.6159 47.5,17.5 Z"/></g>
<g><path style="opacity:0.78" fill="#000000" d="M 39.5,23.5 C 42.5,23.1667 43.8333,24.5 43.5,27.5C 39.5089,28.128 38.1755,26.7947 39.5,23.5 Z"/></g>
<g><path style="opacity:0.718" fill="#000000" d="M 52.5,23.5 C 57.0165,24.6253 57.3498,26.292 53.5,28.5C 50.1396,27.2095 49.8063,25.5428 52.5,23.5 Z"/></g>
<g><path style="opacity:0.031" fill="#000000" d="M 29.5,28.5 C 29.5,27.5 29.5,26.5 29.5,25.5C 32.3297,25.3059 34.9963,24.6392 37.5,23.5C 37.5,24.5 37.5,25.5 37.5,26.5C 34.6703,26.6941 32.0037,27.3608 29.5,28.5 Z"/></g>
<g><path style="opacity:0.977" fill="#000000" d="M 4.5,27.5 C 12.9932,26.4707 15.3266,29.6373 11.5,37C 6.73297,39.1897 3.39964,37.8564 1.5,33C 1.89505,30.7516 2.89505,28.9183 4.5,27.5 Z"/></g>
<g><path style="opacity:0.937" fill="#000000" d="M 17.5,23.5 C 19.5273,23.3379 21.5273,23.5045 23.5,24C 24.8333,25.3333 24.8333,26.6667 23.5,28C 21.5273,28.4955 19.5273,28.6621 17.5,28.5C 17.5,26.8333 17.5,25.1667 17.5,23.5 Z"/></g>
<g><path style="opacity:0.251" fill="#000000" d="M 29.5,28.5 C 30.3768,31.2442 29.3768,31.9109 26.5,30.5C 27.0047,29.0815 28.0047,28.4148 29.5,28.5 Z"/></g>
<g><path style="opacity:0.561" fill="#000000" d="M 43.5,28.5 C 45.1667,28.5 46.8333,28.5 48.5,28.5C 47.9936,32.634 45.9936,33.4674 42.5,31C 43.2524,30.3292 43.5858,29.4959 43.5,28.5 Z"/></g>
<g><path style="opacity:1" fill="#000000" d="M 69.5,32.5 C 69.8333,32.5 70.1667,32.5 70.5,32.5C 70.5,35.5 70.5,38.5 70.5,41.5C 70.1667,41.5 69.8333,41.5 69.5,41.5C 62.5137,41.669 60.847,38.8357 64.5,33C 66.1341,32.5065 67.8008,32.3398 69.5,32.5 Z"/></g>
<g><path style="opacity:0.953" fill="#000000" d="M 17.5,32.5 C 20.4841,32.7868 21.8174,34.4535 21.5,37.5C 19.5,37.5 17.5,37.5 15.5,37.5C 15.3653,35.4458 16.032,33.7791 17.5,32.5 Z"/></g>
<g><path style="opacity:0.157" fill="#000000" d="M 45.5,33.5 C 46.5,33.5 47.5,33.5 48.5,33.5C 48.5,34.5 48.5,35.5 48.5,36.5C 47.5,36.5 46.5,36.5 45.5,36.5C 45.5,35.5 45.5,34.5 45.5,33.5 Z"/></g>
<g><path style="opacity:0.843" fill="#000000" d="M 53.5,31.5 C 55.1667,31.5 56.8333,31.5 58.5,31.5C 58.9854,36.1585 57.152,37.4919 53,35.5C 52.4209,34.0715 52.5876,32.7382 53.5,31.5 Z"/></g>
<g><path style="opacity:0.282" fill="#000000" d="M 25.5,32.5 C 30.7668,33.5624 30.7668,34.5624 25.5,35.5C 25.5,34.5 25.5,33.5 25.5,32.5 Z"/></g>
<g><path style="opacity:0.718" fill="#000000" d="M 70.5,32.5 C 73.1667,35.5 73.1667,38.5 70.5,41.5C 70.5,38.5 70.5,35.5 70.5,32.5 Z"/></g>
<g><path style="opacity:0.99" fill="#000000" d="M 29.5,37.5 C 29.7148,39.1788 29.0481,40.1788 27.5,40.5C 27.4431,39.391 27.1098,38.391 26.5,37.5C 27.5,36.1667 28.5,36.1667 29.5,37.5 Z"/></g>
<g><path style="opacity:0.471" fill="#000000" d="M 29.5,37.5 C 30.2389,37.369 30.9056,37.5357 31.5,38C 30.6634,39.0113 30.33,40.1779 30.5,41.5C 29.209,41.7373 28.209,41.404 27.5,40.5C 29.0481,40.1788 29.7148,39.1788 29.5,37.5 Z"/></g>
<g><path style="opacity:0.561" fill="#000000" d="M 44.5,37.5 C 45.5,37.5 46.5,37.5 47.5,37.5C 47.5,38.5 47.5,39.5 47.5,40.5C 44.5065,40.8543 43.5065,39.8543 44.5,37.5 Z"/></g>
<g><path style="opacity:0.533" fill="#000000" d="M 26.5,37.5 C 27.1098,38.391 27.4431,39.391 27.5,40.5C 25.4482,39.9473 25.1148,38.9473 26.5,37.5 Z"/></g>
<g><path style="opacity:0.78" fill="#000000" d="M 69.5,32.5 C 67.8008,32.3398 66.1341,32.5065 64.5,33C 60.847,38.8357 62.5137,41.669 69.5,41.5C 64.7723,43.6941 61.7723,42.1941 60.5,37C 61.7723,31.8059 64.7723,30.3059 69.5,32.5 Z"/></g>
<g><path style="opacity:0.921" fill="#000000" d="M 50.5,40.5 C 52.5,40.5 54.5,40.5 56.5,40.5C 57.5081,45.6673 55.6748,47.334 51,45.5C 50.5065,43.8659 50.3398,42.1992 50.5,40.5 Z"/></g>
<g><path style="opacity:0.953" fill="#000000" d="M 18.5,41.5 C 23.7859,41.3868 24.4525,42.7202 20.5,45.5C 18.8888,44.6798 18.2222,43.3464 18.5,41.5 Z"/></g>
<g><path style="opacity:0.188" fill="#000000" d="M 30.5,41.5 C 32.099,41.2322 33.4324,41.5655 34.5,42.5C 33.0413,42.4326 31.7079,42.7659 30.5,43.5C 30.5,42.8333 30.5,42.1667 30.5,41.5 Z"/></g>
<g><path style="opacity:0.376" fill="#000000" d="M 41.5,40.5 C 45.31,41.7542 45.31,42.7542 41.5,43.5C 41.5,42.5 41.5,41.5 41.5,40.5 Z"/></g>
<g><path style="opacity:0.529" fill="#000000" d="M 34.5,42.5 C 35.7459,44.0229 35.2459,45.0229 33,45.5C 31.699,45.3613 30.8656,44.6946 30.5,43.5C 31.7079,42.7659 33.0413,42.4326 34.5,42.5 Z"/></g>
<g><path style="opacity:0.627" fill="#000000" d="M 36.5,42.5 C 38.3464,42.2222 39.6798,42.8888 40.5,44.5C 39.3112,45.4287 37.9778,45.762 36.5,45.5C 36.5,44.5 36.5,43.5 36.5,42.5 Z"/></g>
<g><path style="opacity:0.816" fill="#000000" d="M 49.5,48.5 C 47.0971,48.448 44.7638,48.7814 42.5,49.5C 43.3121,48.0069 44.6455,47.3402 46.5,47.5C 47.7261,47.5195 48.7261,47.8529 49.5,48.5 Z"/></g>
<g><path style="opacity:0.875" fill="#000000" d="M 24.5,47.5 C 27.1662,47.0658 28.3329,48.0658 28,50.5C 24.4034,52.0661 23.2368,51.0661 24.5,47.5 Z"/></g>
<g><path style="opacity:0.975" fill="#000000" d="M 49.5,48.5 C 50.9302,50.4547 50.5969,52.1214 48.5,53.5C 46.4352,53.4828 44.4352,53.1495 42.5,52.5C 42.5,51.5 42.5,50.5 42.5,49.5C 44.7638,48.7814 47.0971,48.448 49.5,48.5 Z"/></g>
<g><path style="opacity:0.989" fill="#000000" d="M 56.5,48.5 C 64.1844,47.4925 67.0178,50.8258 65,58.5C 61.5869,61.8863 58.0869,62.2196 54.5,59.5C 52.6983,55.3031 53.365,51.6365 56.5,48.5 Z"/></g>
<g><path style="opacity:1" fill="#000000" d="M 31.5,48.5 C 38.3781,48.0084 40.3781,50.675 37.5,56.5C 29.7902,58.1232 27.7902,55.4565 31.5,48.5 Z"/></g>
<g><path style="opacity:0.969" fill="#000000" d="M 14.5,45.5 C 16.7188,47.0654 17.0521,49.0654 15.5,51.5C 12.8333,52.8333 10.1667,52.8333 7.5,51.5C 6.13493,45.1988 8.46826,43.1988 14.5,45.5 Z"/></g>
<g><path style="opacity:1" fill="#000000" d="M 14.5,45.5 C 14.5,47.5 14.5,49.5 14.5,51.5C 9.33271,52.5081 7.66605,50.6748 9.5,46C 11.1341,45.5065 12.8008,45.3398 14.5,45.5 Z"/></g>
<g><path style="opacity:0.71" fill="#000000" d="M 56.5,48.5 C 53.365,51.6365 52.6983,55.3031 54.5,59.5C 53.2502,59.4226 52.4169,58.756 52,57.5C 50.4221,52.8432 51.9221,49.8432 56.5,48.5 Z"/></g>
<g><path style="opacity:0.345" fill="#000000" d="M 42.5,52.5 C 44.4352,53.1495 46.4352,53.4828 48.5,53.5C 47.9032,54.1386 47.0698,54.472 46,54.5C 44.3009,54.6134 43.1342,53.9468 42.5,52.5 Z"/></g>
<g><path style="opacity:1" fill="#000000" d="M 18.5,56.5 C 20.924,56.1924 23.2573,56.5258 25.5,57.5C 26.7039,62.4587 24.7039,64.292 19.5,63C 17.4197,61.0388 17.0863,58.8722 18.5,56.5 Z"/></g>
<g><path style="opacity:0.929" fill="#000000" d="M 44.5,64.5 C 43.596,63.791 43.2627,62.791 43.5,61.5C 45.1172,60.962 46.7839,60.6287 48.5,60.5C 48.5,61.8333 48.5,63.1667 48.5,64.5C 47.1667,64.5 45.8333,64.5 44.5,64.5 Z"/></g>
<g><path style="opacity:1" fill="#000000" d="M 32.5,60.5 C 36.9083,60.062 38.5749,62.062 37.5,66.5C 31.0544,67.7498 29.3878,65.7498 32.5,60.5 Z"/></g>
<g><path style="opacity:0.624" fill="#000000" d="M 44.5,64.5 C 45.8333,64.5 47.1667,64.5 48.5,64.5C 48.5,63.1667 48.5,61.8333 48.5,60.5C 46.7839,60.6287 45.1172,60.962 43.5,61.5C 45.2818,59.3131 47.4485,58.9797 50,60.5C 50.6641,65.2672 48.8307,66.6005 44.5,64.5 Z"/></g>
</svg>
