<svg id="icon" width="100%" height="100%" viewBox="0 0 160 160" fill="none" xmlns="http://www.w3.org/2000/svg">
<g clip-path="url(#clip0_205_78)">
<path d="M59.6666 57.6666C68.6666 57.6666 75.6666 50.3333 75.6666 41.3333C75.6666 32.3333 68.3333 25.3333 59.3333 25.3333C50.3333 25.3333 43.3333 32.6666 43.3333 41.3333C43.3333 50.3333 50.6666 57.6666 59.6666 57.6666ZM59.3333 32C59.6666 32 59.6666 32 59.3333 32C64.6666 32 69 36.3333 69 41.6666C69 47 64.6666 51 59.3333 51C54 51 50 46.6666 50 41.6666C50 36.3333 54.3333 32 59.3333 32Z" fill="black"/>
<path d="M109 55.6666C102.667 50 94.3333 47 85.6667 47.3333H83C82.3333 50 81.3333 52.3333 80 54.3333C82 54 83.6667 54 85.6667 54C92 53.6666 98.3333 55.6666 103.333 59.3333V83.3333H110V56.6666L109 55.6666Z" fill="black"/>
<path d="M78 26C79.6666 22 84.3333 20 88.6666 21.6666C92.6666 23.3333 94.6666 28 93 32.3333C91.6666 35.3333 88.6666 37.3333 85.6666 37.3333C85 37.3333 84 37.3333 83.3333 37C83.6666 38.6666 83.6666 40.3333 83.6666 41.6666V43.6666C84.3333 43.6666 85 44 85.6666 44C94 44 100.667 37.3333 100.667 29.3333C100.667 21 94 14.3333 86 14.3333C80.6666 14.3333 76 17 73.3333 21.6666C75 22.6666 76.6666 24 78 26Z" fill="black"/>
<path d="M40 54.6667C38.6667 52.6667 37.6667 50.3333 37 47.6667H34.3333C25.6667 47.3333 17.3333 50.3333 11 55.6667L10 56.6667V83.3333H16.6667V59.3333C22 55.6667 28 53.6667 34.3333 54C36.3333 54 38.3333 54.3333 40 54.6667Z" fill="black"/>
<path d="M34.3333 43.6667C35 43.6667 35.6666 43.6667 36.3333 43.3333V41.3333C36.3333 39.6667 36.3333 38 36.6666 36.6667C36 37 35 37 34.3333 37C30 37 26.3333 33.3333 26.3333 29C26.3333 24.6667 30 21 34.3333 21C37.6666 21 40.6666 23 42 26C43.3333 24.3333 45.3333 22.6667 47 21.3333C42.6667 14.3333 33.6666 12 26.6666 16.3333C19.6666 20.6667 17.3333 29.6667 21.6666 36.6667C24.3333 41 29 43.6667 34.3333 43.6667Z" fill="black"/>
<path d="M87 75.6667L86.3333 74.6667C79.6666 67.3334 70.3333 63 60.3333 63.3334C50.3333 63 40.6666 67.3334 34 74.6667L33.3333 75.6667V101C33.3333 104 35.6666 106.667 39 106.667H81.6666C84.6666 106.667 87.3333 104 87.3333 101V75.6667H87ZM80.3333 100H40V78C45.3333 72.6667 52.6666 70 60.3333 70C67.6666 69.6667 75 72.6667 80.3333 78V100Z" fill="black"/>
</g>
<defs>
<clipPath id="clip0_205_78">
<rect width="120" height="120" fill="white"/>
</clipPath>
</defs>
</svg>
