<svg id="icon" width="100%" height="100%" viewBox="0 0 160 160" fill="none" xmlns="http://www.w3.org/2000/svg">
<path d="M15 30H105V20H15C9.5 20 5 24.5 5 30V90C5 95.5 9.5 100 15 100H35V90H15V30ZM65 60H45V68.9C41.95 71.65 40 75.55 40 80C40 84.45 41.95 88.35 45 91.1V100H65V91.1C68.05 88.35 70 84.4 70 80C70 75.6 68.05 71.65 65 68.9V60ZM55 87.5C50.85 87.5 47.5 84.15 47.5 80C47.5 75.85 50.85 72.5 55 72.5C59.15 72.5 62.5 75.85 62.5 80C62.5 84.15 59.15 87.5 55 87.5ZM110 40H80C77.5 40 75 42.5 75 45V95C75 97.5 77.5 100 80 100H110C112.5 100 115 97.5 115 95V45C115 42.5 112.5 40 110 40ZM105 90H85V50H105V90Z" fill="black" stroke-width="6"/>
</svg>
