<svg id="icon" width="100%" height="100%" viewBox="0 0 160 160" fill="none" xmlns="http://www.w3.org/2000/svg">
<path fill-rule="evenodd" clip-rule="evenodd" d="M77.5 35C77.5 34.337 77.7634 33.7011 78.2322 33.2322C78.7011 32.7634 79.337 32.5 80 32.5H90C90.663 32.5 91.2989 32.7634 91.7678 33.2322C92.2366 33.7011 92.5 34.337 92.5 35V40H100C100.663 40 101.299 40.2634 101.768 40.7322C102.237 41.2011 102.5 41.837 102.5 42.5V57.5H110V62.5H102.5V77.5C102.5 78.163 102.237 78.7989 101.768 79.2678C101.299 79.7366 100.663 80 100 80H92.5V85C92.5 85.663 92.2366 86.2989 91.7678 86.7678C91.2989 87.2366 90.663 87.5 90 87.5H80C79.337 87.5 78.7011 87.2366 78.2322 86.7678C77.7634 86.2989 77.5 85.663 77.5 85V62.5H42.5V85C42.5 85.663 42.2366 86.2989 41.7678 86.7678C41.2989 87.2366 40.663 87.5 40 87.5H30C29.337 87.5 28.7011 87.2366 28.2322 86.7678C27.7634 86.2989 27.5 85.663 27.5 85V80H20C19.337 80 18.7011 79.7366 18.2322 79.2678C17.7634 78.7989 17.5 78.163 17.5 77.5V62.5H10V57.5H17.5V42.5C17.5 41.837 17.7634 41.2011 18.2322 40.7322C18.7011 40.2634 19.337 40 20 40H27.5V35C27.5 34.337 27.7634 33.7011 28.2322 33.2322C28.7011 32.7634 29.337 32.5 30 32.5H40C40.663 32.5 41.2989 32.7634 41.7678 33.2322C42.2366 33.7011 42.5 34.337 42.5 35V57.5H77.5V35ZM32.5 82.5H37.5V37.5H32.5V82.5ZM27.5 45H22.5V75H27.5V45ZM92.5 75V45H97.5V75H92.5ZM87.5 37.5V82.5H82.5V37.5H87.5Z" fill="black"/>
</svg>
