<svg id="icon" width="100%" height="100%" viewBox="0 0 350 350" fill="none" xmlns="http://www.w3.org/2000/svg">
<path d="M129.375 168.125H146.625V201.75H129.375V168.125ZM172.5 151.312H189.75V201.75H172.5V151.312ZM86.25 117.688H103.5V201.75H86.25V117.688Z" fill="black"/>
<path d="M215.625 42.0312H189.75V33.625C189.75 29.166 187.933 24.8897 184.698 21.7368C181.463 18.5838 177.075 16.8125 172.5 16.8125H103.5C98.925 16.8125 94.5374 18.5838 91.3024 21.7368C88.0674 24.8897 86.25 29.166 86.25 33.625V42.0312H60.375C55.8 42.0313 51.4124 43.8026 48.1774 46.9555C44.9424 50.1085 43.125 54.3848 43.125 58.8438V235.375C43.125 239.834 44.9424 244.11 48.1774 247.263C51.4124 250.416 55.8 252.188 60.375 252.188H215.625C220.2 252.188 224.588 250.416 227.823 247.263C231.058 244.11 232.875 239.834 232.875 235.375V58.8438C232.875 54.3848 231.058 50.1085 227.823 46.9555C224.588 43.8026 220.2 42.0313 215.625 42.0312ZM103.5 33.625H172.5V67.25H103.5V33.625ZM215.625 235.375H60.375V58.8438H86.25V84.0625H189.75V58.8438H215.625V235.375Z" fill="black"/>
</svg>
