<?xml version="1.0" encoding="UTF-8"?>
<!DOCTYPE svg PUBLIC "-//W3C//DTD SVG 1.1//EN" "http://www.w3.org/Graphics/SVG/1.1/DTD/svg11.dtd">
<svg xmlns="http://www.w3.org/2000/svg" version="1.1" width="75px" height="70px" style="shape-rendering:geometricPrecision; text-rendering:geometricPrecision; image-rendering:optimizeQuality; fill-rule:evenodd; clip-rule:evenodd" xmlns:xlink="http://www.w3.org/1999/xlink">
<g><path style="opacity:1" fill="#596389" d="M 38.5,2.5 C 42.9083,2.06203 44.5749,4.06203 43.5,8.5C 38.0738,9.41606 36.4071,7.41606 38.5,2.5 Z"/></g>
<g><path style="opacity:1" fill="#4f5a82" d="M 25.5,4.5 C 27.1992,4.33982 28.8659,4.50649 30.5,5C 31.8133,8.69204 30.4799,10.3587 26.5,10C 25.5939,8.30054 25.2606,6.4672 25.5,4.5 Z"/></g>
<g><path style="opacity:1" fill="#4b5780" d="M 50.5,6.5 C 55.8946,5.5548 57.5613,7.5548 55.5,12.5C 49.7402,14.2121 48.0736,12.2121 50.5,6.5 Z"/></g>
<g><path style="opacity:1" fill="#38b1cf" d="M 12.5,8.5 C 22.8176,8.32236 25.1509,12.489 19.5,21C 13.9112,22.5453 10.5779,20.5453 9.5,15C 9.84016,12.4887 10.8402,10.322 12.5,8.5 Z"/></g>
<g><path style="opacity:1" fill="#45b4d1" d="M 39.5,11.5 C 44.3847,12.5298 45.718,15.3631 43.5,20C 37.3333,21.8333 35.1667,19.6667 37,13.5C 37.9947,12.9341 38.828,12.2674 39.5,11.5 Z"/></g>
<g><path style="opacity:1" fill="#63bdd7" d="M 26.5,14.5 C 29.8332,13.8333 31.8332,15.1667 32.5,18.5C 30.8081,22.6088 28.3081,23.2754 25,20.5C 24.2516,18.1599 24.7516,16.1599 26.5,14.5 Z"/></g>
<g><path style="opacity:1" fill="#47537c" d="M 61.5,16.5 C 67.6426,17.0262 68.9759,19.8595 65.5,25C 60.5036,25.6643 58.6703,23.4977 60,18.5C 60.7172,17.9558 61.2172,17.2891 61.5,16.5 Z"/></g>
<g><path style="opacity:1" fill="#747d9d" d="M 48.5,17.5 C 50.1042,18.287 50.7709,19.6203 50.5,21.5C 46.4366,21.384 45.7699,20.0507 48.5,17.5 Z"/></g>
<g><path style="opacity:1" fill="#56bad5" d="M 18.5,23.5 C 20.1992,23.3398 21.8659,23.5065 23.5,24C 24.8333,25.3333 24.8333,26.6667 23.5,28C 21.8659,28.4935 20.1992,28.6602 18.5,28.5C 18.5,26.8333 18.5,25.1667 18.5,23.5 Z"/></g>
<g><path style="opacity:1" fill="#7e85a3" d="M 53.5,23.5 C 57.0952,24.9051 57.2619,26.5717 54,28.5C 53.1667,27.6667 52.3333,26.8333 51.5,26C 52.3805,25.2917 53.0472,24.4584 53.5,23.5 Z"/></g>
<g><path style="opacity:0.502" fill="#86d1e3" d="M 35.5,23.5 C 37.0481,23.8212 37.7148,24.8212 37.5,26.5C 34.7524,26.5983 34.0857,25.5983 35.5,23.5 Z"/></g>
<g><path style="opacity:0.816" fill="#7fcce0" d="M 40.5,23.5 C 42.9118,23.6941 43.9118,25.0274 43.5,27.5C 39.8141,27.87 38.8141,26.5367 40.5,23.5 Z"/></g>
<g><path style="opacity:1" fill="#3eb2d0" d="M 5.5,27.5 C 12.0001,26.4987 14.5001,29.1653 13,35.5C 8.43932,39.4278 4.93932,38.5944 2.5,33C 2.89505,30.7516 3.89505,28.9183 5.5,27.5 Z"/></g>
<g><path style="opacity:0.376" fill="#a5dbe9" d="M 30.5,25.5 C 33.9571,25.6672 34.2904,26.6672 31.5,28.5C 30.6143,27.675 30.281,26.675 30.5,25.5 Z"/></g>
<g><path style="opacity:1" fill="#9dd6e6" d="M 28.5,28.5 C 31.1247,29.4657 31.1247,30.4657 28.5,31.5C 27.4376,30.5754 27.4376,29.5754 28.5,28.5 Z"/></g>
<g><path style="opacity:1" fill="#68c2da" d="M 44.5,28.5 C 45.8333,28.5 47.1667,28.5 48.5,28.5C 48.3522,32.4909 46.6855,33.3243 43.5,31C 44.2524,30.3292 44.5858,29.4959 44.5,28.5 Z"/></g>
<g><path style="opacity:1" fill="#5f698e" d="M 54.5,31.5 C 55.8333,31.5 57.1667,31.5 58.5,31.5C 58.9899,33.9484 58.1566,35.615 56,36.5C 53.3894,35.5001 52.8894,33.8334 54.5,31.5 Z"/></g>
<g><path style="opacity:1" fill="#434f7a" d="M 64.5,31.5 C 72.168,31.507 74.168,34.8403 70.5,41.5C 64.1974,43.3634 61.3641,41.0301 62,34.5C 63.045,33.6266 63.8783,32.6266 64.5,31.5 Z"/></g>
<g><path style="opacity:1" fill="#5cbdd7" d="M 18.5,32.5 C 20.7593,33.344 21.7593,35.0107 21.5,37.5C 19.8333,37.5 18.1667,37.5 16.5,37.5C 16.3653,35.4458 17.032,33.7791 18.5,32.5 Z"/></g>
<g><path style="opacity:0.565" fill="#96d6e6" d="M 26.5,32.5 C 29.5954,33.1187 29.9288,34.1187 27.5,35.5C 26.6143,34.675 26.281,33.675 26.5,32.5 Z"/></g>
<g><path style="opacity:0.565" fill="#a2a7bd" d="M 46.5,33.5 C 48.4646,33.9483 48.7979,34.9483 47.5,36.5C 46.6143,35.675 46.281,34.675 46.5,33.5 Z"/></g>
<g><path style="opacity:0.941" fill="#7a82a1" d="M 27.5,36.5 C 32.0006,36.7313 32.6672,38.398 29.5,41.5C 26.6514,40.5846 25.9848,38.918 27.5,36.5 Z"/></g>
<g><path style="opacity:1" fill="#9ea3ba" d="M 45.5,37.5 C 47.4646,37.9483 47.7979,38.9483 46.5,40.5C 44.4807,39.8671 44.1474,38.8671 45.5,37.5 Z"/></g>
<g><path style="opacity:1" fill="#515c84" d="M 51.5,40.5 C 53.1667,40.5 54.8333,40.5 56.5,40.5C 56.6602,42.1992 56.4935,43.8659 56,45.5C 54.6667,46.8333 53.3333,46.8333 52,45.5C 51.5065,43.8659 51.3398,42.1992 51.5,40.5 Z"/></g>
<g><path style="opacity:1" fill="#71c6dc" d="M 19.5,41.5 C 23.8138,41.7721 24.3138,43.1055 21,45.5C 19.8118,44.4366 19.3118,43.1033 19.5,41.5 Z"/></g>
<g><path style="opacity:0.376" fill="#acb3c5" d="M 34.5,42.5 C 33.1667,42.5 32.5,43.1667 32.5,44.5C 31.596,43.791 31.2627,42.791 31.5,41.5C 32.791,41.2627 33.791,41.596 34.5,42.5 Z"/></g>
<g><path style="opacity:1" fill="#626a8f" d="M 34.5,42.5 C 35.525,42.8966 35.6917,43.5632 35,44.5C 34.0228,45.7736 33.1894,45.7736 32.5,44.5C 32.5,43.1667 33.1667,42.5 34.5,42.5 Z"/></g>
<g><path style="opacity:0.565" fill="#737e9d" d="M 42.5,40.5 C 44.332,41.1405 44.6653,42.1405 43.5,43.5C 42.6143,42.675 42.281,41.675 42.5,40.5 Z"/></g>
<g><path style="opacity:0.627" fill="#838da8" d="M 37.5,42.5 C 41.31,43.7542 41.31,44.7542 37.5,45.5C 37.5,44.5 37.5,43.5 37.5,42.5 Z"/></g>
<g><path style="opacity:1" fill="#4fb8d4" d="M 9.5,44.5 C 15.2095,43.8672 17.2095,46.2005 15.5,51.5C 8.03555,53.5369 6.03555,51.2036 9.5,44.5 Z"/></g>
<g><path style="opacity:1" fill="#7ac9de" d="M 25.5,47.5 C 28.8606,48.2032 29.1939,49.5365 26.5,51.5C 24.3576,50.5629 24.0243,49.2296 25.5,47.5 Z"/></g>
<g><path style="opacity:1" fill="#45517b" d="M 44.5,47.5 C 50.5548,46.9421 51.8881,49.1088 48.5,54C 43.5705,54.427 42.2372,52.2604 44.5,47.5 Z"/></g>
<g><path style="opacity:1" fill="#3c4975" d="M 55.5,48.5 C 58.4475,48.2229 61.2809,48.5562 64,49.5C 67.2753,55.8012 65.6087,59.8012 59,61.5C 51.8847,58.8257 50.7181,54.4923 55.5,48.5 Z"/></g>
<g><path style="opacity:1" fill="#4c5780" d="M 32.5,48.5 C 38.845,48.542 40.5117,51.2087 37.5,56.5C 30.4089,57.5305 28.7422,54.8639 32.5,48.5 Z"/></g>
<g><path style="opacity:1" fill="#57bad5" d="M 19.5,56.5 C 21.604,56.2011 23.604,56.5344 25.5,57.5C 26.8774,61.9595 25.2107,63.7928 20.5,63C 18.4197,61.0388 18.0863,58.8722 19.5,56.5 Z"/></g>
<g><path style="opacity:1" fill="#58bbd5" d="M 45.5,59.5 C 50.1585,59.0146 51.4919,60.848 49.5,65C 44.7282,65.8104 43.3948,63.9771 45.5,59.5 Z"/></g>
<g><path style="opacity:1" fill="#56bad5" d="M 33.5,60.5 C 37.0681,60.7593 38.4015,62.7593 37.5,66.5C 31.5407,67.2222 30.2073,65.2222 33.5,60.5 Z"/></g>
</svg>
