<svg id="icon" width="100%" height="100%" viewBox="0 0 300 300" xmlns="http://www.w3.org/2000/svg">
<g clip-path="url(#clip0_234_803)">
<path fill-rule="evenodd" clip-rule="evenodd" d="M0 0C83.3243 0 166.648 0 249.973 0C249.973 83.3334 249.973 166.667 249.973 250C166.648 250 83.3243 250 0 250C0 166.667 0 83.3334 0 0Z" fill="white"/>
<path fill-rule="evenodd" clip-rule="evenodd" d="M72.9492 65.4297C72.9492 76.4975 72.9492 87.565 72.9492 98.6328C80.0821 98.6328 87.2148 98.6328 94.3477 98.6328C93.761 93.6342 94.4095 89.077 96.293 84.9609C96.293 85.6119 96.293 86.2631 96.293 86.9141C96.293 91.4713 96.293 96.0287 96.293 100.586C87.8634 100.586 79.4335 100.586 71.0039 100.586C70.3758 88.4961 71.0241 76.7773 72.9492 65.4297Z" fill="#B7B7B7"/>
<path fill-rule="evenodd" clip-rule="evenodd" d="M74.9492 77.4297C108.668 77.4297 142.387 77.4297 176.105 77.4297C176.105 88.4975 176.105 99.565 176.105 110.633C168.324 110.633 160.543 110.633 152.762 110.633C152.762 106.076 152.762 101.518 152.762 96.9609C146.926 96.9609 141.09 96.9609 135.254 96.9609C135.254 121.701 135.254 146.44 135.254 171.18C139.793 171.18 144.332 171.18 148.871 171.18C148.871 177.69 148.871 184.201 148.871 190.711C132.66 190.711 116.449 190.711 100.238 190.711C100.238 184.201 100.238 177.69 100.238 171.18C104.129 171.18 108.02 171.18 111.91 171.18C111.91 146.44 111.91 121.701 111.91 96.9609C107.371 96.9609 102.832 96.9609 98.293 96.9609C96.4095 101.077 95.7609 105.634 96.3477 110.633C89.2148 110.633 82.0821 110.633 74.9492 110.633C74.9492 99.565 74.9492 88.4975 74.9492 77.4297Z" fill="black"/>
</g>
<defs>
<clipPath id="clip0_234_803">
<rect width="249" height="250" fill="white"/>
</clipPath>
</defs>
</svg>
