<svg id="icon" width="100%" height="100%" viewBox="0 0 160 160" xmlns="http://www.w3.org/2000/svg">
<path d="M57.5 82.5H62.5V55H57.5V82.5ZM60 47.885C60.8733 47.885 61.6033 47.59 62.19 47C62.78 46.41 63.075 45.68 63.075 44.81C63.075 43.9367 62.78 43.205 62.19 42.615C61.6033 42.025 60.8733 41.73 60 41.73C59.1267 41.73 58.3967 42.025 57.81 42.615C57.22 43.205 56.925 43.9367 56.925 44.81C56.925 45.68 57.22 46.41 57.81 47C58.3967 47.59 59.1267 47.885 60 47.885ZM60.015 105C53.795 105 47.945 103.82 42.465 101.46C36.9883 99.0967 32.2233 95.89 28.17 91.84C24.1167 87.7933 20.9083 83.0333 18.545 77.56C16.1817 72.0867 15 66.2383 15 60.015C15 53.795 16.18 47.945 18.54 42.465C20.9033 36.9883 24.11 32.2233 28.16 28.17C32.2067 24.1167 36.9667 20.9083 42.44 18.545C47.9133 16.1817 53.7617 15 59.985 15C66.205 15 72.055 16.18 77.535 18.54C83.0117 20.9033 87.7767 24.11 91.83 28.16C95.8833 32.2067 99.0917 36.9667 101.455 42.44C103.818 47.9133 105 53.7617 105 59.985C105 66.205 103.82 72.055 101.46 77.535C99.0967 83.0117 95.89 87.7767 91.84 91.83C87.7933 95.8833 83.0333 99.0917 77.56 101.455C72.0867 103.818 66.2383 105 60.015 105ZM60 100C71.1667 100 80.625 96.125 88.375 88.375C96.125 80.625 100 71.1667 100 60C100 48.8333 96.125 39.375 88.375 31.625C80.625 23.875 71.1667 20 60 20C48.8333 20 39.375 23.875 31.625 31.625C23.875 39.375 20 48.8333 20 60C20 71.1667 23.875 80.625 31.625 88.375C39.375 96.125 48.8333 100 60 100Z" fill="black" stroke-width="6"/>
</svg>
